<?xml version="1.0" encoding="utf-8"?>
<!-- Generator: Adobe Illustrator 23.0.0, SVG Export Plug-In . SVG Version: 6.00 Build 0)  -->
<svg version="1.1" baseProfile="tiny" id="Слой_1"
	 xmlns="http://www.w3.org/2000/svg" xmlns:xlink="http://www.w3.org/1999/xlink" x="0px" y="0px" viewBox="0 0 1275.6 1275.6"
	 xml:space="preserve">
<g>
	<g id="XMLID_1_">
		<g>
			
				<rect x="-750.2" y="-750.2" transform="matrix(0.7071 -0.7071 0.7071 0.7071 -264.2682 638)" display="none" fill="none" stroke="#000000" stroke-width="2" stroke-miterlimit="10" width="2776.3" height="2776.3"/>
			<g id="Background_1_" display="none">
				<g display="inline">
					<image width="5031" height="5028" xlink:href="41E1EE5D.png"  transform="matrix(0.24 0 0 0.24 36.24 35.28)">
					</image>
					<g>
						<image width="5031" height="5028" xlink:href="41E1EE5F.png"  transform="matrix(0.24 0 0 0.24 36.24 35.28)">
						</image>
						<polygon fill="#4E0C73" points="72.9,1241.9 1243.4,71.1 1243.4,65.2 66.7,1241.9 						"/>
					</g>
				</g>
			</g>
		</g>
		<g>
			
				<rect x="214.4" y="214.4" transform="matrix(0.7071 -0.7071 0.7071 0.7071 -264.2682 638)" display="none" fill="#FFFFFF" stroke="#F24294" stroke-width="3" stroke-miterlimit="10" width="847.3" height="847.3"/>
		</g>
	</g>
	<circle fill="#A67EAE" stroke="#F24294" stroke-width="3" stroke-miterlimit="10" cx="638.4" cy="638" r="500"/>
	<line fill="none" x1="637.9" y1="556.4" x2="622.2" y2="572.1"/>
	<path fill="#4E1586" stroke="#2F0E49" stroke-miterlimit="10" d="M638.4,569.3"/>
	<g>
		<line fill="none" x1="609" y1="705.2" x2="609" y2="875.6"/>
	</g>
	<path fill="#FAF418" d="M641.6,745.3c5.1-7.3,8.8-15.3,7.4-24.4c-1.8-12.3-11.4-22.9-23.2-26.5c0,0,0,0,0.1,0
		c-0.1,0-0.2-0.1-0.3-0.1c0,0,0,0,0,0c-0.4,0-0.8-0.1-1.2-0.1c-2.2-0.1-4.4-0.2-6.6-0.3c-0.1,0.3-0.2,0.6-0.2,0.9
		c-0.1,0.5-0.3,0.9-0.4,1.4c0,0,0,0,0,0c0.1,0,0.1,0,0.1,0.1c0.1,0.1,0.3,0.1,0.4,0.2c0.2,0.1,0.4,0.1,0.6,0.2c0,0,0,0,0,0
		c1,0,1.8,0.1,2.7,0.4c0-0.1-0.1-0.1-0.1-0.2c16.3,2,29.3,19.9,24.1,36c-5.1,16.2-20.1,25.9-29.1,39.7c-5,7.3-8.4,16.4-6.1,25.3
		c1,5.2,4.1,9.6,7.6,13.5c-1.1,11.1,1,23.5,9.5,31.4l1.1-3.3c-6.5-7-8.1-16.8-7.7-26c5.7,2.6,12.5,2.4,17.4-1.7
		c0.1,0,0.2-0.1,0.3-0.2c0.1-0.1,0.2-0.2,0.3-0.3c1.1-1.8,2-3.9,2.1-6c0,0,0,0,0-0.1c0-0.1,0-0.1,0-0.2c0-0.1,0-0.2,0-0.3l0-0.1
		c-1.5-4.8-6.2-8.6-11.4-7.8c-5.5,0.6-9,5.6-10.9,10.4c-5.3-6.2-7.3-15.2-4.3-22.9C618.7,768.7,632.8,758.2,641.6,745.3z
		 M629.6,799.7c4.2-0.7,9.1,4.2,6.5,8.2c-3.5,5-10.9,4.7-15.5,1.5C621.8,805.1,624.6,800.1,629.6,799.7z"/>
	<polygon fill="#4E0E73" points="615.5,685.4 606.4,702.3 615.5,702.3 624.5,702.3 	"/>
	<path fill="#F4120C" d="M635.9,670.5"/>
	<path fill="#F4120C" d="M638,637.1"/>
	<path fill="#F4120C" d="M633.6,708.7"/>
</g>
<text transform="matrix(1 0 0 1 141.5338 693.843)" fill="#4E0C73" font-family="'ADAM.CGPRO'" font-size="172px">ШАРОДУВЫ</text>
<g>
	<path fill="#C21957" d="M242.2,538.4c-1.1,1.8,0.1,4.2,1.5,5.7c3.8,4.2,9.2,6.9,14.8,7.3c2.1,0.2,4.3,0,6.1-1.2
		c1.8-1.2,2.9-3.5,2.1-5.4c-0.7-1.7-2.6-2.7-3.4-4.3c-1.3-2.6,0.6-5.7,0.4-8.5c-0.2-2.1-1.6-4-3.5-4.9c-1.9-0.8-4.3-0.5-5.9,0.8
		c-2.5,2.1-3.1,6-6,7.6C246.2,536.7,243.4,536.5,242.2,538.4z"/>
	<path fill="#E02066" d="M257,534.7c-94.7-38.8-28.6-214,75.7-169.5C437.1,409.7,366,579.4,257,534.7z"/>
	<path fill="#EC5D80" d="M359.4,459.5c9.8-4.7,12.8-17.3,12-28.1c-1.1-14.2-7-27.9-16.5-38.5c-6-6.6-15-12.3-23.4-9.3
		c-5.3,1.9-9,7.1-10.5,12.6c-1.5,5.5-1.2,11.2-0.8,16.9c1.1,14.8,3.8,30.8,14.6,40.9C341.3,460.2,351.4,463.4,359.4,459.5z"/>
	<path fill="#EC5D80" d="M345.8,481c1.1,1.8,3,2.9,5,3.5c3.7,1.1,8,0.5,10.8-2.1c2.9-2.6,3.9-7.2,1.9-10.4
		c-2.7-4.3-9.3-4.5-13.7-1.8C346.3,472.4,343.6,477.3,345.8,481z"/>
</g>
<path fill="#323740" d="M375,1059.7c-10.5-23.8-13.1-50.3-12-76.1c0.6-13.8,3.1-27.2,5.7-40.8c1.3-6.7,2.3-13.5,2.3-20.4
	c0-7.1-1.8-14.1-1.9-21.2c0-1.3-2-1.3-2,0c0,7.1,1.5,14.1,1.8,21.2c0.3,8.1-1.6,16.4-3.2,24.3c-2.6,12.9-4.5,25.7-5.2,38.9
	c-1.2,25.3,1.4,52.1,12.8,75C374,1061.7,375.5,1060.7,375,1059.7z"/>
<g>
	<path fill="#F0782D" d="M379.9,897.2c-0.6-1.1-2.1-1.1-3.1-1.9c-1.5-1.1-1.5-3.4-2.2-5.2c-1.1-2.6-4.6-3.9-7.2-2.7
		c-2.1,1-3.3,3.4-3.1,5.7c0.1,1-0.4,2-1.3,2.4l-0.2,0.1c-1.5,0.7-1.8,2.8-0.5,3.8c0,0,0,0,0,0c0.9,0.7,2,1,3.2,1.2
		c3.5,0.7,7.2,0.9,10.7,0.3c1-0.1,2.1-0.4,2.9-1C380,899.3,380.4,898.1,379.9,897.2z"/>
	<path fill="#F5AE44" d="M371.3,892.3c-43.7,8.6-93.2-137.7-8.2-166.5C448.1,697,465.2,873.8,371.3,892.3z"/>
	<path fill="#F6CF72" d="M383.5,731.7c-1.8,1.9-2.1,4.7-2.1,7.3c0,17.1,9.6,33.9,24.2,42.7c3.5,2.1,8,3.8,11.6,1.8
		c2.5-1.4,3.9-4.2,4.2-7c0.3-2.8-0.3-5.6-0.9-8.3c-1.9-8-4.3-16-8.7-22.9c-4.4-6.9-10.8-12.8-18.7-15.1
		C389.8,729.3,385.9,729.2,383.5,731.7z"/>
	<path fill="#F6CF72" d="M419.7,788c-2.8,0.3-4.4,3.3-5.1,6c-0.7,3-0.6,6.3,0.9,9c1.6,2.7,4.9,4.4,7.8,3.6c2.7-0.8,4.4-3.5,4.7-6.3
		c0.3-2.8-0.7-5.5-2.1-7.9C424.8,790.1,422.5,787.7,419.7,788z"/>
</g>
<path fill="#323740" d="M381.1,890.9c-5.8,2.7-11.9,3.7-18.1,1.7c-0.9-0.3-1.3,1.1-0.4,1.5c6.2,2.2,13.8,2,19.2-1.9
	C382.7,891.6,382,890.5,381.1,890.9z"/>
<path fill="#323740" d="M930.4,498.1c-6,12.1-21.4,9.3-32.5,11.9c-11.2,2.6-22.9,10.3-29.1,20c-0.8,1.2,0.9,2.4,1.9,1.5
	c5.4-4.8,9.8-9.9,16.1-13.7c5.7-3.4,11.9-5.3,18.4-6.3c10-1.6,21.7-2.1,26.4-12.7C931.9,498,930.8,497.3,930.4,498.1z"/>
<path fill="#323740" d="M719.4,374.6c-0.4,22.5-7,41.5-21,59.1c-13,16.4-28.6,31.9-37,51.4c-0.6,1.3,1.2,2.4,1.9,1.1
	c11.7-20.4,27-37.6,40.8-56.4c12-16.2,16.6-35.4,16.6-55.3C720.8,373.7,719.4,373.7,719.4,374.6z"/>
<g>
	<path fill="#219C9C" d="M937.6,484.7c-1.9,0.6-3.3,2.1-5.3,2.5c-1.5,0.3-3.2,0-4.8-0.1c-1.6-0.1-3.4,0.3-4,1.6
		c-0.5,0.9-0.2,2,0.2,2.9c2.3,6,8.2,11.1,15.2,13.1c1.3,0.4,2.7,0.7,3.9,0.5c1.3-0.2,2.5-0.9,2.9-1.9c0.7-1.9-1.4-3.9-1.5-6
		c-0.1-1.7,1.2-3.1,1.8-4.6c0.7-2,0.2-4.4-1.5-6.1C942.7,484.8,939.9,484,937.6,484.7z"/>
	<path fill="#26A8AF" d="M939.2,492.1c-30.2-24.5,9.7-117.5,66.3-120.4c56.6-2.9,89.3,46.5,68.9,84.8
		C1054.1,494.7,971.7,518.4,939.2,492.1z"/>
	<path fill="#68C1D7" d="M1069.6,436.4c1.5-6,1.1-13.2-4.4-17.7c-4.3-3.5-10.9-4.1-16.1-2.4c-5.2,1.7-9.1,5.3-11.9,9.3
		c-4.3,6-6.7,13.2-6.8,20.6c0,3.3,0.4,6.6,2,9.7c1.6,3.1,4.6,5.8,8.2,6.8c5.8,1.6,11.5-1.4,15.5-4.9
		C1062.9,452.1,1067.6,444.6,1069.6,436.4z"/>
	<path fill="#68C1D7" d="M1035,479.9c3.9-0.6,8.2-2.7,7.8-6.3c-0.2-2-2.1-3.8-4.3-4.7c-2.2-0.9-4.6-1-6.9-0.9
		c-4.1,0.2-8.8,1.7-9.2,5.2c-0.2,2.4,1.8,4.8,4.4,5.9C1029.3,480.2,1032.3,480.3,1035,479.9z"/>
</g>
<g>
	<path fill="#2089BD" d="M711.8,373c-0.6,1.8,1,3.5,2.5,4.6c4.1,2.8,9.3,3.9,14.1,3.1c1.8-0.3,3.7-0.9,5-2.3
		c1.3-1.4,1.7-3.6,0.6-5.1c-1-1.3-2.8-1.7-3.8-3c-1.6-2-0.7-5-1.5-7.4c-0.6-1.7-2.2-3.1-4-3.4c-1.8-0.3-3.8,0.5-4.9,2
		c-1.7,2.3-1.4,5.8-3.5,7.7C714.9,370.7,712.4,371.1,711.8,373z"/>
	<path fill="#2089BD" d="M723.7,366.8c-88.9-13.3-69.1-176.6,29.2-160.4C851.2,222.6,826,382.1,723.7,366.8z"/>
	<path fill="#3FACCF" d="M795.4,281.2c7.4-6,7.3-17.4,4.3-26.4c-3.9-11.8-11.8-22.3-22.1-29.4c-6.5-4.4-15.4-7.4-21.9-3
		c-4.1,2.8-6.1,7.9-6.3,12.9c-0.2,5,1.3,9.8,2.8,14.6c4.1,12.4,9.7,25.4,21,31.8C780,285.6,789.3,286.2,795.4,281.2z"/>
	<path fill="#3FACCF" d="M788.2,302.4c1.3,1.3,3.2,1.9,5,1.9c3.4,0.1,6.9-1.3,8.8-4.1c1.9-2.8,1.8-6.9-0.6-9.3
		c-3.2-3.1-8.9-1.9-12,1.3C786.8,295,785.6,299.7,788.2,302.4z"/>
</g>
<path fill="#323740" d="M733.2,368.3c-6-0.4-11.6,0.1-17.5-1.6c-0.6-0.2-0.8,0.7-0.2,0.9c5.5,1.9,11.9,2.8,17.7,2.1
	C734.1,369.5,734.1,368.3,733.2,368.3z"/>
<path fill="#323740" d="M947.2,497.4c-5.9-2.9-12.4-5.9-15.5-12c-0.3-0.7-1.5-0.5-1.6,0.2c-0.6,3,3,6,5,7.7c3.2,2.7,7.2,5,11.2,6.2
	C947.6,500,948.5,498,947.2,497.4z"/>
<path fill="#F8DA34" d="M881.9,358c0,0-0.1,0-0.1,0c-2.2,0.1-4.1-1.2-4.8-3.3c-0.6-2.1-1.5-4.1-2.5-6c-1.6-2.9-5.8-2.4-7.3,0.2
	c-1.8,3.1-3.6,6.2-5.3,9.3c-0.7,1.3-2.1,2.2-3.6,2.4c-1.3,0.1-2.7,0.2-4,0.3c-4.3,0.2-5.7,6-1.9,8.1c0,0,0,0,0,0
	c1.9,1.1,2.7,3.4,2,5.4c-0.4,1.1-0.7,2.3-1,3.5c-0.1,0.5-0.1,0.9,0.1,1.2c-0.5,3,2.7,5.3,5.5,4.5c2.1-0.6,4.1-1.4,6.1-2.4
	c1.7-0.9,3.7-0.7,5.1,0.6c1.2,1,2.4,2,3.5,3.1c3.6,3.3,8.3-0.4,7.5-4.7c-0.5-2.5-0.8-5.1-1.1-7.7c-0.2-1.4,0.4-2.9,1.4-3.9
	c1.2-1.2,2.5-2.3,3.7-3.5C887.8,362.6,885.4,357.8,881.9,358z"/>
<path fill="#323740" d="M1036.2,937.3c-18.1-2.1-36-1.3-50.1-14.7c-0.7-0.6-1.5,0.3-1,1c9.5,12.1,25.7,13.9,40,15.2"/>
<g>
	<path fill="#C21957" d="M992.8,912.8c-1.3,0-2.6,1.5-4,2c-2.1,0.9-3.9-0.6-5.9-0.9c-3-0.5-6.8,2.2-8,5.6c-1,2.7,0,5.5,1.9,6.6
		c0.9,0.5,1.2,1.6,0.8,2.8l-0.1,0.3c-0.6,2,0.7,3.6,2.6,2.9c0,0,0,0,0,0c1.3-0.5,2.4-1.5,3.5-2.5c3.4-3.1,6.5-6.8,9-10.7
		c0.7-1.1,1.4-2.4,1.6-3.6C994.5,914,993.9,912.8,992.8,912.8z"/>
	<path fill="#E02066" d="M981.9,918.4c-28.9,50-183.5,9.3-136.8-95.4C891.8,718.3,1043.9,811,981.9,918.4z"/>
	<path fill="#EC5D80" d="M866.4,805.8c0,3,2,5,4,6.6c13.4,10.6,34.3,11.4,53.1,1.9c4.5-2.3,9.5-5.8,10.9-10.7c1-3.4-0.1-6.5-2-8.6
		c-1.9-2.1-4.6-3.2-7.3-4.2c-7.8-3-16-5.5-25-5.4c-9,0.1-18.9,3.1-27,9.7C869.7,797.9,866.4,801.9,866.4,805.8z"/>
	<path fill="#EC5D80" d="M939.9,804c-2,3-1,6.6,0.6,8.9c1.8,2.6,4.5,4.6,7.8,4.7c3.4,0.1,7.4-2.2,9.2-5.8c1.6-3.2,0.9-6.7-1-8.7
		c-1.9-2-4.9-2.7-7.9-2.8C945.6,800.1,941.9,801,939.9,804z"/>
</g>
<path fill="#323740" d="M986,908.9c-1.9,2.6-3.4,5.4-4.9,8.2c-1.7,3.1-3.9,5.9-5.9,8.8c-1,1.5,1.2,2.9,2.4,1.9
	c4.9-4.3,9.6-11.4,11.3-17.7C989.4,908.3,987,907.5,986,908.9z"/>
<g>
	<path fill="#B1D3D7" d="M516.3,277.4c-0.9-1.3-1.6-2.8-2.3-4.2c-0.7-1.2-1.1-3.2-2-4.8c-1.9-3.4-6.4-2.3-7.6,1
		c-1.1,2.9-0.1,5.6,1,8.2c1.1,2.4,3.1,4.1,5.4,5.3C514.1,284.9,518.7,281,516.3,277.4z"/>
	<path fill="#B1D3D7" d="M549.5,326.5c-2.3-3.9-9.2-1.3-7.4,3.2c2.1,5.1,3.9,11,8.2,14.7c2.1,1.8,6,0.8,5.8-2.4
		C555.7,336.3,552.4,331.4,549.5,326.5z"/>
	<path fill="#B1D3D7" d="M508.3,319.7c-3.6,0.2-7.2,2.8-10.2,4.6c-3.1,1.8-6.8,4.4-7.9,8c-0.5,1.6,0.9,3.7,2.7,3.5
		c3.6-0.4,6.2-3,9-5.1c2.8-2.1,6.7-4.6,8.4-7.7C511,321.6,510,319.7,508.3,319.7z"/>
	<path fill="#B1D3D7" d="M565.1,278.7c-2.5,0.4-4.5,1.8-6.6,3.1c-2.4,1.4-4.9,2.6-7.4,3.9c-3.2,1.7-0.9,6.5,2.4,5.7
		c5.1-1.2,12.1-3.5,15.1-8.2C570.2,280.8,567.5,278.4,565.1,278.7z"/>
	<path fill="#B1D3D7" d="M540.1,276.3c0.3-1.6,0.8-3.1,1.3-4.6c0.4-1.3,1.5-3.1,1.9-4.8c1-3.7-2.9-6.2-6.1-4.7
		c-2.8,1.3-4,3.9-5.1,6.6c-1,2.5-0.7,5.1,0,7.6C533.3,280,539.3,280.5,540.1,276.3z"/>
	<path fill="#B1D3D7" d="M529.2,334.7c1.1-4.4-5.6-7.5-7.5-3.1c-2.1,5.1-5,10.6-4.6,16.2c0.2,2.7,3.7,4.9,5.8,2.4
		C526.7,346,527.8,340.2,529.2,334.7z"/>
	<path fill="#B1D3D7" d="M504.8,300.5c-2.7-2.5-7-3.2-10.5-4c-3.5-0.9-7.9-1.7-11.2,0c-1.5,0.8-2,3.3-0.6,4.4
		c2.8,2.3,6.5,2.3,9.9,2.8c3.5,0.4,8,1.5,11.4,0.5C505.4,303.8,506.1,301.7,504.8,300.5z"/>
	<path fill="#B1D3D7" d="M573.7,312c-2-1.5-4.5-1.9-6.8-2.6c-2.7-0.7-5.3-1.7-8-2.5c-3.5-1.1-5.2,3.9-2.3,5.8c4.5,2.8,11,6.1,16.4,5
		C575.9,317.1,575.7,313.5,573.7,312z"/>
	<path fill="#B1D3D7" d="M528,293.3c-0.9,0.2-2.3,0.6-2.9,1.1c-0.6,0.5-1.3,1-1.9,1.5c-0.7,0.7-1.1,1.5-1.7,2.3
		c-1.8,2.9-1.1,6.9,1.2,9.3c2.3,2.3,6.3,3.1,9.2,1.2c1.4-0.9,2.4-1.9,3.5-3.2c0.7-0.9,1.1-2.1,1.3-3.2
		C537.9,296.7,533.4,292.1,528,293.3z"/>
</g>
<path fill="#B1D3D7" d="M538.6,961c-3.5-22.7-22.3-52-47.7-52.2c-0.6-2.1-1.2-4-1.9-5.4c-12.8-28-45.2-25.9-62.9-4.5
	c-2.3,2.8,1.6,6.9,4.1,4.1c15-17,37.6-19.8,50.4,1.2c1,1.7,1.8,3.7,2.5,6c-8.3,2.7-16.5,9.4-18.6,17.1c-2.9,10.6,6.3,19.3,16.8,18.9
	c11.2-0.4,13-13.8,11.8-26c3.9,0.4,7.8,2,11.3,4.2c13.3,8.5,20.1,26.2,26.2,40C532.7,969.4,539.3,965.5,538.6,961z M474.7,932.4
	c-1.3-3.2,5.6-8,7.6-9.4c0.8-0.6,1.6-1,2.5-1.4c0.1,4.9-0.7,9.7-2.3,13.2C480.8,938.1,475.5,934.4,474.7,932.4z"/>
<path fill="#B1D3D7" d="M788.8,957.1c-12.2,1.1-22.6-5.7-28.1-16.4c0,0,0,0,0,0c3.8-0.3,7.5-1.4,10.8-3.2c11.4-6.3,8.7-19,1.9-27.4
	c-0.7-0.9-2.2-1.1-3.2-0.9c-13.9,3.8-18.5,13.3-17.2,23.2c-3.7-1-7.2-3.1-9.6-6.3c-9.1-11.9-11-32-6.4-45.9c0.8-2.4,2-4.3,3.6-5.8
	c3.3,11.8,10.5,20.5,23.3,13.6c9.7-5.2,10.3-16.8,1.5-23.2c-5.1-3.8-13.5-4.1-20.5-2c-0.8-7.5-0.5-14.9,0.1-18
	c0.6-3.1-3.6-4.3-4.7-1.3c-1.7,4.9-2.4,13.4-1.4,21.9c-1.2,0.7-2.2,1.4-3.1,2.3c-16.4,15.3-10.3,52,4.5,66.4c4.1,4,9.6,6.2,15.2,6.8
	c5.5,12.2,19,22.5,33.9,19.9C791.3,960.3,790.8,956.9,788.8,957.1z M752.2,869.5c3.2-0.3,6.5,0.1,9.4,1.7c6.5,3.5,1.1,10-3.8,11.3
	c-6.1,1.6-9.6-4.1-11.5-11.7C748.1,870.1,750.1,869.7,752.2,869.5z M769.7,916.3c6.5,10.6-1.8,17-11.3,16.9
	C757.7,925.6,761.9,919.1,769.7,916.3z"/>
<path fill="#E02066" d="M250.6,788.3c-11.8,0-11.8,18.2,0,18.2C262.3,806.6,262.3,788.3,250.6,788.3z"/>
<path fill="#EE5E41" d="M349,293c-2.1-1.2-5.3-1.5-7.3,0c-0.4,0.3-0.8,0.6-1.3,0.9c-1.8,1.3-3.1,3-3.1,5.4c0,2.4,1.3,4.1,3.1,5.4
	l1.3,0.9c2.1,1.5,5.3,1.2,7.3,0c2.2-1.3,3.6-3.7,3.6-6.3C352.6,296.7,351.3,294.3,349,293z"/>
<path fill="#26A8AF" d="M1016.7,753.4c-0.8-1.4-2.6-3-4.3-3.3c-0.1,0-0.2,0-0.3-0.1c-1.5-0.2-1.7-0.2-3.1,0c-3.3,0.5-5.6,3.8-5.6,7
	c0,5.5,6.1,9,10.8,6.2c2.2-1.3,3.6-3.7,3.6-6.2C1017.7,755.7,1017.4,754.5,1016.7,753.4z"/>
<path fill="#323740" d="M679.8,1136.3c0.7-6.9-0.2-14.2-2.1-21c-0.4-1.4-2.5-0.8-2.2,0.6c1.8,6.7,1.8,13.5,2.4,20.4"/>
<g>
	<path fill="#D3422C" d="M665.4,1104.1c-0.5,2.2,0.3,4.5-0.3,6.6c-0.5,1.6-1.7,2.9-2.6,4.4c-0.9,1.4-1.5,3.4-0.6,4.8
		c0.7,1,1.9,1.5,3.1,1.9c7.3,2,15.6,0.2,21.3-4.8c1.1-0.9,2.1-2,2.6-3.3c0.5-1.3,0.5-2.9-0.4-4c-1.6-2-4.7-1.4-6.8-2.8
		c-1.7-1.1-2.5-3.2-3.7-4.9c-1.6-2.1-4.4-3.3-7-2.9C668.3,1099.5,665.9,1101.6,665.4,1104.1z"/>
	<path fill="#EE5E41" d="M673.8,1107.9c-40.7,10.8-113.2-91-86-145.2s94.2-49.8,121.9-4.3C737.3,1003.8,717.5,1096.3,673.8,1107.9z"
		/>
	<path fill="#EF795C" d="M686.8,948.7c-5.2-5.5-12.7-10.3-20.1-8.3c-5.8,1.6-9.9,7.2-11,13.1c-1,5.9,0.5,12.1,3.1,17.5
		c3.8,8.2,9.8,15.4,17.1,20.6c3.3,2.3,6.9,4.3,10.8,4.9c3.9,0.7,8.3-0.2,11.2-2.8c4.7-4.2,4.7-11.6,3.3-17.7
		C699.1,965.9,694,956.3,686.8,948.7z"/>
	<path fill="#EF795C" d="M712.2,1011.1c1.5-4,1.6-9.5-2.2-11.6c-2.2-1.2-5-0.7-7,0.7c-2.1,1.4-3.5,3.5-4.6,5.8
		c-2,3.9-3,9.3,0.4,12.1c2.3,1.9,5.8,1.7,8.3,0.1S711.2,1013.8,712.2,1011.1z"/>
</g>
<path fill="#323740" d="M681.7,1106.5c-0.5,0.3-1.1,0.6-1.6,0.9c-0.7,0.3-1.4,0.6-2.1,0.9c-5.1,1.8-10.5,1.4-16,1.8
	c-1.4,0.1-1.4,2,0,2.1c6.4,0.5,13.1,0.5,19-2.1c0.7-0.2,1.4-0.6,2.2-1.1C684.6,1107.9,683.3,1105.5,681.7,1106.5z"/>
<path fill="#B1D3D7" d="M584.6,443.2c-0.1-2.7-4-2.7-4.2,0c-0.8,9.1-2.1,18.2-4.4,27.1c-1.8,6.7-5.6,19.8-13.6,22.3
	c1.1-8.9-2.5-16.5-12.5-20.4c-10.5-4.1-17.1,7.5-10.5,15.5c4.4,5.4,10.5,9.3,16.6,10.4c-2.7,6.5-7.7,12.8-11.6,15.7
	c-4.8,3.6-12.4,7.2-19.4,7.6c0-0.1,0.1-0.2,0.1-0.2c4-6.7,1.8-13.5-5-17c-9.6-5-18.9,1-13.7,11.8c2.4,5,6.2,7.9,10.6,9.2
	c-4.2,4.3-9.9,7.7-14.9,10.2c-8.5,4.3-19.1,6.9-28.2,3.1c-1.4-0.6-2.4,1.8-1,2.4c15.6,7,37.6-1.8,48.7-14.9c4.5,0.3,9.3-0.5,13.8-2
	c11.5-3.8,20.2-11.9,24.8-23.2c0.4-0.9,0.7-1.7,0.9-2.6c4.7-0.5,9.2-2.9,12.8-7.9C583.1,477.5,585.4,458.7,584.6,443.2z
	 M509.7,508.4c0.7-3.9,8.5-0.1,10,0.8c3.4,2,3.6,5.7,2.1,9c-0.5,1-1,2-1.6,3c-2.4-0.4-4.6-1.3-6.5-2.9
	C511.1,516.1,509.1,511.8,509.7,508.4z M545.2,485.9c-2-1.8-5.7-7-0.9-8.7c3-1.1,7.3,1.9,9.5,3.6c3.7,3,4.5,7.4,3.7,12.1
	C553,492,548.3,488.7,545.2,485.9z"/>
</svg>
