<?xml version="1.0" encoding="utf-8"?>
<!-- Generator: Adobe Illustrator 23.0.0, SVG Export Plug-In . SVG Version: 6.00 Build 0)  -->
<svg version="1.1" xmlns="http://www.w3.org/2000/svg" xmlns:xlink="http://www.w3.org/1999/xlink" x="0px" y="0px"
	 viewBox="0 0 1200 1200" style="enable-background:new 0 0 1200 1200;" xml:space="preserve">
<style type="text/css">
	.st0{display:none;}
	.st1{display:inline;}
	.st2{fill:#C8D133;}
	.st3{fill:#9EB817;}
	.st4{fill:#C6D031;}
	.st5{fill:#E2E755;}
	.st6{fill:#FF8093;}
	.st7{fill:#F82C51;}
	.st8{fill:#C6073A;}
	.st9{fill:#F62C52;}
	.st10{fill:#FF85A6;}
	.st11{fill:#FE9400;}
	.st12{fill:#FEC535;}
	.st13{fill:#FEE678;}
	.st14{fill:#FFFFFF;}
	.st15{fill:#E3E855;}
	.st16{fill:#FFC535;}
	.st17{fill:#0FEAFD;}
	.st18{fill:#F62C53;}
	.st19{fill:#0EA5D0;}
	.st20{fill:#FFC534;}
	.st21{fill:#F82B53;}
	.st22{fill:#CC4A20;}
	.st23{fill:#F72C52;}
	.st24{fill:#0EEEFE;}
	.st25{fill:#6AF9FD;}
	.st26{fill:#DC0237;}
	.st27{fill:#9CB714;}
	.st28{fill:#57C1F5;}
	.st29{fill:#0F80E0;}
	.st30{fill:#58C3F8;}
	.st31{fill:#3BAAF1;}
	.st32{fill:#025CB4;}
	.st33{fill:#D30339;}
	.st34{fill:#F72C53;}
	.st35{fill:#FEE97E;}
	.st36{fill:#FFEC79;}
	.st37{fill:#F82C52;}
	.st38{fill:#0BAED9;}
	.st39{fill:#FA2C52;}
	.st40{fill:#014779;}
	.st41{fill:#0FEAFC;}
	.st42{fill:#FFC633;}
	.st43{fill:#FE8094;}
	.st44{fill:#FF546A;}
	.st45{fill:#0E81E1;}
	.st46{fill:#ABD00B;}
	.st47{fill:#005FBB;}
	.st48{fill:#0AB3E0;}
	.st49{fill:#730739;}
	.st50{fill:#9CB618;}
	.st51{fill:#ABCE0A;}
	.st52{display:inline;fill:#F70709;}
	.st53{fill:none;stroke:#000000;stroke-width:2;stroke-miterlimit:10;}
	.st54{fill:none;stroke:#2F0D49;stroke-miterlimit:10;}
	.st55{fill:#5117AD;}
	.st56{font-family:'ADAM.CGPRO';}
	.st57{font-size:172px;}
	.st58{fill:none;}
	.st59{fill:#5117AD;stroke:#2F0D49;stroke-miterlimit:10;}
	.st60{fill:#FFF800;}
	.st61{fill:#F70709;}
	.st62{fill:#5720B0;}
	.st63{fill:#43285F;}
	.st64{fill:#0FEAFB;}
	.st65{fill:#DD305D;}
	.st66{fill:#4F385E;}
	.st67{fill:#5C8216;}
	.st68{fill:#5DCFFF;}
	.st69{fill:#AACB10;}
	.st70{fill:#DE305D;}
	.st71{fill:#0FEBFD;}
	.st72{fill:#024876;}
	.st73{fill:#FFEA3E;}
	.st74{fill:#FB8E4D;}
	.st75{fill:#FC8E4D;}
	.st76{fill:#FFEB3E;}
	.st77{fill:#FA8D4E;}
	.st78{fill:#FB8D4E;}
	.st79{fill:#FFC732;}
	.st80{fill:#E3E856;}
	.st81{fill:#FFA000;}
	.st82{fill:#76FFFF;}
	.st83{fill:#DB0336;}
	.st84{fill:#58C1F6;}
	.st85{fill:#C50739;}
	.st86{fill:#D30437;}
	.st87{fill:#9FB917;}
	.st88{fill:#FA2E53;}
	.st89{fill:#F92B53;}
	.st90{fill:#ABCF0B;}
	.st91{fill:#ABCF0D;}
	.st92{fill:#9DB717;}
</style>
<g id="Слой_1">
	<g id="Layer_1" class="st0">
		<g class="st1">
			<path class="st2" d="M1184.5,0h15.5v8C1195.3,4.4,1189.8,2.4,1184.5,0z"/>
		</g>
		<g class="st1">
			<path class="st3" d="M1179.7,0h4.8c5.3,2.4,10.8,4.4,15.5,8v22.5c-2.8-4.2-4.7-8.9-7.4-13.1C1188.9,11.2,1184.2,5.7,1179.7,0z"/>
			<path class="st3" d="M1185.6,104.7c5.9-5.5,10.2-12.4,14.4-19.3v110.2c-2.2,0.9-4.5,1.8-6.7,2.7c-0.1-1.6-0.2-3.2-0.3-4.8
				c2.3-5.1,5-10,6.9-15.2c-2.3,0.4-4.6,0.8-6.9,1c0.1-5.6,0.1-11.2,0.1-16.8c0-1,0-3.1,0-4.2c-32.4-0.9-64.9-3-97-7.5
				c-0.6-1.6-1.2-3.3-2.1-4.8c-6-10-11.2-20.5-16-31.1c7.9,0.9,15.3,3.8,22.8,6.2c13.2,4.2,27.2,5.2,41,3.8
				C1158.2,123,1173.9,116.2,1185.6,104.7z"/>
			<g>
				<path class="st3" d="M873,94.9c18,7.7,36.4,14.6,54.9,21c-8.6,8.9-17.5,17.6-26.3,26.2c-1.4,1.3-2.8,2.6-4.2,3.9
					c-5.5,5-10.7,10.3-16.4,15c-0.1-0.8-0.4-2.5-0.5-3.3c-0.1-0.9-0.4-2.5-0.5-3.4C877.1,134.5,874.4,114.8,873,94.9z M879.8,112.7
					c-0.2,8.3,1.4,16.5,2.7,24.7c1.1,4.9,1.5,9.9,3.4,14.6c8.9-7.4,17-15.8,23.8-25.3C898.4,125.9,887.7,120.8,879.8,112.7z"/>
			</g>
		</g>
		<g class="st1">
			<g>
				<path class="st4" d="M1112.5,0h27c-5,3.9-11.9,5.5-15.6,11c-1.8,2.6,0.7,5.3,3.1,6.1c6,2.4,12.7,2.5,19,1.7
					c5.5-0.9,11.2-2.4,15.3-6.4c3.2-3.2,4.4-7.9,4.1-12.3h14.3c4.4,5.7,9.2,11.2,12.9,17.4c2.7,4.2,4.6,8.9,7.4,13.1v54.9
					c-4.1,6.9-8.5,13.7-14.4,19.3c-11.7,11.5-27.4,18.3-43.6,20.3c-13.8,1.3-27.8,0.3-41-3.8c-7.5-2.4-15-5.3-22.8-6.2
					c4.8,10.6,9.9,21.1,16,31.1c0.8,1.5,1.4,3.2,2.1,4.8c-1.8-0.2-3.5-0.4-5.2-0.6c-14.2-21.3-22.7-46.5-23.3-72.2
					c-0.3-18.7,4.1-37.9,15.2-53.2C1090.4,14.1,1100.8,5.8,1112.5,0z M1113.3,19.5c-9.2,0.5-17.9,4.9-24.3,11.4
					c-8.4,8.8-13,21-12.7,33.1c0,7.4,2.6,14.8,7.2,20.5c10.1,11.9,29.6,14.6,42.2,5.2c11.6-8.1,18.4-21.9,19.5-35.8
					c0.5-8.3-1.5-16.9-6.7-23.5C1132.8,22.7,1122.8,18.7,1113.3,19.5z M1146.6,79.1c0.8,1.9,0.8,4.4,2.3,5.9c4.9,0.2,9.8,0,14.7,0
					c-3.4-4.1-7.1-8-10.7-12C1150.9,75.1,1148.8,77.1,1146.6,79.1z"/>
			</g>
			<path class="st4" d="M879.8,112.7c7.9,8.1,18.6,13.2,29.9,14c-6.7,9.4-14.8,17.9-23.8,25.2c-1.9-4.6-2.4-9.7-3.4-14.6
				C881.2,129.2,879.7,121,879.8,112.7z"/>
		</g>
		<g class="st1">
			<path class="st5" d="M1139.5,0h25.9c0.3,4.4-0.9,9.1-4.1,12.3c-4,4-9.8,5.6-15.3,6.4c-6.3,0.8-13,0.7-19-1.7
				c-2.4-0.8-4.9-3.5-3.1-6.1C1127.6,5.5,1134.5,3.9,1139.5,0z"/>
			<path class="st5" d="M1113.3,19.5c9.5-0.8,19.5,3.2,25.3,11c5.2,6.6,7.1,15.3,6.7,23.5c-1.1,13.9-7.9,27.7-19.5,35.8
				c-12.7,9.4-32.1,6.7-42.2-5.2c-4.6-5.8-7.2-13.1-7.2-20.5c-0.4-12.1,4.3-24.3,12.7-33.1C1095.3,24.3,1104.1,19.9,1113.3,19.5z"/>
		</g>
		<g class="st1">
			<path class="st6" d="M902.1,0H959c-1.4,7.1-3.7,14.1-8.2,19.8c-5.3,7.1-13.6,12.7-22.8,12.7c-9,0-18.4-4.7-22.8-12.8
				C901.7,13.8,901.4,6.7,902.1,0z"/>
			<path class="st6" d="M1037.8,0h2.3c8.8,33.1,2.3,69.7-16.8,98.1c-1.3,1.9-2.7,3.6-4.1,5.3c2.5-4.6,5.8-8.7,8.2-13.3
				c7.3-13.4,12.4-28.3,13.9-43.5C1043.7,31.1,1042.1,15,1037.8,0z"/>
			<path class="st6" d="M1015.3,108.1c-0.1-2.2,1.2-4.6,3.7-4.5C1018.3,105.6,1017,107.1,1015.3,108.1z"/>
			<path class="st6" d="M1088.3,423.8c5.8,11.1,12.6,22.1,21.9,30.7c6.1,7.7,14.3,13.1,22,18.9c-19-10.7-33.5-28.1-44.1-46.9
				C1088.1,425.8,1088.2,424.5,1088.3,423.8z"/>
			<path class="st6" d="M1192.7,470c-0.1-1.9,1.4-3.3,3.3-3.3C1195.5,468.3,1194.3,469.5,1192.7,470z"/>
		</g>
		<g class="st1">
			<path class="st7" d="M1032.9,0h4.8c4.4,15,6,31.1,3.5,46.6c-0.4-1.8-0.8-3.7-0.8-5.6C1040.8,27,1038.4,12.9,1032.9,0z"/>
		</g>
		<g class="st1">
			<g>
				<path class="st8" d="M708.7,0h2.6c14.5,11.5,29.5,22.3,44.9,32.5c-18.6,11.2-37.3,22.1-56.8,31.5C701.4,42.6,704.7,21.2,708.7,0
					z M712.2,16.8c-3.8,12.7-7.2,25.7-8.2,38.9c10.5-3.4,20.5-8.1,29.8-14c0.3-0.4,1-1.1,1.4-1.4c-8.2-3.7-15.3-9.9-19.7-17.8
					C714.4,20.6,713.7,18.5,712.2,16.8z"/>
			</g>
			<g>
				<path class="st8" d="M1008.2,0h24.7c5.5,12.9,7.9,27,7.6,41c0,1.9,0.4,3.8,0.8,5.6c-1.6,15.3-6.6,30.1-13.9,43.5
					c-2.4,4.7-5.8,8.7-8.2,13.3l-0.1,0.2c-2.5-0.1-3.8,2.3-3.7,4.5c-5.5,6.7-12.5,11.9-19.8,16.4c8,1.3,16.6,4.6,20.9,11.9
					c-1.5-0.3-2.9-0.7-4.3-1c-5.7-6.7-15-8.2-23.4-8.8c0.5,1.2,1.1,2.3,1.6,3.4c-12.8-3.5-25.7-6.7-38.2-11.2
					c-1.3-0.8-2.5-1.7-3.8-2.5c-7.3-5.3-14.7-10.6-20.5-17.6c-0.8-1.7-1.6-3.5-2.6-5.1c-9.5-14.5-17.6-30-23.7-46.3
					c8,1,15.2,5.1,22.8,7.2c11.2,3.3,23.2,4.5,34.8,2.7c16.1-2.3,31.2-11.4,40.3-25C1006,23,1008.7,11.4,1008.2,0z M928.4,67.4
					c-3.8,0.2-2.6,4.9-2,7.3c2.7,8.9,5.9,18.3,13,24.8c3.8,3.6,9.6,5.5,14.7,3.6c2.9-1.1,4.2-4.3,4.2-7.2c0-5-2-10-5.5-13.7
					c-4.4-4.7-9.6-8.6-15.1-11.9C934.8,68.8,931.7,67.3,928.4,67.4z"/>
			</g>
			<g>
				<path class="st8" d="M1057.1,149.2c19.4,3.4,38.9,6.3,58.5,8.3c-0.8,1.3-1.7,2.6-2.5,3.9c-1.4,2.2-2.8,4.5-4.2,6.7
					c-4.1,6.5-8.3,13-12.6,19.4c-1.9,2.9-3.8,5.8-5.8,8.6c-3.5,5.3-7.3,10.5-10.8,15.9c-4.1-10.2-8-20.5-11.8-30.9
					c-1.8-4.9-3.5-9.8-5.2-14.7c-0.6-1.6-1.1-3.3-1.7-4.9C1059.7,157.5,1058.4,153.3,1057.1,149.2z M1069.8,163.6
					c3,12.9,7.9,25.4,13.6,37.3c7.9-8.6,13.8-19,18.7-29.5c-3.7,0.2-7.4,0.4-11.1,0.2C1083.2,171.1,1076.3,167.5,1069.8,163.6z"/>
			</g>
			<path class="st8" d="M780,212.3c8.9-0.1,18.4,2.5,24.9,8.8c6.6,6.7,7.5,17.1,5.2,25.9c-4.3-1.1-8.7-2-12.8-3.7
				c1.9-3.8,3-8.2,1.9-12.4c-1.8-7.3-9.1-12.5-16.5-12.5C781.7,216.3,780.9,214.3,780,212.3z"/>
			<path class="st8" d="M760.2,231.9c1.5-8.1,7.1-15.5,14.9-18.5c1.1,1.8,2,3.6,2.8,5.5c-9.8,4.8-12.1,17.6-9.3,27.3
				c-1.2,1.1-2.3,2.1-3.5,3.1C760.3,245.1,758.8,238,760.2,231.9z"/>
			<g>
				<path class="st8" d="M1171.1,312.1c11.2,3.3,21,10.2,28.9,18.7v131.9c-1.3,1.4-2.6,2.7-4,4c-1.9,0-3.3,1.4-3.3,3.3
					c-5.1,5.2-11.2,9.2-17.8,12.2c7.3,1,14.5,5.2,17.6,12.2c4,8,1.8,17.5-2.4,24.9c-0.7,1.1-1.3,2.3-1.9,3.4
					c-6,8.4-13.1,16.2-17,25.9c-0.7,0-2.2,0-2.9,0c3.4-9.1,9.6-16.6,15.3-24.3c0.8-1.2,1.6-2.3,2.4-3.5c3.5-5.2,6.3-11.3,6-17.7
					c-0.1-6.3-3.8-12.5-9.3-15.5c-3.1-1.8-6.6-2.3-10.1-2.7c2.5,3.9,5.3,7.6,8,11.3c-2.8-0.7-5.6-1.6-8.4-1.2
					c-3.2,0.5-5.7,2.7-8.3,4.4l0-1.2c1.2-4.6,2.7-9.2,3.8-13.9c-4.4,0-8.9-0.1-13.2-1.3c-2.8-1.3-5.7-2.2-8.7-2.7
					c-1.2-0.4-2.4-0.9-3.6-1.3c-1.3-0.6-2.6-1.3-3.9-1.9c-0.3-2.5-3.1-3.5-5.3-3c-0.2-0.1-0.6-0.4-0.8-0.5
					c-7.7-5.8-15.9-11.2-22-18.9c-1.6-4.4-4.4-8-6.8-11.9c-5.3-8.7-9.9-17.8-14.3-27c3.1-2.2,5.7-5,7.8-8.2c19.6,8.3,43,10.4,62.6,1
					c17.8-8.3,31.4-26.4,31.6-46.4C1191.5,343.5,1182.5,326.1,1171.1,312.1z M1109.1,424.2c-1.3,4.3,0.6,8.6,1.9,12.7
					c2.7,7.6,6.2,15.4,12.8,20.4c4.1,3.1,10.3,4.4,14.8,1.3c3-2.7,2.8-7.3,1.9-11c-1.6-7.6-8.5-12.4-14.1-17
					C1121.3,427.2,1115.6,422.7,1109.1,424.2z"/>
			</g>
			<path class="st8" d="M1084.6,403.7c1.9,0.4,3.8,0.8,5.6,1.3c-1.2,1.7-2.5,3.3-4,4.8C1085.8,407.7,1085.2,405.7,1084.6,403.7z"/>
		</g>
		<g class="st1">
			<path class="st9" d="M896.5,0h5.7c-0.7,6.7-0.4,13.8,3.1,19.7c4.4,8.1,13.8,12.7,22.8,12.8c9.2,0,17.5-5.5,22.8-12.7
				c4.5-5.7,6.8-12.8,8.2-19.8h49.2c0.5,11.4-2.1,23-8.8,32.4c-9.1,13.5-24.2,22.7-40.3,25c-11.6,1.9-23.6,0.6-34.8-2.7
				c-7.7-2.2-14.8-6.3-22.8-7.2c6.1,16.3,14.2,31.8,23.7,46.3c1,1.6,1.8,3.3,2.6,5.1c-19-18.6-30.9-44.3-33.3-70.8
				C894.1,18.7,893.8,9.1,896.5,0z"/>
			<path class="st9" d="M712.2,16.8c1.5,1.7,2.2,3.8,3.3,5.8c4.4,7.9,11.5,14.1,19.7,17.8c-0.3,0.4-1,1.1-1.4,1.4
				c-9.3,5.8-19.3,10.5-29.8,14C705,42.5,708.4,29.5,712.2,16.8z"/>
			<path class="st9" d="M928.4,67.4c3.3-0.2,6.4,1.4,9.2,2.9c5.5,3.3,10.7,7.3,15.1,11.9c3.5,3.6,5.6,8.6,5.5,13.7
				c0,2.9-1.3,6.1-4.2,7.2c-5.1,2-10.8,0-14.7-3.6c-7.1-6.5-10.3-15.9-13-24.8C925.8,72.3,924.5,67.6,928.4,67.4z"/>
			<path class="st9" d="M684,146.1c5.8,2.9,11.8,5.6,17.5,8.7c-1.9,3.3-3.5,6.6-5.3,10c-5-3.4-10.1-6.7-15.2-10
				C681.9,151.8,682.9,149,684,146.1z"/>
			<path class="st9" d="M1069.8,163.6c6.5,3.9,13.4,7.5,21.1,8c3.7,0.2,7.4,0,11.1-0.2c-4.9,10.5-10.8,20.9-18.7,29.5
				C1077.7,189,1072.8,176.5,1069.8,163.6z"/>
			<g>
				<path class="st9" d="M1117.6,310.5c14.4-6,30.4-8.5,46-6.8c13.6,1.7,26.9,7.5,36.4,17.4v9.7c-7.9-8.5-17.8-15.4-28.9-18.7
					c11.4,14.1,20.4,31.4,19.9,49.9c-0.2,20-13.8,38.1-31.6,46.4c-19.6,9.4-43,7.3-62.6-1c3.9-6,5.9-13,7.1-20
					c4.3,2.1,9.4,1.6,13.9,0.4c10.4-3.3,18.1-12.4,21.7-22.4c2.8-7.4,3.5-15.9,0.6-23.4c-2.7-6.8-8.5-12.4-15.7-14.3
					c-10.8-3.1-22.8,1.3-30,9.7c-8.8,9.9-12.6,25-7,37.4c1.8,4.4,5.7,7.3,9.2,10.2c-1-0.2-2.9-0.7-3.8-0.9c1.7,7,1.3,14.7-2.4,20.9
					c-1.9-0.4-3.8-0.9-5.6-1.3c0.6,2,1.2,4,1.7,6l-0.6,0.6c-1.6-2.8-3.4-5.5-5.6-7.9c-0.6-4.9-1.7-9.7-2.3-14.6
					c-1.8-16.2-0.3-33.2,7.3-47.9C1091.9,326.7,1103.8,316.2,1117.6,310.5z M1150.3,309.4c-7.8,1-15.1,4.1-21.8,8.2
					c-2.2,1.2-4.8,5-1.8,6.7c4.4,2.9,10,3.5,15.2,3.4c6-0.4,12.9-1.8,16.7-7c1.6-2.6,2.8-6.3,0.8-9
					C1157.1,309.1,1153.3,309.2,1150.3,309.4z"/>
			</g>
			<path class="st9" d="M1109.1,424.2c6.5-1.5,12.2,3,17.3,6.5c5.7,4.6,12.5,9.4,14.1,17c1,3.6,1.1,8.2-1.9,11
				c-4.5,3.1-10.7,1.8-14.8-1.3c-6.6-5-10.1-12.8-12.8-20.4C1109.8,432.8,1107.8,428.5,1109.1,424.2z"/>
		</g>
		<g class="st1">
			<path class="st10" d="M893.5,0h2.9c-2.7,9.1-2.3,18.7-2,28c2.4,26.5,14.2,52.2,33.3,70.8c5.8,6.9,13.2,12.2,20.5,17.6
				c-10.3-5.8-19.1-14-26.8-22.8c-10.9-12.7-19.6-27.5-24.4-43.6c-1,1-2,1.9-3.1,2.8c1.2-1.4,3.5-3,2.5-5.2
				C892,32.2,890.9,15.8,893.5,0z"/>
		</g>
		<g class="st1">
			<g>
				<path class="st11" d="M792.8,0h100.7c-2.7,15.8-1.6,32.2,2.9,47.7c1,2.2-1.3,3.7-2.5,5.2c-5.9,5.3-12.7,9.9-20.4,12.2
					c3.1,4.2,6,8.4,9.2,12.5c-2.6-0.4-5.1-1.2-7.7-1.1c-3.8,0.2-6.7,2.8-9.5,5.2c1.4-5.3,2.9-10.6,4.4-15.9
					c-14.7,0.7-28.6-5.8-40.6-13.7c0.5-2.1-2-3.4-3.8-2.7c-2.7-2.2-5.5-4.2-8-6.7c-1.3-3.5-4.1-6.1-6.1-9.2
					C804.5,22.8,798,11.7,792.8,0z M811.2,6.2c-0.3,3.4,0.3,6.9,1.5,10.1c2.5,7.2,5.3,14.8,10.9,20.2c3.8,4.2,10,6.8,15.5,4.7
					c3-1,4.5-4.3,4.4-7.3c0-5.6-2.6-11-6.7-14.7c-5.5-5.3-11.6-10.3-18.9-13C815.7,5.2,813.3,5.2,811.2,6.2z M857.1,46.7
					c2.9,1,5.8,2,8.7,2.5c0.7-2.9,1.4-5.8,2-8.8c-2.4-1.9-4.8-4-7.1-6C859.1,38.4,858.3,42.6,857.1,46.7z"/>
			</g>
			<g>
				<path class="st11" d="M963.4,127.1c18.9,5.6,38,10.6,57.3,14.8c-0.6,0.8-1.2,1.6-1.8,2.3c-0.8,1-1.6,2-2.4,3.1
					c-3.3,3.9-6.4,8-9.6,12c-1.4,1.7-2.8,3.4-4.1,5.1c-3.5,3.9-6.8,7.9-10,11.9c-1.1,1.3-2.3,2.6-3.5,4c-3.4,3.9-6.6,8-10.2,11.7
					C973.3,170.6,968,148.9,963.4,127.1z M973.9,147c2.3,11.5,4.9,23.1,9.2,34c8.5-7.9,15.5-17.3,21.4-27.3
					c-11.3,0.3-22.5-3.7-30.9-11.2C973.4,144,973.6,145.5,973.9,147z"/>
			</g>
			<path class="st11" d="M1158.8,283.8c8.1,3,14.8,8.5,22.6,12.1c5.9,3,12.3,4.8,18.7,6.6v13.7c-10.4-9.6-24-15.6-38-16.8
				C1160.9,294.1,1159.5,289,1158.8,283.8z"/>
		</g>
		<g class="st1">
			<path class="st12" d="M788.4,0h4.5c5.2,11.7,11.7,22.8,18.7,33.5c2,3.1,4.8,5.7,6.1,9.2c-2.6-2.3-5.1-4.6-7.4-7.3
				c-1.2-3.1-3.7-5.3-5.7-8C798.1,19,792.3,9.9,788.4,0z"/>
		</g>
		<g class="st1">
			<path class="st13" d="M786.6,0h1.8c3.9,9.9,9.8,19,16.2,27.5c1.9,2.6,4.5,4.8,5.7,8C800.3,25.2,792.5,13,786.6,0z"/>
			<path class="st13" d="M825.6,49.3c1.8-0.7,4.2,0.5,3.8,2.7C828,51.3,826.7,50.4,825.6,49.3z"/>
			<g>
				<path class="st13" d="M1183.8,217.4c5-2.6,10.6-3.8,16.2-4.3V273c-9.6,3.1-20.4,0.3-27.4-6.9c1.7-1.1,3.4-2.3,5.1-3.4
					c-2.9-0.5-5.8-0.8-8.6-1.6c-2.3-3.2-3-7.2-3.3-11.1c-0.4-9.8,4-19.4,10.7-26.5c1.4-1.5,3-2.8,4.9-3.5c0.3-0.1,0.9-0.3,1.2-0.4
					C1183,218.9,1183.4,218.2,1183.8,217.4z M1179.5,243.8c0.7,2.1,1.5,4.2,2.3,6.4c5.4-0.1,10.7-0.1,16.1,0
					c-3.7-4.4-7.6-8.7-11.5-12.8C1184.1,239.5,1181.8,241.6,1179.5,243.8z"/>
			</g>
		</g>
		<g class="st1">
			<path class="st14" d="M711.3,0h7.1c60.6,47.2,129.5,82.9,201.8,108.6c10.6,3.6,21.1,7.6,31.9,10.4c12.5,4.4,25.4,7.6,38.2,11.2
				c7.2,1.9,14.5,3.7,21.8,5.4c1.4,0.3,2.8,0.7,4.3,1c24.1,5.6,48.4,10,72.8,13.4c0.5,0.1,1.4,0.2,1.8,0.3c1.7,0.2,3.5,0.4,5.2,0.6
				c32.1,4.5,64.6,6.6,97,7.5c0,1.1,0,3.1,0,4.2c-13.6-0.2-27.2-0.8-40.8-1.7c-8.1-0.5-16.1-1.3-24.2-1.8c-4.2-0.5-8.4-0.9-12.6-1.4
				c-19.6-2.1-39.1-4.9-58.5-8.3c-12.2-2.2-24.3-4.6-36.4-7.3c-19.3-4.3-38.3-9.2-57.3-14.8c-11.9-3.5-23.7-7.3-35.5-11.3
				c-18.5-6.3-36.9-13.3-54.9-21c-11.4-4.8-22.7-10-33.8-15.3c-17.6-8.5-34.9-17.7-51.8-27.6c-10.6-6.2-21-12.6-31.2-19.4
				C740.7,22.3,725.8,11.5,711.3,0z"/>
		</g>
		<g class="st1">
			<path class="st15" d="M1101.7,0h10.8c-11.7,5.8-22.2,14.1-29.7,24.8c-11.1,15.3-15.5,34.5-15.2,53.2c0.7,25.6,9.1,50.9,23.3,72.2
				c-0.4-0.1-1.4-0.2-1.8-0.3c-14.7-21.4-23.1-47-24.3-72.8c-0.6-17.7,2.8-35.9,11.9-51.3C1082.9,15.3,1091.8,6.8,1101.7,0z"/>
			<path class="st15" d="M1200,555"/>
			<path class="st15" d="M1142.8,552.2"/>
		</g>
		<g class="st1">
			<path class="st16" d="M811.2,6.2c2.2-0.9,4.6-0.9,6.8,0c7.3,2.7,13.3,7.8,18.9,13c4.1,3.7,6.7,9.2,6.7,14.7c0,3-1.4,6.3-4.4,7.3
				c-5.5,2.1-11.8-0.5-15.5-4.7c-5.6-5.4-8.4-13-10.9-20.2C811.5,13,810.9,9.6,811.2,6.2z"/>
			<path class="st16" d="M669.7,19.3c4.8-3.8,9.3-7.9,14-11.8c2.7,1.9,5.7,3.4,8.3,5.4l0,0.6c-5.4,3.6-10.8,7.1-16.1,10.8
				C673.7,22.7,671.6,21.1,669.7,19.3z"/>
			<path class="st16" d="M973.9,147c-0.3-1.5-0.6-3-0.3-4.5c8.4,7.5,19.7,11.5,30.9,11.2c-5.8,10-12.8,19.5-21.4,27.3
				C978.8,170.1,976.2,158.5,973.9,147z"/>
			<path class="st16" d="M1191,203.8c2.9-1.4,5.9-2.5,9-3.6v12.9c-5.6,0.5-11.1,1.8-16.2,4.3C1186.2,212.9,1188.6,208.4,1191,203.8z
				"/>
			<path class="st16" d="M1157.8,248.8c3.4-13.4,9.9-26.3,20.3-35.6c1.2,2.2,2.3,4.5,3.4,6.7c-1.9,0.8-3.6,2-4.9,3.5
				c-6.7,7.1-11.1,16.7-10.7,26.5c0.3,3.8,1,7.9,3.3,11.1c2.8,0.8,5.8,1.1,8.6,1.6c-1.7,1.1-3.4,2.3-5.1,3.4c7,7.2,17.8,10,27.4,6.9
				v29.4c-6.4-1.8-12.7-3.6-18.7-6.6c-7.8-3.6-14.5-9.1-22.6-12.1c0.7,5.3,2.2,10.4,3.2,15.5c-1.4-0.1-2.8-0.2-4.2-0.3
				C1153.8,282.6,1153.8,265.3,1157.8,248.8z"/>
			<path class="st16" d="M1013.4,376c5.2-3,10.3-6.1,15.5-9.1c2.2,4.4,4.6,8.6,6.7,13.1c-6.3,1-12.5,2.5-18.8,3.6
				C1014.7,381.9,1014.5,378.5,1013.4,376z"/>
			<path class="st16" d="M892.5,386c2.9-3.6,5.6-7.5,8.5-11.1c2.8,0.5,5.6,1.1,8.4,1.7c-1.3,6.3-2.5,12.6-3.5,19
				C901.2,392.6,896.9,389.2,892.5,386z"/>
		</g>
		<g class="st1">
			<path class="st17" d="M793.3,72.9c0-1.1,0.5-2.1,1.1-2.9c5.4,10,15.2,16.9,25.9,20.1c-8.6,7.9-18.4,14.6-28.9,19.8
				C790.9,97.6,791.6,85.2,793.3,72.9z"/>
			<g>
				<path class="st17" d="M910.9,142.9c7.9-1.2,16.1-0.6,23.5,2.6c10.6,4.4,18.5,13.6,23.3,23.9c5.5,12.1,7.9,25.8,6,39
					c0.4-14.4-2.5-29.2-10.8-41.2c-6.5-9.7-16.3-17.6-27.9-20c5.2,6,10.5,12.1,13.2,19.7c3.4,8.5,3.5,18.5-0.7,26.8
					c-4.4,9.3-13,16.1-22.8,19.1c-9.5,3-19.8,2.5-29.3-0.2c-3-0.9-6.1-1.6-9.3-1.8c4.3,8.4,9.4,16.5,15.2,24c1.6,2.3,3.5,4.3,5.7,6
					c0,0.6,0.1,1.8,0.2,2.4c-3.7-2.8-7-6-10.1-9.5c-0.8-2.7-2.7-4.7-5-6.2l0-0.1c-1.5-4.4-4.4-8.1-6.2-12.3
					c-4.4-9.7-6.9-20.5-6.3-31.2c0.6-9.6,4.2-19.3,11.1-26.2c0.1,0.8,0.4,2.5,0.5,3.3c5.7-4.7,10.9-10,16.4-15
					C902,145.3,906.3,143.6,910.9,142.9z M909.3,147.3c-4.8,1.7-9.7,4.1-13,8.1c-0.4,1.8,1.5,2.8,3,3.1c5.3,1.1,11.2,0.5,15.7-2.6
					c2.3-1.7,3.8-4.9,2.8-7.7C916,145.5,912,146.6,909.3,147.3z M888.4,160.5c-11.9,3.5-18,18.4-13.5,29.6c2.3,6,8.8,9.7,15.1,9.6
					c6.9,0.3,12.9-4.9,16-10.7c3.7-6.9,4.6-16.2-0.1-22.9C902.1,160.5,894.6,158.4,888.4,160.5z"/>
			</g>
			<path class="st17" d="M1167,172.1c7.8,4.8,16.9,7.7,26.1,7.2c2.3-0.2,4.6-0.6,6.9-1c-1.9,5.2-4.6,10.1-6.9,15.2
				c-3.2,5.3-6.1,11-10.4,15.5C1176.4,197.1,1171,184.9,1167,172.1z"/>
			<path class="st17" d="M895.3,221.4c5.4,0.4,10,3.8,14.3,6.9c3.4,2.4,5.8,6.4,5.6,10.7c-0.2,3-3.5,4.6-6.2,4.3
				c-4.9-0.4-8.5-4.4-11.1-8.3c-2.1-3.4-4-7.1-4.9-11C892.1,222.3,893.9,221.4,895.3,221.4z"/>
			<path class="st17" d="M1066.4,237.1c2.8,2,5.9,3.8,7.9,6.7c-0.1,0.8-0.4,2.4-0.5,3.2c-0.6,1.9-1.2,3.8-1.8,5.8
				c-2.2-0.6-4.4-1.1-6.6-1.7c-0.6-0.3-1.8-0.9-2.4-1.2C1064.1,245.6,1065.3,241.4,1066.4,237.1z"/>
			<path class="st17" d="M1179.5,243.8c2.3-2.2,4.6-4.3,6.8-6.5c4,4.2,7.8,8.4,11.5,12.8c-5.4,0-10.7-0.1-16.1,0
				C1181,248,1180.3,245.9,1179.5,243.8z"/>
			<path class="st17" d="M897.1,243.1c0.1,0.1,0.3,0.2,0.4,0.3C897.4,243.4,897.2,243.2,897.1,243.1z"/>
			<path class="st17" d="M918,308.5c6.3,3.1,12.6,6.1,18.8,9.3c-2.1,3.5-3.8,7.2-5.7,10.7c-5.4-3.6-10.8-7.2-16.3-10.7
				C915.9,314.7,917,311.6,918,308.5z"/>
			<path class="st17" d="M1092.7,384.1c1,0.2,2.9,0.7,3.8,0.9c2.5,0.7,4.9,1.4,7.3,2.4c-1.2,7-3.2,14-7.1,20c-2.1,3.2-4.7,6-7.8,8.2
				l-1.3,0.9c-1.7,1-3.4,1.8-5.2,2.6c-4.8,1.6-10.2,2.2-15.1,0.3c-8-3-13.6-10.1-17.3-17.5c-1.7-2.5,0-5.5,0.7-8l0.5,0
				c1,2.3,2,4.5,3.4,6.5c3.7,5.2,8.1,10.3,14,13c3.5,1.6,7.6,1.7,11.2,0.5c2-1,4-2.2,5.9-3.4l0.6-0.6c1.5-1.5,2.8-3.1,4-4.8
				C1094,398.7,1094.4,391,1092.7,384.1z"/>
			<path class="st17" d="M1038.3,440.1c6.1,0.1,12.5,1.3,17.2,5.5c3.5,3,5.2,7.6,5.8,12.1c0,1.7,0,3.4-0.1,5.1
				c-0.4,4.6-1.7,9.1-3.6,13.3c-0.7,1.7-1.5,3.3-2.3,5c-4.3,7.6-10.6,14.8-19.1,17.5c-10,3.3-21.7,0.9-29.3-6.5
				c-6-5.5-8.9-13.7-8.6-21.7c2.5-0.1,5-0.3,7.5-0.5c0.5,6.2,2.6,12.6,7.3,17c5.9,5.1,14.4,7,21.9,5.2c8.8-2.4,14.7-10.3,18.2-18.3
				c0.6-1.7,1.2-3.5,1.7-5.3c0.4-1.9,0.7-3.7,0.9-5.6c0.1-2,0.1-3.9,0-5.9c-0.6-7-7.5-12-14.2-12.2c-1.8,0.1-3.5,0.3-5.3,0.5
				c0.1-0.6,0.3-1.9,0.4-2.5C1037.3,441.9,1037.8,441,1038.3,440.1z"/>
		</g>
		<g class="st1">
			<path class="st18" d="M857.1,46.7c1.1-4.1,1.9-8.3,3.6-12.2c2.4,2,4.7,4,7.1,6c-0.5,3-1.3,5.9-2,8.8
				C862.9,48.6,860,47.6,857.1,46.7z"/>
		</g>
		<g class="st1">
			<g>
				<path class="st19" d="M787.4,51.9c16.9,9.9,34.2,19.1,51.8,27.6c-16.8,13.7-34.2,26.7-51.9,39.3
					C786.4,96.5,786.4,74.2,787.4,51.9z M793.3,72.9c-1.7,12.3-2.3,24.7-1.8,37c10.5-5.2,20.3-11.9,28.9-19.8
					c-10.7-3.2-20.6-10.1-26-20.1C793.7,70.9,793.3,71.9,793.3,72.9z"/>
			</g>
			<g>
				<path class="st19" d="M925,147.1c11.6,2.4,21.4,10.3,27.9,20c8.3,12,11.2,26.8,10.8,41.2c-0.5,5.1-2.2,10-2.6,15.1
					c-2.7,8.6-7.3,16.6-13.3,23.4c-3.2,3.6-7.1,6.5-11.6,8.4c-1.3-0.5-2.6-1-3.9-1.5c0.5,0.8,1,1.5,1.6,2.3
					c-13.2,1.4-26.2-4.5-36.4-12.5c-0.1-0.1-0.3-0.2-0.4-0.3c0-0.6-0.2-1.8-0.2-2.4c-2.2-1.7-4.1-3.7-5.7-6
					c-5.8-7.5-10.8-15.6-15.2-24c3.2,0.2,6.2,0.9,9.3,1.8c9.5,2.7,19.8,3.2,29.3,0.2c9.8-3,18.4-9.9,22.8-19.1
					c4.2-8.3,4.1-18.3,0.7-26.8C935.5,159.2,930.2,153.1,925,147.1z M895.3,221.4c-1.4-0.1-3.2,0.9-2.4,2.6c0.9,3.9,2.8,7.6,4.9,11
					c2.6,3.9,6.2,7.9,11.1,8.3c2.7,0.3,6-1.3,6.2-4.3c0.2-4.2-2.2-8.3-5.6-10.7C905.3,225.3,900.7,221.9,895.3,221.4z"/>
			</g>
			<path class="st19" d="M1152.4,160.8c13.6,0.9,27.2,1.6,40.8,1.7c0,5.6,0,11.2-0.1,16.8c-9.3,0.6-18.3-2.4-26.1-7.2
				c4,12.8,9.4,25,15.6,36.8c4.4-4.5,7.3-10.1,10.4-15.5c0.1,1.6,0.2,3.2,0.3,4.8c-0.4,1.9-1.3,3.8-2.3,5.5c-2.4,4.5-4.8,9-7.2,13.6
				c-0.4,0.7-0.8,1.4-1.2,2.2c-0.3,0.1-0.9,0.3-1.2,0.4c-1.1-2.3-2.2-4.5-3.4-6.7c-0.6-1.2-1.3-2.4-1.9-3.6c-3.9-7-7.2-14.3-11-21.3
				c-1.6-3.9-3.4-7.7-5.3-11.5C1157.3,171.5,1154.8,166.2,1152.4,160.8z"/>
		</g>
		<g class="st1">
			<path class="st20" d="M737.8,67.4c3.1-0.1,6.3-0.1,9.4,0c-0.1,7.9,0.1,15.7-0.1,23.6c-3.1-1.6-6.2-3.4-9.3-5
				C737.8,79.8,737.8,73.6,737.8,67.4z"/>
			<path class="st20" d="M875.3,237.6c2.2-2.3,4.5-4.4,6.8-6.6c4,4.1,7.8,8.4,11.5,12.7c-5.4,0-10.8,0-16.2,0
				C876.7,241.7,876,239.6,875.3,237.6z"/>
		</g>
		<g class="st1">
			<path class="st21" d="M1146.6,79.1c2.2-2,4.3-4,6.4-6c3.5,4,7.2,7.9,10.7,12c-4.9,0-9.8,0.2-14.7,0
				C1147.4,83.6,1147.4,81,1146.6,79.1z"/>
		</g>
		<g class="st1">
			<path class="st22" d="M865.6,81.6c2.7-2.3,5.7-5,9.5-5.2c2.6,0,5.2,0.7,7.7,1.1c0.3,0.5,0.7,0.9,1.1,1.4
				c-5.6,3.1-12.2,5.5-18.5,3.5L865.6,81.6z"/>
		</g>
		<g class="st1">
			<path class="st23" d="M1028.7,103.6c4.5-3.5,8.6-7.4,13.1-10.9c2.7,1.9,5.4,3.5,8.2,5.3c-5.3,3.4-10.4,7-15.7,10.4
				C1032.3,106.8,1030.3,105.4,1028.7,103.6z"/>
			<path class="st23" d="M809.9,175c4.4-3.7,8.7-7.5,13.1-11.1c2.8,1.7,5.5,3.5,8.2,5.2c-5.1,3.6-10.4,6.8-15.4,10.5
				C813.8,178.1,811.8,176.6,809.9,175z"/>
			<path class="st23" d="M1038.9,1153c-1-2.4-1.9-4.7-2.8-7.1"/>
		</g>
		<g class="st1">
			<path class="st24" d="M817.5,120.6c1.8-1.7,3.7-3.3,5.6-4.9c5.6,0.7,11.3,1.7,16.9,2.2c-1.7,2.1-4.3,3.4-6.8,4.3
				C827.9,121.6,822.7,121,817.5,120.6z"/>
		</g>
		<g class="st1">
			<path class="st25" d="M901.6,142.1c11.6-3.2,24.5-3.9,35.5,1.9c14.1,7.1,22.6,21.9,26.1,36.9c3.6,14.1,2.3,28.9-2.1,42.7
				c0.4-5.1,2.1-10,2.6-15.1c2-13.2-0.5-26.9-6-39c-4.7-10.3-12.7-19.5-23.3-23.9c-7.4-3.2-15.6-3.8-23.5-2.6
				c-4.6,0.7-9,2.4-13.6,3.1C898.8,144.7,900.2,143.4,901.6,142.1z"/>
			<path class="st25" d="M909.3,147.3c2.7-0.7,6.6-1.8,8.5,1c1,2.8-0.5,6-2.8,7.7c-4.5,3.1-10.4,3.7-15.7,2.6
				c-1.5-0.3-3.4-1.4-3-3.1C899.6,151.4,904.5,149,909.3,147.3z"/>
			<path class="st25" d="M868,192c-1.6-13.5,2.1-28.1,12-37.7c0.1,0.9,0.4,2.5,0.5,3.4c-6.8,7-10.4,16.6-11.1,26.2
				c-0.6,10.7,1.9,21.4,6.3,31.2c1.8,4.2,4.8,7.9,6.2,12.3C874.1,217.3,869.5,204.7,868,192z"/>
			<path class="st25" d="M888.4,160.5c6.2-2,13.8,0.1,17.5,5.6c4.7,6.7,3.8,16,0.1,22.9c-3.1,5.9-9,11-16,10.7
				c-6.3,0.1-12.8-3.6-15.1-9.6C870.3,178.8,876.5,164,888.4,160.5z"/>
			<path class="st25" d="M882,227.4c2.3,1.5,4.2,3.5,5,6.2C885.2,231.7,883.5,229.7,882,227.4z"/>
		</g>
		<g class="st1">
			<path class="st26" d="M1016.5,147.3c0.8-1,1.6-2,2.4-3.1c0.8,4.3-0.5,8.9-3.5,12.1c-3.5,3.6-8.2,5.8-12.6,8.1
				c1.3-1.7,2.7-3.5,4.1-5.1C1011.5,157,1016.6,153,1016.5,147.3z"/>
		</g>
		<g class="st1">
			<path class="st27" d="M1128.2,158.9c8.1,0.6,16.1,1.4,24.2,1.8c2.4,5.4,4.9,10.8,7.5,16.1C1151,168.3,1139.7,162.9,1128.2,158.9z
				"/>
		</g>
		<g class="st1">
			<path class="st28" d="M1115.6,157.5c4.2,0.5,8.4,0.9,12.6,1.4c11.6,3.9,22.8,9.4,31.7,17.9c1.9,3.8,3.7,7.6,5.3,11.5
				c-7.3-8-15.8-15.3-25.8-19.7c-8.3-3.8-17.2-6.3-26.2-7.3C1113.9,160.1,1114.7,158.8,1115.6,157.5z"/>
		</g>
		<g class="st1">
			<path class="st29" d="M1108.9,168.1c1.4-2.2,2.8-4.5,4.2-6.7c9,1,17.9,3.4,26.2,7.3c10,4.4,18.5,11.7,25.8,19.7
				c3.8,7,7.1,14.3,11,21.3c-1.5,1.5-2.9,3.1-4.3,4.7c-3.2-5.2-5.8-10.8-9.5-15.7c-7-9.3-15.8-17.5-26.4-22.6
				c6,10.9,11,22.6,13,34.9c2.5,14.5,1.2,30-5.9,43.1c-4.9,9.3-12.4,17.1-21.2,22.8c-3.5,2.3-7.2,4.6-11.4,5.3c-2,0.3-3.6,1.6-5,2.9
				c-5.2,1-10.2,2.5-15.4,2.9c-17.3,1.7-34.9-2.7-50.3-10.6c-8-4-15.1-9.9-23.8-12.7c3,17.1,8.1,33.8,14.3,50
				c1.9,5.3,4.8,10.2,5.9,15.8c-6.3-8.1-10.7-17.6-14.7-27c-8.2-20-11.4-42-9.4-63.5c1.5-15.1,5.8-30.1,13.8-43.2
				c8.5-13.8,21.7-24.8,37-30.4c1.7,4.9,3.4,9.8,5.2,14.7c-9.3-0.3-18.8,1.9-26.1,7.8c-12.3,9.4-19.8,25.5-16.8,41
				c3.4,17.1,24.3,28.2,40.3,21.1c2.2,0.6,4.4,1.1,6.6,1.7c0.6-1.9,1.2-3.8,1.8-5.8c9.1-6.2,15.8-15.7,18.9-26.2
				c2.3-8.1,2.1-17.2-2.2-24.6c1.9-2.9,3.8-5.8,5.8-8.6c6.9,1.2,14.7,1.5,20.9-2.4c3.7-2.5,6.9-7.3,5.4-11.9
				C1119.9,168.6,1113.6,169,1108.9,168.1z"/>
			<path class="st29" d="M1051.2,393.8c9.4-0.7,19.3,1.2,26.9,7c0.7,0.5,1.3,1.1,1.9,1.7c2.2,2.3,4,5.1,5.6,7.9
				c-1.9,1.3-3.8,2.4-5.9,3.4c-5.6-8.4-15.8-11.6-25.2-13.5C1053.2,398.3,1052.2,396.1,1051.2,393.8z"/>
			<path class="st29" d="M1034.4,446c0.8-1.1,1.6-2.1,2.3-3.2c-0.1,0.6-0.3,1.9-0.4,2.5c1.7-0.2,3.5-0.4,5.3-0.5
				c3.7,5.1,8.5,9.4,14.2,12.2c0.1,2,0.1,3.9,0,5.9c-1.9-0.5-3.8-1-5.7-1.7c-4.6-2.2-8.9-5.3-11.9-9.5
				C1036.8,449.9,1035.6,447.9,1034.4,446z"/>
		</g>
		<g class="st1">
			<path class="st30" d="M1019.3,201.4c8.2-18,23.4-32.5,41.9-39.8c0.6,1.6,1.1,3.3,1.7,4.9c-15.3,5.5-28.5,16.5-37,30.4
				c-8,13-12.4,28-13.8,43.2c-2,21.5,1.2,43.5,9.4,63.5c4,9.4,8.4,18.9,14.7,27c3.8,6.4,8.5,12.3,13.7,17.7c2.9,3.2,6.4,5.9,9.1,9.4
				c-7.5-6.3-14.4-13.4-20.3-21.3c-17.9-23.9-29-53.2-29.3-83.2c-0.4-16.7,2.1-33.7,8.8-49.1
				C1018.5,203.1,1018.9,202.2,1019.3,201.4z"/>
		</g>
		<g class="st1">
			<path class="st31" d="M1108.9,168.1c4.7,0.8,11,0.4,13.8,5.2c1.5,4.6-1.7,9.4-5.4,11.9c-6.2,3.9-14,3.6-20.9,2.4
				C1100.6,181.1,1104.8,174.6,1108.9,168.1z"/>
			<path class="st31" d="M1041.9,189c7.3-5.9,16.8-8.1,26.1-7.8c3.8,10.4,7.7,20.7,11.8,30.9c3.5-5.3,7.3-10.5,10.8-15.9
				c4.2,7.4,4.4,16.5,2.2,24.6c-3.1,10.6-9.8,20-18.9,26.2c0.1-0.8,0.4-2.4,0.5-3.2c-2-2.9-5.1-4.7-7.9-6.7
				c-1.2,4.2-2.3,8.5-3.3,12.7c0.6,0.3,1.8,0.9,2.4,1.2c-16,7.2-36.9-3.9-40.3-21.1C1022.1,214.6,1029.7,198.4,1041.9,189z"/>
			<path class="st31" d="M1040.3,294.4c2.3-1.7,5.2-0.3,7.4,0.8c6,3.4,10.9,8.6,15.3,13.8c3.8,4.7,8,9.7,8.8,15.9
				c0.7,4.5,0.7,9.9-2.5,13.5c-3.5,3.6-9.3,2.8-13.4,0.7c-7.3-3.9-11.1-11.9-13.5-19.5c-1.8-7.1-3.4-14.4-3.3-21.7
				C1039.4,296.8,1039.2,295.1,1040.3,294.4z"/>
		</g>
		<g class="st1">
			<g>
				<path class="st32" d="M1135.9,176.1c10.6,5.1,19.3,13.3,26.4,22.6c3.8,4.9,6.3,10.4,9.5,15.7c-11.2,12.9-16.8,29.9-18.3,46.7
					c-0.9,12.7-0.3,25.5,2.8,37.9c-14.1-0.3-28.3,2.4-41.2,8c-13.3,5.8-24.8,15.8-31.5,28.7c-5.5,10.1-8,21.5-8.7,32.9
					c-5.6-3.1-11.1-6.6-15.9-11c-2.6-3.5-6.1-6.2-9.1-9.4c-5.2-5.4-9.9-11.2-13.7-17.7c-1.1-5.6-4-10.5-5.9-15.8
					c-6.2-16.2-11.3-32.9-14.3-50c8.6,2.8,15.8,8.6,23.8,12.7c15.4,7.9,32.9,12.3,50.3,10.6c5.2-0.4,10.3-1.9,15.4-2.9
					c-3.2,2.9-6.5,5.7-9.9,8.5c1.9,1.9,4,3.5,6.2,5c5.4-3.8,10.9-7.4,16.4-11c-2.6-1.8-5.1-3.6-7.7-5.4c4.2-0.7,7.8-3.1,11.4-5.3
					c8.8-5.7,16.3-13.5,21.2-22.8c7.1-13.1,8.4-28.6,5.9-43.1C1146.9,198.7,1141.9,187,1135.9,176.1z M1040.3,294.4
					c-1.2,0.8-0.9,2.4-1.1,3.5c-0.1,7.4,1.5,14.6,3.3,21.7c2.4,7.5,6.2,15.6,13.5,19.5c4.1,2,9.9,2.9,13.4-0.7
					c3.3-3.6,3.2-8.9,2.5-13.5c-0.8-6.2-5.1-11.2-8.8-15.9c-4.4-5.3-9.3-10.4-15.3-13.8C1045.5,294.1,1042.6,292.7,1040.3,294.4z"/>
			</g>
		</g>
		<g class="st1">
			<g>
				<path class="st33" d="M989.3,180.4c1.1-1.3,2.3-2.6,3.5-4c-0.8,4.9-1.3,10.6,1.9,14.8c2.5,3.9,7.6,5.7,12.1,4.4
					c-1.2-2.1-2.9-4.1-3-6.7c-0.2-3.6,2.4-7.6,6.3-7.6c3.6,0.3,5.9,4.1,5.6,7.5c0.1,2.9-2,5.1-3.7,7.3c2.4,1.8,4.8,3.6,7.4,5.2
					c-0.4,0.9-0.8,1.7-1.2,2.6c-3-2.1-5.9-4.2-9-6.3c-4.8,1.5-10.6,1.3-14.4-2.4C990.5,191.6,989.3,185.7,989.3,180.4z M1008,185
					c-3.2,2.8-0.9,6.9,1.2,9.5c2.5-1.5,4.4-4.4,3.5-7.5C1012.6,184.9,1009.7,182.9,1008,185z"/>
			</g>
		</g>
		<g class="st1">
			<path class="st34" d="M731.2,193.2c6.8-4.6,15.8-5.4,23.5-2.9c11,3.4,20.1,11.7,25.3,21.9c0.9,2,1.8,4,2.5,6.1
				c2.2,6.6,3,13.9,1.2,20.8c-1.5,5.8-5.9,11-11.7,12.7c-2.4-0.1-4.5-1.8-6.7-2.6c1.2-1,2.3-2.1,3.5-3.1c7-6.9,13-17.3,9.3-27.3
				c-0.8-1.9-1.8-3.7-2.8-5.5c-5-7-12.6-11.7-20.2-15.4c-5.7-2.9-12.8-3.6-18.7-0.7c-7.3,3.6-12.1,10.6-15.4,17.8
				c-1.6-0.9-3.3-1.7-4.9-2.5C719,204.8,724.3,197.9,731.2,193.2z"/>
		</g>
		<g class="st1">
			<path class="st35" d="M1193.3,198.3c2.2-0.9,4.5-1.7,6.7-2.7v4.6c-3,1.1-6.1,2.2-9,3.6C1192,202.1,1192.8,200.3,1193.3,198.3z"/>
		</g>
		<g class="st1">
			<path class="st36" d="M1171.8,214.3c1.4-1.6,2.8-3.1,4.3-4.7c0.6,1.2,1.3,2.4,1.9,3.6c-10.3,9.4-16.8,22.3-20.3,35.6
				c-3.9,16.4-3.9,33.8,0,50.2c-0.4,0-1.1-0.1-1.5-0.1c-3.2-12.3-3.8-25.2-2.8-37.9C1155,244.2,1160.6,227.2,1171.8,214.3z"/>
		</g>
		<g class="st1">
			<path class="st37" d="M996.3,245.8c2.7,1.8,5.2,4,7.6,6.1c-0.8,2.9-1.5,5.9-2.5,8.8c-2.8-0.9-5.6-1.8-8.4-2.7
				C994.1,253.9,995.2,249.9,996.3,245.8z"/>
			<path class="st37" d="M1087.7,416.5l1.3-0.9c4.4,9.2,8.9,18.3,14.3,27c2.4,3.9,5.3,7.6,6.8,11.9c-9.3-8.6-16-19.6-21.9-30.7
				C1088.1,421.4,1087.8,418.9,1087.7,416.5z"/>
		</g>
		<g class="st1">
			<g>
				<path class="st38" d="M932.3,253.7c1.3,0.5,2.6,0.9,3.9,1.5c0.3,0.1,0.9,0.3,1.1,0.4c4.4-1.3,9.1-2,13.7-0.8
					c11.2,2.9,20.1,12.7,22.2,24c2.5,11.6-0.5,23.5-4.8,34.4c-6,15.2-15.2,29.4-17.3,45.9c-1.8,15.1,3,31.2,13.7,42.1
					c0.4-3.9,0.9-7.9,3-11.3c5.1-9.1,19-11.2,26.7-4.4c4,3.5,5.1,9.5,3.2,14.3c-3,7.2-10.9,12.1-18.6,11.5c-3.5-0.2-6.7-1.6-9.8-2.9
					c3.4,10.5,12.7,17.4,22.2,22c12.7,6.2,26.7,10.3,37.4,20c3.2-0.1,6.3,0.2,9.3,1.3c3.1,4.1,7.3,7.3,11.9,9.5
					c1.8,2.3,3.3,4.8,4.8,7.3c-0.5,1.8-1.1,3.5-1.7,5.3c-3.2-9.7-10.9-19.2-21.7-20.3c2.3,3.5,4.4,7.3,4.7,11.6
					c0.5,4.5-2,9.4-6.4,11c-8.2,2.6-17.6-6.4-14.7-14.7c1.3-4.8,5.4-7.9,9.6-9.9c-9.2-7.8-20.9-11.5-31.7-16.5
					c-9.7-4.5-19.5-10.5-24.7-20.2c-1.7-2.9-2-6.4-3.7-9.2c-14.1-12.6-19.7-33.3-15.9-51.6c3-14.8,11-27.8,16.6-41.6
					c4.1-10.2,6.8-21.4,4.8-32.4c-1.8-10-9.5-18.7-19.2-21.8c-3.9-1.1-8.2-1.1-12,0.5c1.4,1.5,2.9,3.1,4.4,4.5
					c-2.2-0.6-4.7-1.5-6.9-0.5c-1.7,0.8-3.1,2.2-4.4,3.5c0.6-3.4,1.2-6.7,1.6-10.1C933.3,255.2,932.8,254.5,932.3,253.7z
					 M977.4,385.6c-5.9,2-9.3,8.4-9.3,14.4c0.1,1.5-0.6,3.8,1.2,4.7c4.4,2.8,10,4.7,15.2,3c6.4-1.9,12.6-8.5,10.7-15.6
					C992.9,385,983.7,383,977.4,385.6z M1017.8,464c-0.1,5.2,5.1,9.8,10.2,9.4c4.1-0.9,6.1-5.6,5.1-9.4c-0.7-3.8-2.9-7.1-5.2-10.1
					C1023,455.1,1018.5,458.9,1017.8,464z"/>
			</g>
		</g>
		<g class="st1">
			<path class="st39" d="M721.1,261.2c1.5-1.7,3.3-3.2,5.1-4.6c5.3,0.6,10.6,1.5,16,2c-1.3,2.1-4,2.7-6,4
				C731.1,262,726.1,261.5,721.1,261.2z"/>
		</g>
		<g class="st1">
			<path class="st40" d="M936.6,262.5c2.2-1,4.7-0.1,6.9,0.5c-2.9,3.1-7.3,4.1-11.4,3.9l0.2-0.8
				C933.5,264.7,934.9,263.4,936.6,262.5z"/>
		</g>
		<g class="st1">
			<path class="st41" d="M1105.5,285.1c1.4-1.3,3-2.6,5-2.9c2.6,1.8,5.1,3.6,7.7,5.4c-5.5,3.7-11,7.2-16.4,11
				c-2.2-1.5-4.3-3.2-6.2-5C1098.9,290.8,1102.3,288,1105.5,285.1z"/>
		</g>
		<g class="st1">
			<path class="st42" d="M834.2,288.1c1.7-0.1,3.4-0.1,5.1-0.2c2,2.7,3.7,5.6,5.5,8.5c-3.5,0-7.1,0-10.6,0
				C834.2,293.6,834.2,290.9,834.2,288.1z"/>
		</g>
		<g class="st1">
			<path class="st43" d="M1115.1,306.9c12.9-5.6,27.1-8.3,41.2-8c0.4,0,1.1,0.1,1.5,0.1c1.4,0.1,2.8,0.2,4.2,0.3
				c14.1,1.3,27.7,7.2,38,16.8v5c-9.6-9.9-22.9-15.7-36.4-17.4c-15.6-1.6-31.5,0.8-46,6.8c-13.8,5.7-25.7,16.1-32.5,29.5
				c-7.6,14.7-9.1,31.7-7.3,47.9c0.6,4.9,1.8,9.7,2.3,14.6c-0.7-0.6-1.3-1.2-1.9-1.7c-2.3-10.6-3.8-21.4-3.3-32.3
				c0.8-11.4,3.3-22.8,8.7-32.9C1090.3,322.7,1101.8,312.7,1115.1,306.9z"/>
		</g>
		<g class="st1">
			<path class="st44" d="M1150.3,309.4c3.1-0.2,6.8-0.3,9.1,2.2c2,2.7,0.8,6.4-0.8,9c-3.8,5.2-10.6,6.5-16.7,7
				c-5.2,0.1-10.8-0.5-15.2-3.4c-3-1.8-0.4-5.5,1.8-6.7C1135.1,313.5,1142.5,310.4,1150.3,309.4z"/>
			<path class="st44" d="M1094.3,337.3c7.2-8.4,19.2-12.7,30-9.7c7.1,1.9,12.9,7.6,15.7,14.3c2.9,7.5,2.2,16-0.6,23.4
				c-3.6,10-11.3,19.1-21.7,22.4c-4.5,1.2-9.6,1.7-13.9-0.4c-2.4-1-4.8-1.7-7.3-2.4c-3.6-2.9-7.4-5.9-9.2-10.2
				C1081.8,362.4,1085.5,347.2,1094.3,337.3z"/>
			<path class="st44" d="M1132.9,473.9c2.2-0.5,4.9,0.5,5.3,3c-0.6-0.2-1.7-0.5-2.2-0.7C1134.9,475.5,1133.9,474.7,1132.9,473.9z"/>
			<path class="st44" d="M1145.7,480.1c3,0.5,5.9,1.4,8.7,2.7C1151.4,482.1,1148.5,481.1,1145.7,480.1z"/>
		</g>
		<g class="st1">
			<path class="st45" d="M1082.5,419.1c1.8-0.8,3.5-1.6,5.2-2.6c0,2.5,0.3,4.9,0.5,7.4c-0.1,0.7-0.2,2-0.2,2.7
				c-1.2,9.2-4,18.4-9.8,25.7c-4.1,5.5-10.3,9.3-17.1,10.5c0.1-1.7,0.1-3.4,0.1-5.1c5.5-0.9,10-4.7,13.1-9.2
				C1080,439.9,1084.3,429.6,1082.5,419.1z"/>
		</g>
		<g class="st1">
			<path class="st46" d="M1192.2,476c1.2-3.9,4.5-6.4,7.8-8.4v2.8c-2.3,1.9-4.8,3.9-5.5,6.9c-2.2,6.6,1.1,13.5,5.5,18.4v3.5
				C1193.4,493.8,1189.4,484.5,1192.2,476z"/>
		</g>
		<g class="st1">
			<path class="st47" d="M1136,476.1c0.6,0.2,1.7,0.5,2.2,0.7c1.3,0.6,2.6,1.3,3.9,1.9c-1.7-0.6-3.6-1.2-4.6,0.7
				c-13.9,18.6-31.5,35.3-39.3,57.7c-4.7,12.7-4.1,27.5,3,39.2c-0.8,0.8-1.5,1.7-2.2,2.6c-7.5-12.2-9-27.6-4.3-41.1
				C1102.3,513.7,1121.3,496,1136,476.1z"/>
		</g>
		<g class="st1">
			<path class="st48" d="M1055.3,481c0.8-1.6,1.6-3.3,2.3-5c1.8,10.4,1.6,21.3-3,31c-1-0.3-2-0.6-3-1
				C1055.4,498.4,1056.4,489.5,1055.3,481z"/>
		</g>
		<g class="st1">
			<path class="st49" d="M1163.7,499.2c2.6-1.7,5.1-3.8,8.3-4.4c2.8-0.4,5.7,0.5,8.4,1.2c0.2,0.3,0.7,0.9,0.9,1.2
				c-5.4,3.4-12.1,5.6-18.5,3.7c0.3-1,0.5-2,0.8-2.9L1163.7,499.2z"/>
		</g>
		<g class="st1">
			<path class="st50" d="M1190.1,519.3c3.3-1.2,6.6-2.5,9.9-3.7v2.9c-3.8,1.7-7.9,3-11.9,4.2
				C1188.8,521.5,1189.4,520.4,1190.1,519.3z"/>
		</g>
		<g class="st1">
			<path class="st51" d="M1153.9,533.9c9.4-6.8,20.9-10,32-13.1c-0.8,1.2-1.6,2.3-2.4,3.5c-8.6,2.1-17.1,5-24.7,9.5
				c-7.1,4.2-12.8,10.7-15.9,18.4c-1,0.3-2,0.5-3,0.8C1142.5,545.4,1147.3,538.5,1153.9,533.9z"/>
		</g>
		<path class="st52" d="M694,538"/>
	</g>
	<g>
		<g id="XMLID_1_">
			<g>
				
					<rect x="176.4" y="176.5" transform="matrix(0.7071 -0.7071 0.7071 0.7071 -248.6012 600.0236)" class="st53" width="847.3" height="847.3"/>
			</g>
			<g>
				
					<rect x="176.4" y="176.5" transform="matrix(0.7071 -0.7071 0.7071 0.7071 -248.6012 600.0236)" class="st54" width="847.3" height="847.3"/>
			</g>
		</g>
		<text transform="matrix(1 0 0 1 506.6031 657.8449)" class="st55 st56 st57">О</text>
		<line class="st58" x1="599.9" y1="518.4" x2="584.2" y2="534.1"/>
		<path class="st59" d="M600.4,531.3"/>
		<g>
			<line class="st58" x1="571" y1="667.2" x2="571" y2="837.6"/>
		</g>
		<path class="st60" d="M605,709.2c5.1-7.3,8.8-15.3,7.4-24.4c-1.8-12.3-11.4-22.9-23.2-26.5c0,0,0,0,0.1,0c-0.1,0-0.2-0.1-0.3-0.1
			c0,0,0,0,0,0c-0.4,0-0.8-0.1-1.2-0.1c-2.2-0.1-4.4-0.2-6.6-0.3c-0.1,0.3-0.2,0.6-0.2,0.9c-0.1,0.5-0.3,0.9-0.4,1.4c0,0,0,0,0,0
			c0.1,0,0.1,0,0.1,0.1c0.1,0.1,0.3,0.1,0.4,0.2c0.2,0.1,0.4,0.1,0.6,0.2c0,0,0,0,0,0c1,0,1.8,0.1,2.7,0.4c0-0.1-0.1-0.1-0.1-0.2
			c16.3,2,29.3,19.9,24.1,36c-5.1,16.2-20.1,25.9-29.1,39.7c-5,7.3-8.4,16.4-6.1,25.3c1,5.2,4.1,9.6,7.6,13.5
			c-1.1,11.1,1,23.5,9.5,31.4l1.1-3.3c-6.5-7-8.1-16.8-7.7-26c5.7,2.6,12.5,2.4,17.4-1.7c0.1,0,0.2-0.1,0.3-0.2
			c0.1-0.1,0.2-0.2,0.3-0.3c1.1-1.8,2-3.9,2.1-6c0,0,0,0,0-0.1c0-0.1,0-0.1,0-0.2c0-0.1,0-0.2,0-0.3l0-0.1
			c-1.5-4.8-6.2-8.6-11.4-7.8c-5.5,0.6-9,5.6-10.9,10.4c-5.3-6.2-7.3-15.2-4.3-22.9C582.1,732.6,596.2,722.2,605,709.2z M593,763.6
			c4.2-0.7,9.1,4.2,6.5,8.2c-3.5,5-10.9,4.7-15.5,1.5C585.2,769.1,588,764,593,763.6z"/>
		<polygon class="st55" points="580.9,649.4 571.8,666.3 580.9,666.3 589.9,666.3 		"/>
		<path class="st61" d="M597.9,632.5"/>
		<path class="st61" d="M600,599.1"/>
		<path class="st61" d="M595.6,670.7"/>
	</g>
	<text transform="matrix(1 0 0 1 99.5338 655.843)" class="st62 st56 st57">ШАР   ДУВЫ</text>
	<g id="Слой_4">
		<path class="st3" d="M1023.3,754.3c2.9,4.9,5.4,10.2,6.8,15.7l-10.6,10.6C1021.2,771.9,1022.8,763.2,1023.3,754.3z"/>
		<g>
			<path class="st3" d="M954.8,825.2c6.9,1,13.8,0.1,20.7-0.6l-63,63c-0.6-3.4-1.5-6.8-2.3-10.1c-6.1-0.3-12.1-0.9-18.2-1.3
				c0.2,2.5,0.5,5.1,0.7,7.7c6.5,1.4,13,2.4,19.4,4.1l-6.6,6.6c-2.4-0.9-4.7-2.1-7.3-2.4c1.5,1.7,3.1,3.3,4.7,4.9l-1.9,1.9
				c-0.9-1-1.8-1.9-2.7-2.9c-0.2,2-0.4,4.1-0.6,6.2L895,905c-3.3-4.9-9.3-5.9-14.8-5.8c5.2-3,10.3-6.3,15.4-9.5
				c-12.9-10.8-19.8-27.1-23.2-43.2c0.3-3.5,0-7-1.8-10c-0.6-3.3-0.8-6.7-0.9-10c2.8-2.6,2.6-6.6,3.3-10.1
				c2.8-17.7,7.8-35,14.1-51.7c4.7,5.5,7.5,12.2,10.8,18.5c4.6,8.5,10.3,16.4,17.6,22.8c0.2,1.4,0.3,2.9,0.5,4.3
				c2.2,0.4,4.3,0.8,6.5,1.3C931.3,819.5,943.1,823.7,954.8,825.2z M893.2,799.9c-2.8-1.2-4.2,2.4-5.5,4.3c-4.4,8.6-8.2,18-8.2,27.8
				c0.1,5.6,2.3,11.8,7.3,14.7c2.8,1.8,6.8,1.9,9.3-0.5c4.7-4.3,7.2-10.8,6.7-17.1c-0.5-7.1-1.3-14.4-4-21.1
				C897.6,804.9,896.3,801.3,893.2,799.9z"/>
		</g>
		<g>
			<path class="st4" d="M1003.5,725c14.3,9.3,27.4,22.3,32.7,39l-6,6c-1.4-5.5-3.8-10.8-6.8-15.7c-0.5,8.9-2.2,17.6-3.8,26.3l-44,44
				c-6.9,0.8-13.8,1.7-20.7,0.6c-11.7-1.5-23.5-5.7-32.3-13.7c4.4,0.8,8.8,1.7,13.1,2.6c-0.6-3.4-1.4-6.8-2-10.2
				c-6.1-0.6-12.3-1.1-18.5-1.4c0.1,1.1,0.3,2.2,0.4,3.3c-7.3-6.4-13-14.3-17.6-22.8c-3.4-6.3-6.1-13.1-10.8-18.5
				c-6.3,16.8-11.3,34-14.1,51.7c-0.6,3.5-0.4,7.5-3.3,10.1c-0.3-5.1-0.4-10.3,0.2-15.4c1.3-2.1,1.7-4.7,0.6-7
				c0.1-1.6,0.3-3.3,0.6-4.9c2.6-3.4,2.6-7.9,3.7-11.8c5-19.1,14.6-37.2,28-51.7c12.2-12.9,28.2-23,46.1-25.1
				C968.3,707.8,987.5,714.6,1003.5,725z M1007.7,736.3c-6.8-4.4-14.6-7.1-22.5-8.4c-2.8-0.7-7.4,0.7-6.1,4.4c2.3,7,8,12.4,14,16.4
				c4.9,3.1,11.5,5.3,17,2.2c2.6-1.4,5.3-4.2,4.3-7.3C1013,740.4,1010.2,738.2,1007.7,736.3z M965.3,723.6
				c-15.7-10.1-37.8-4.2-49.1,9.8c-5.3,6.4-7.9,15.3-5.9,23.5c1.9,7,5.9,13.6,12.1,17.5c6.7,4.5,15.3,5.5,23.1,4.3
				c9.2-1.7,18.2-5.8,24.6-12.8c5.4-5.5,8.9-13.2,8.4-21C978.1,736.1,972.7,728.1,965.3,723.6z"/>
		</g>
		<path class="st4" d="M893.2,799.9c3.2,1.4,4.4,5,5.7,8c2.6,6.7,3.4,14,4,21.1c0.5,6.3-2,12.9-6.7,17.1c-2.5,2.4-6.5,2.3-9.3,0.5
			c-5.1-3-7.2-9.1-7.3-14.7c0-9.8,3.7-19.2,8.2-27.8C889,802.3,890.3,798.7,893.2,799.9z"/>
		<path class="st5" d="M1007.7,736.3c2.5,2,5.3,4.2,6.6,7.3c1.1,3.2-1.7,5.9-4.3,7.3c-5.4,3.1-12.1,0.8-17-2.2
			c-6-4-11.7-9.4-14-16.4c-1.3-3.7,3.3-5.1,6.1-4.4C993,729.2,1000.9,731.9,1007.7,736.3z"/>
		<g>
			<path class="st5" d="M965.3,723.6c7.4,4.5,12.8,12.5,13.2,21.3c0.5,7.8-3,15.5-8.4,21c-6.3,7-15.4,11.1-24.6,12.8
				c-7.9,1.2-16.4,0.3-23.1-4.3c-6.1-4-10.2-10.6-12.1-17.5c-2-8.2,0.6-17.1,5.9-23.5C927.5,719.4,949.6,713.5,965.3,723.6z
				 M940.2,761.8c0,2.4,0.3,4.8,0.5,7.2c6.1,1.4,12.2,2.4,18.3,3.8c-0.3-3.2-1.2-6.3-1.8-9.5C951.6,762.6,945.9,762.5,940.2,761.8z"
				/>
		</g>
		<path class="st5" d="M870.7,836.4c1.7,3,2.1,6.6,1.8,10C871.7,843.1,871.2,839.8,870.7,836.4z"/>
		<g>
			<path class="st63" d="M898.5,896c0.9,0.9,1.8,1.9,2.7,2.9l-3.3,3.3C898.2,900.1,898.3,898,898.5,896z"/>
		</g>
		<path class="st9" d="M693.9,976.3c4.3-0.5,8.6-1.2,12.9-1.8c1.5,2.2,3,4.4,4.5,6.7c-5.1,3.4-9.9,7-15.1,10.2
			C695.5,986.3,694.6,981.3,693.9,976.3z"/>
		<path class="st9" d="M580.5,965.2c5.3,1.5,10.6,2.9,16,4.1c-1,4.5-2.5,8.9-4,13.2c-5.1-3.4-10-6.9-15.2-10.2
			C578,969.8,579.1,967.4,580.5,965.2z"/>
		<path class="st13" d="M870.6,804c1.1,2.3,0.7,4.8-0.6,7C870.1,808.7,870.3,806.4,870.6,804z"/>
		<path class="st15" d="M1039.6,760.5l-3.5,3.5c-5.3-16.7-18.3-29.6-32.7-39c-15.9-10.4-35.2-17.2-54.4-14.5
			c-17.8,2.2-33.9,12.2-46.1,25.1c-13.5,14.5-23,32.6-28,51.7c-1.2,4-1.1,8.4-3.7,11.8c3.4-24.3,14.2-47.7,30.7-65.9
			c12.7-14.2,30-25.1,49.3-27.2c1.1-0.1,2.3-0.2,3.4-0.3c15.3-1,30.6,3.5,43.9,10.8c0.9,0.5,1.8,1,2.7,1.5"/>
		<path class="st15" d="M1001.2,718c7.3,4.4,14.3,9.4,20.5,15.4c0.5,0.5,1.5,1.6,2.1,2.1c6.8,7.2,12.4,15.6,15.9,25"/>
		<path class="st16" d="M796.3,950.4c5.7,1.2,11.3,3.1,17,4.2c-1.3,4.7-2.7,9.5-4.5,14.1c-5.4-3.7-10.7-7.4-16.2-10.9
			C793.8,955.4,794.3,952.3,796.3,950.4z"/>
		<path class="st16" d="M676.6,1009.8c5.8,1.5,11.6,3,17.5,4.5c-1.3,4.6-3,9.2-4.2,13.8c-5.8-3.2-10.8-7.5-16.6-10.7
			C674.2,1014.7,675.4,1012.3,676.6,1009.8z"/>
		<path class="st16" d="M550.5,1098.8c2.2,6.6,4.5,13.1,6.7,19.7c-3.9,1.2-7.7,2.6-11.7,3.5c-1-6.3-2.6-12.4-3.7-18.7
			C544.1,1101.2,547.7,1100.4,550.5,1098.8z"/>
		<path class="st17" d="M925.2,675.7c1.7,2.3,3.4,4.7,4.9,7.2c-5.4,3.5-10.8,7.2-16,10.9c-0.8-5.3-1.8-10.6-2.5-16
			C916,676.7,920.7,676.6,925.2,675.7z"/>
		<path class="st17" d="M628,1027.2c6,1.1,11.8,3,17.7,4.3c-1.6,4.6-2.9,9.4-4.5,14c-5.4-3.8-11-7.3-16.3-11.2
			C625.9,1032,627,1029.6,628,1027.2z"/>
		<path class="st17" d="M642.9,1103.4c1.5,2.4,3.1,4.7,4.6,7.1c-5.5,3.4-10.6,7.6-16.2,10.7c-0.6-5.4-1.7-10.7-2.3-16
			C633.6,1104.8,638.2,1103.8,642.9,1103.4z"/>
		<path class="st17" d="M609,1140.7c1.5,3,1.5,6.7,2.6,10c-6.6-0.6-13-2.6-19.6-3.6c-0.3-2.6-0.7-5.2-0.9-7.8
			C597.1,1139.7,603.1,1140.1,609,1140.7z"/>
		<path class="st20" d="M824.7,784.9c3-1.3,5.9-2.8,8.9-4.1c2,6.6,4.4,13,6.6,19.6c-3.8,1.4-7.7,2.4-11.5,3.8
			C827.1,797.8,825.9,791.3,824.7,784.9z"/>
		<path class="st23" d="M505.9,1062.4c5.5,1.5,11.1,2.6,16.4,4.4c-1.5,4.2-2.7,8.6-4.2,12.9c-5.1-3.5-10.1-6.9-15.3-10.3"/>
		<path class="st25" d="M754.5,899.7c0.2,0.6,0.7,1.7,0.9,2.3c-0.6,6.9,0.7,13.8,1.9,20.6C755.1,915.2,754.3,907.4,754.5,899.7z"/>
		<g>
			<path class="st29" d="M837.1,851.3c9.7,7.1,15.9,18.8,16.3,30.8c0.4,16-7.1,31.4-17.7,43c2.5-5.6,6.5-10.3,8.6-16.1
				c6.1-14.3,7.2-31.9-1.5-45.4c-1.1,4.5-0.7,9.2-1.9,13.6c-2.3,10.6-8.5,20.9-18.4,25.8c-13.9,7.1-31.6,3.4-42.7-7.3
				c-7.2-6-11.2-14.6-16.4-22.3c-3.7,7.8-4.6,16.5-6.4,24.8c-0.5,1.3-1,2.5-1.6,3.7c-0.2-0.6-0.7-1.7-0.9-2.3c0-0.3,0-0.8,0-1
				c1.7-5.4,1.4-11.2,3.3-16.6c5-17.3,16.1-34.4,33.6-40.9C807,835.4,824.5,841.3,837.1,851.3z M833.8,853.6
				c-3.9-2.8-8.7-4.1-13.4-5c-1.7-0.3-4.3-0.6-5,1.6c0.4,3.8,3.7,6.4,6.5,8.8c3.7,2.9,9.6,5,13.6,1.5
				C838.2,858.4,836,854.9,833.8,853.6z M811.7,850.1c-2.7-2.6-6.1-4.6-9.8-5.4c-10.4-2.1-22,4.1-25.7,14.1
				c-3.2,8.8,3.2,19.2,12.2,21c10,2,21-3.4,25.7-12.5C817.1,861.8,816,854.6,811.7,850.1z"/>
		</g>
		<path class="st31" d="M833.8,853.6c2.3,1.3,4.4,4.8,1.7,6.8c-4,3.5-9.9,1.4-13.6-1.5c-2.8-2.3-6-4.9-6.5-8.8
			c0.7-2.2,3.3-1.8,5-1.6C825.1,849.5,829.9,850.8,833.8,853.6z"/>
		<path class="st31" d="M811.7,850.1c4.3,4.5,5.4,11.7,2.5,17.2c-4.6,9.1-15.7,14.4-25.7,12.5c-9-1.8-15.4-12.2-12.2-21
			c3.7-10,15.3-16.2,25.7-14.1C805.7,845.5,809.1,847.4,811.7,850.1z"/>
		<path class="st31" d="M768,893.8c3,2.2,4,6.1,5,9.5c1.1,4.8,2.5,10.2-0.1,14.8c-1,2.3-3.6,4.7-6.4,3.8c-3.6-1.2-5.6-5-5.8-8.6
			c-0.5-6,1.6-11.8,4-17.2C765.3,894.9,766.4,892.7,768,893.8z"/>
		<g>
			<path class="st32" d="M842.8,863.6c8.7,13.5,7.7,31.1,1.5,45.4c-2.1,5.8-6.1,10.5-8.6,16.1c-9.1,10.9-22,17.8-35.2,22.5
				c-6.7,2.3-13.9,2.2-20.9,1.8c9.1,8.4,13.3,22,9.5,33.9c-2.7,8.8-9.8,15.3-17.6,19.7c-13.5,7.9-30.3,10.3-41.5,22
				c-6,5.7-8.1,14.7-6,22.6c3.8-3.5,9.1-6.5,14.3-4.7c5,1.6,7.6,7,6.9,12l-5.3,5.3c-6.3,1.7-12.6-1.1-16.7-5.9
				c-4.3,8.2-7,17.7-4.2,26.8l-2.4,2.4c-4.2-10.8-0.8-22.9,5-32.4c-1.4-5-2.3-10.3-1-15.5c1.8-8.9,8.8-15.7,16.4-20.2
				c14-8.5,31.8-10.8,43.3-23.2c11.7-12.2,7.6-34-6.2-42.8c-0.3,2.3-0.5,4.7-0.6,7c-2.7-2.5-6-4.3-9.7-4.3c2.6-2,5.2-3.8,7.8-5.7
				c-7.2-6.1-12.3-14.5-14.5-23.7c-1.2-6.8-2.5-13.7-1.9-20.6c0.6-1.2,1.2-2.4,1.6-3.7c1.8-8.3,2.7-17,6.4-24.8
				c5.2,7.6,9.1,16.3,16.4,22.3c11.1,10.6,28.8,14.3,42.7,7.3c10-4.9,16.1-15.2,18.4-25.8C842.1,872.8,841.7,868.1,842.8,863.6z
				 M768,893.8c-1.6-1.1-2.7,1-3.4,2.3c-2.4,5.3-4.5,11.2-4,17.2c0.3,3.6,2.3,7.4,5.8,8.6c2.8,0.9,5.3-1.4,6.4-3.8
				c2.6-4.6,1.2-10,0.1-14.8C772,899.9,771,896,768,893.8z M737.6,1046c-4.7-1.8-9.4,1.5-12.3,4.9c2.8,4.9,9.3,8.3,14.6,5.3
				C744,1053.8,741.7,1047.2,737.6,1046z"/>
		</g>
		<path class="st34" d="M940.2,761.8c5.7,0.7,11.4,0.8,17.1,1.5c0.5,3.2,1.4,6.3,1.8,9.5c-6.1-1.3-12.3-2.4-18.3-3.8
			C940.5,766.6,940.2,764.2,940.2,761.8z"/>
		<g>
			<path class="st64" d="M915.2,802.5c6.2,0.2,12.3,0.8,18.5,1.4c0.7,3.4,1.4,6.8,2,10.2c-4.4-0.9-8.8-1.8-13.1-2.6
				c-2.2-0.5-4.3-0.9-6.5-1.3c-0.2-1.5-0.3-2.9-0.5-4.3C915.4,804.8,915.3,803.6,915.2,802.5z"/>
		</g>
		<g>
			<path class="st65" d="M910.3,877.4c0.8,3.4,1.7,6.7,2.3,10.1l-0.3,0.3c-6.4-1.7-13-2.7-19.4-4.1c-0.2-2.6-0.5-5.1-0.7-7.7
				C898.1,876.5,904.2,877.1,910.3,877.4z"/>
		</g>
		<g>
			<path class="st66" d="M898.4,892c2.6,0.2,4.9,1.4,7.3,2.4l-2.5,2.5C901.5,895.3,899.9,893.7,898.4,892z"/>
		</g>
		<g>
			<path class="st67" d="M880.2,899.2c5.5-0.1,11.5,0.9,14.8,5.8l-3.8,3.8C887.1,906.6,881,904.4,880.2,899.2z"/>
		</g>
		<g>
			<path class="st68" d="M807.6,836.4c9.8,0.6,19.1,4.5,27.2,9.9c8.9,5.9,16.4,14.7,19.1,25.2c3.5,13.1,0.1,27.2-6.3,38.9
				c-9.7,18.2-27.4,31.7-47.2,37.2c13.2-4.7,26.1-11.6,35.2-22.5c10.6-11.6,18.1-27,17.7-43c-0.4-12.1-6.5-23.7-16.3-30.8
				c-12.6-10-30.1-15.9-45.7-10.1c-17.5,6.5-28.6,23.6-33.6,40.9c-1.8,5.4-1.6,11.2-3.3,16.6c0.3-19.2,8.5-38.4,22.8-51.3
				C785.5,840.1,796.5,835.6,807.6,836.4z"/>
		</g>
		<g>
			<g>
				<path class="st69" d="M859.7,918.4c2.1-3,7.1-5.3,10.1-2.3c3.9,3.3,2.3,8.9,1,13.1l-11.2,11.2c-8.5,4.9-18.6,6.6-26.9,12
					c-6,3.8-10.6,10.7-9.7,18c0.4,1.5-1.8,2-2.5,0.7c-1.4-7.5,3-14.9,8.8-19.5c9-7,20.8-8.4,30.3-14.4
					C856.6,931.6,855.6,923.9,859.7,918.4z M863.7,918.3c-5.5,4.1-4.8,12.2-1.8,17.6c4.5-3.8,8.7-9.4,7.7-15.6
					C869.3,917.3,865.6,916.5,863.7,918.3z"/>
			</g>
		</g>
		<g>
			<path class="st70" d="M727.7,811.2c4.6-0.4,9.2-1.4,13.8-1.8c1.5,2.3,3,4.6,4.6,6.9c-5.2,3.8-10.6,7.3-15.9,11
				C729.1,822,728.1,816.6,727.7,811.2z"/>
		</g>
		<g>
			<path class="st71" d="M721.3,893.5c4-2.2,8-4.5,12-6.8c0.2,3.5,0.7,7,0.9,10.5c-2.8,1.5-5.5,3.1-8.2,4.8
				C724.3,899.3,722.8,896.4,721.3,893.5z"/>
		</g>
		<g>
			<path class="st72" d="M773.6,956.3c0,0.5-0.1,1.5-0.1,2c-3.9-0.5-7.7-2.2-10.3-5.2l0.7-1C767.7,952,770.9,953.8,773.6,956.3z"/>
		</g>
		<g>
			<path class="st73" d="M697.3,926.6c14.2,0.4,26.9,11.7,29.6,25.5c2.2,8.7-0.6,17.4-1.2,26.1c-0.9,10.7-1.6,21.8,1.9,32
				c-1.5,1.7-3,3.2-4.5,4.8c-4.2-10.5-6.5-22-5.8-33.4c0.3-7.2,2.9-14.1,3.9-21.2c1-7.4-2.8-14.5-7.3-20.1
				c-4.1-5.1-10.5-8.6-17.2-8.2c-7.3,0.3-13.8,4.6-19,9.5c-1.5,1.5-3,3.1-4.4,4.8c-1.6,2.9-3.1,6.8-0.9,9.9c3,3.6,7.9,4.6,12.2,5.5
				c1.1,0.2,2.2,0.4,3.3,0.7c-0.9,1.5-1.7,3.1-2.6,4.6c-7.7,1.5-16.4-2.8-19.2-10.2c-1.7-4.3-0.6-9.2,1.4-13.2
				c1.2-1.9,2.6-3.7,4.1-5.4C677.9,931.1,687.4,926.1,697.3,926.6z"/>
		</g>
		<g>
			<path class="st74" d="M673.2,946.6c1.4-1.7,2.9-3.3,4.4-4.8c6.3,5.2,10.7,12.4,12.7,20.3c-1.7,1.8-3.4,3.5-5.1,5.2
				c0.9-1.5,1.8-3.1,2.6-4.6c-1.1-0.3-2.2-0.5-3.3-0.7c-2-5.9-4.8-11.9-9.9-15.7C674.3,946.4,673.6,946.6,673.2,946.6z"/>
		</g>
		<g>
			<path class="st75" d="M657.4,941.2c4-3.2,9.3-4.1,14.2-2.8c-1.5,1.7-2.9,3.5-4.1,5.4c-5.5,0.4-11.2,2.7-14,7.7
				c-1.5,2.7-3.1,5.7-2.8,8.9c-1.9-0.4-3.8-0.6-5.8-0.7C646.7,952.3,651.5,945.9,657.4,941.2z"/>
		</g>
		<g>
			<path class="st76" d="M650.7,960.4c10.1,2.2,19,10.9,20.3,21.3c-1.5,1.3-3,2.8-4.4,4.2c-0.5-1.8-1-3.5-1.6-5.2
				c-3-6.8-7.7-13.8-15.4-15.7c-2-0.3-4.1-0.5-6.1-0.4c-6.6,1-13,4-17.9,8.4c-5.7,5.2-8.2,13.1-7.6,20.6c0.2,2.1,0.5,4.2,0.9,6.3
				c1.3,5.5,3.7,11,8,14.9c4.1,4.1,9.7,6.2,15.4,7l1.8,0.3c-1.8,1.7-3.2,4.8-6.1,4.6c-4.3,0.2-8.3-1.9-11.6-4.5
				c-6.3-5.3-10.7-12.8-12.6-20.8c-0.6-2.4-1-4.8-1.2-7.3c-0.5-8.1,2.2-16.4,7.8-22.3c6.4-6.8,15-12.2,24.6-12.3
				C646.8,959.8,648.8,960,650.7,960.4z"/>
		</g>
		<g>
			<path class="st77" d="M665,980.8c0.6,1.7,1.1,3.4,1.6,5.2c-6.7,0.5-14.3-0.7-18.9-6.1c-3.6-4.2-4.4-9.8-4.2-15.2
				c2-0.1,4.1,0.1,6.1,0.4c0.4,4.1-0.5,9.4,3.3,12.1C656.5,979.4,660.8,980.7,665,980.8z"/>
		</g>
		<g>
			<path class="st78" d="M618,993.7c7.6-0.4,15.9,0.4,22.3,4.9c7,5,8.1,15,5.2,22.6c-0.4,0.3-1.1,0.8-1.5,1.1l-1.8-0.3
				c1-5,1.5-10.8-1.9-15c-5-6.5-13.9-7.6-21.5-6.9C618.5,997.9,618.2,995.8,618,993.7z"/>
			<path class="st78" d="M612.5,994.3c0.2,2.5,0.6,4.9,1.2,7.3c-3.5-0.1-6.6,1.9-9.7,3.2c-10.2,4.5-17.2,14.3-28.2,17.4
				c-10.3,3.5-21.8,0.4-30.1-6.4c1.7-3.3,4.4-6.1,6.5-9.1c4.8,8.2,15.5,10.5,24.3,8.6c8.5-1.8,14.4-8.7,21.1-13.7
				C602,998.1,607.1,995.7,612.5,994.3z"/>
		</g>
		<g>
			<path class="st79" d="M575.7,1052.3c1.2,1.2,2.5,2.4,3.7,3.7c-0.8,3.2-1.5,6.4-2.2,9.6c-2.4-2.5-4.9-4.9-7.3-7.4
				C571.8,1056.2,573.8,1054.2,575.7,1052.3z"/>
		</g>
	</g>
	<g id="Слой_5">
		<path class="st44" d="M196.4,772.7c-2.9,4.9-5.4,10.2-6.8,15.7l10.6,10.6C198.6,790.3,196.9,781.5,196.4,772.7z"/>
		<g>
			<path class="st8" d="M297.2,829.9c2.1-0.5,4.3-0.9,6.5-1.3c0.2-1.5,0.3-2.9,0.5-4.3c7.3-6.4,13-14.3,17.6-22.8
				c3.4-6.3,6.1-13.1,10.8-18.5c6.3,16.8,11.3,34,14.1,51.7c0.6,3.5,0.4,7.5,3.3,10.1c-0.1,3.3-0.3,6.7-0.9,10
				c-1.7,3-2.1,6.6-1.8,10c-3.4,16.1-10.3,32.4-23.2,43.2c5.1,3.3,10.1,6.5,15.4,9.5c-5.5-0.1-11.5,0.9-14.8,5.8l-2.9-2.9
				c-0.3-2.1-0.4-4.1-0.6-6.2c-0.9,0.9-1.8,1.9-2.7,2.9l-1.9-1.9c1.6-1.6,3.2-3.2,4.7-4.9c-2.6,0.2-4.9,1.4-7.3,2.4l-6.6-6.6
				c6.4-1.7,13-2.7,19.4-4.1c0.2-2.6,0.5-5.1,0.7-7.7c-6,0.4-12.1,1-18.2,1.3c-0.8,3.4-1.6,6.7-2.3,10.1l-63-63
				c6.9,0.8,13.8,1.7,20.7,0.6C276.6,842,288.4,837.9,297.2,829.9z M320.8,826.3c-2.6,6.7-3.4,14-4,21.1c-0.5,6.3,2,12.9,6.7,17.1
				c2.5,2.4,6.5,2.3,9.3,0.5c5.1-3,7.2-9.1,7.4-14.7c0-9.8-3.7-19.2-8.2-27.8c-1.3-1.8-2.6-5.5-5.5-4.3
				C323.4,819.7,322.1,823.3,320.8,826.3z"/>
		</g>
		<g>
			<path class="st9" d="M270.6,728.9c17.9,2.2,33.9,12.2,46.1,25.1c13.5,14.5,23,32.6,28,51.7c1.2,4,1.1,8.4,3.7,11.8
				c0.3,1.6,0.5,3.2,0.6,4.9c-1.1,2.3-0.7,4.8,0.6,7c0.6,5.1,0.5,10.3,0.2,15.4c-2.8-2.6-2.6-6.6-3.3-10.1
				c-2.8-17.7-7.8-35-14.1-51.7c-4.7,5.5-7.5,12.2-10.8,18.5c-4.6,8.5-10.4,16.4-17.6,22.8c0.1-1.1,0.3-2.2,0.4-3.3
				c-6.2,0.2-12.3,0.8-18.5,1.4c-0.7,3.4-1.4,6.8-2,10.2c4.4-0.9,8.8-1.8,13.1-2.6c-8.8,8-20.6,12.2-32.3,13.7
				c-6.9,1-13.9,0.1-20.7-0.6l-44-44c-1.7-8.7-3.4-17.4-3.8-26.3c-2.9,4.9-5.4,10.2-6.8,15.7l-6-6c5.3-16.7,18.3-29.6,32.7-39
				C232.2,733,251.5,726.2,270.6,728.9z M205.5,761.9c-1.1,3.2,1.7,5.9,4.3,7.3c5.4,3.1,12.1,0.8,17-2.2c6-4,11.7-9.4,14-16.4
				c1.3-3.7-3.3-5.1-6.1-4.4c-7.9,1.4-15.8,4-22.5,8.4C209.5,756.7,206.8,758.8,205.5,761.9z M241.3,763.3c-0.5,7.8,3,15.5,8.4,21
				c6.4,7,15.4,11.1,24.6,12.8c7.9,1.2,16.4,0.3,23.1-4.3c6.1-4,10.2-10.6,12.1-17.5c2-8.2-0.6-17.1-5.9-23.5
				c-11.3-14-33.4-19.9-49.1-9.8C247,746.5,241.6,754.5,241.3,763.3z"/>
		</g>
		<path class="st44" d="M326.6,818.3c-3.2,1.4-4.4,5-5.7,8c-2.6,6.7-3.4,14-4,21.1c-0.5,6.3,2,12.9,6.7,17.1
			c2.5,2.4,6.5,2.3,9.3,0.5c5.1-3,7.2-9.1,7.4-14.7c0-9.8-3.7-19.2-8.2-27.8C330.8,820.7,329.4,817.1,326.6,818.3z"/>
		<path class="st44" d="M212,754.7c-2.6,2-5.3,4.2-6.6,7.3c-1.1,3.2,1.7,5.9,4.3,7.3c5.4,3.1,12.1,0.8,17-2.2c6-4,11.7-9.4,14-16.4
			c1.3-3.7-3.3-5.1-6.1-4.4C226.7,747.6,218.8,750.3,212,754.7z"/>
		<g>
			<path class="st44" d="M303.5,751.8c5.3,6.4,7.9,15.3,5.9,23.5c-1.9,7-5.9,13.6-12.1,17.5c-6.7,4.5-15.3,5.5-23.1,4.3
				c-9.2-1.7-18.2-5.8-24.6-12.8c-5.4-5.5-8.9-13.2-8.4-21c0.4-8.8,5.8-16.8,13.2-21.3C270.1,731.9,292.2,737.8,303.5,751.8z"/>
		</g>
		<path class="st43" d="M349,854.8c-1.7,3-2.1,6.6-1.8,10C348,861.5,348.6,858.2,349,854.8z"/>
		<g>
			<path class="st63" d="M321.2,914.4c-0.9,0.9-1.8,1.9-2.7,2.9l3.3,3.3C321.5,918.5,321.4,916.4,321.2,914.4z"/>
		</g>
		<path class="st43" d="M349.1,822.5c-1.1,2.3-0.7,4.8,0.6,7C349.6,827.1,349.4,824.8,349.1,822.5z"/>
		<path class="st43" d="M180.1,778.9l3.5,3.5c5.3-16.7,18.3-29.6,32.7-39c15.9-10.4,35.2-17.2,54.4-14.5
			c17.9,2.2,33.9,12.2,46.1,25.1c13.5,14.5,23,32.6,28,51.7c1.2,4,1.1,8.4,3.7,11.8c-3.4-24.3-14.2-47.7-30.7-65.9
			c-12.7-14.2-30-25.1-49.3-27.2c-1.1-0.1-2.3-0.2-3.4-0.3c-15.3-1-30.6,3.5-43.9,10.8c-0.9,0.5-1.8,1-2.7,1.5"/>
		<path class="st43" d="M218.5,736.5c-7.3,4.4-14.3,9.4-20.5,15.4c-0.5,0.5-1.5,1.6-2.1,2.1c-6.8,7.2-12.4,15.6-15.9,25"/>
		<path class="st16" d="M423.4,968.8c-5.7,1.2-11.3,3.1-17,4.2c1.3,4.7,2.7,9.5,4.5,14.1c5.4-3.7,10.7-7.4,16.2-10.9
			C425.9,973.8,425.4,970.7,423.4,968.8z"/>
		<path class="st17" d="M294.5,694.1c-1.7,2.3-3.4,4.7-4.9,7.2c5.4,3.5,10.8,7.2,16,10.9c0.8-5.3,1.8-10.6,2.5-16
			C303.8,695,299,695,294.5,694.1z"/>
		<path class="st20" d="M395,803.3c-3-1.3-5.9-2.8-8.9-4.1c-2,6.6-4.4,13-6.6,19.6c3.8,1.4,7.7,2.4,11.5,3.8
			C392.6,816.2,393.8,809.7,395,803.3z"/>
		<path class="st25" d="M465.3,918.1c-0.2,0.6-0.7,1.7-0.9,2.3c0.6,6.9-0.7,13.8-1.9,20.6C464.6,933.6,465.5,925.8,465.3,918.1z"/>
		<g>
			<path class="st29" d="M428.4,859.6c17.5,6.5,28.6,23.6,33.6,40.9c1.8,5.4,1.6,11.2,3.3,16.6c0,0.3,0,0.8,0,1
				c-0.2,0.6-0.7,1.7-0.9,2.3c-0.6-1.2-1.2-2.4-1.6-3.7c-1.8-8.3-2.7-17-6.4-24.8c-5.1,7.6-9.1,16.3-16.4,22.3
				c-11.1,10.6-28.8,14.3-42.7,7.3c-10-4.9-16.1-15.2-18.4-25.8c-1.2-4.5-0.8-9.2-1.9-13.6c-8.7,13.5-7.7,31.1-1.5,45.4
				c2.1,5.8,6.1,10.5,8.6,16.1c-10.6-11.6-18.1-27-17.7-43c0.4-12.1,6.5-23.7,16.3-30.8C395.2,859.7,412.7,853.8,428.4,859.6z
				 M384.2,878.8c4,3.5,9.9,1.4,13.6-1.5c2.8-2.3,6-4.9,6.5-8.8c-0.7-2.2-3.3-1.8-5-1.6c-4.7,0.9-9.4,2.2-13.4,5
				C383.7,873.3,381.5,876.8,384.2,878.8z M405.5,885.7c4.6,9.1,15.7,14.4,25.7,12.5c9-1.8,15.4-12.2,12.2-21
				c-3.7-10-15.3-16.2-25.7-14.1c-3.7,0.8-7.1,2.8-9.8,5.4C403.7,873,402.6,880.2,405.5,885.7z"/>
		</g>
		<path class="st31" d="M385.9,872c-2.3,1.3-4.4,4.8-1.7,6.8c4,3.5,9.9,1.4,13.6-1.5c2.8-2.3,6-4.9,6.5-8.8c-0.7-2.2-3.3-1.8-5-1.6
			C394.6,867.9,389.9,869.2,385.9,872z"/>
		<path class="st31" d="M408,868.5c-4.3,4.5-5.4,11.7-2.5,17.2c4.6,9.1,15.7,14.4,25.7,12.5c9-1.8,15.4-12.2,12.2-21
			c-3.7-10-15.3-16.2-25.7-14.1C414,863.9,410.6,865.8,408,868.5z"/>
		<path class="st31" d="M451.7,912.2c-3,2.2-4,6.1-5,9.5c-1.1,4.8-2.5,10.2,0.1,14.8c1,2.3,3.6,4.7,6.4,3.8c3.6-1.2,5.6-5,5.9-8.6
			c0.5-6-1.6-11.8-4-17.2C454.4,913.3,453.3,911.1,451.7,912.2z"/>
		<g>
			<path class="st32" d="M378.8,895.6c2.3,10.6,8.5,20.9,18.4,25.8c13.9,7.1,31.6,3.4,42.7-7.3c7.2-6,11.2-14.6,16.4-22.3
				c3.7,7.8,4.6,16.5,6.4,24.8c0.5,1.3,1,2.5,1.6,3.7c0.6,6.9-0.7,13.8-1.9,20.6c-2.2,9.2-7.3,17.6-14.5,23.7
				c2.6,1.9,5.3,3.7,7.8,5.7c-3.8-0.1-7,1.8-9.7,4.3c-0.1-2.4-0.3-4.7-0.6-7c-13.9,8.8-17.9,30.6-6.2,42.8
				c11.5,12.5,29.3,14.7,43.4,23.2c7.6,4.4,14.6,11.2,16.4,20.2c1.4,5.1,0.4,10.5-1,15.5c5.8,9.6,9.2,21.6,5,32.4l-2.4-2.4
				c2.8-9.1,0-18.7-4.2-26.8c-4,4.8-10.4,7.7-16.6,5.9l-5.3-5.3c-0.7-5,1.9-10.4,6.9-12c5.3-1.8,10.6,1.2,14.4,4.7
				c2.1-7.9,0-16.9-6-22.6c-11.2-11.7-28-14.1-41.5-22c-7.8-4.4-15-11-17.6-19.7c-3.7-11.9,0.4-25.5,9.5-33.9
				c-7,0.4-14.1,0.5-20.9-1.8c-13.2-4.7-26.1-11.6-35.2-22.5c-2.5-5.6-6.5-10.3-8.6-16.1c-6.1-14.3-7.2-31.9,1.5-45.4
				C378,886.5,377.6,891.2,378.8,895.6z M446.7,921.7c-1.1,4.8-2.5,10.2,0.1,14.8c1,2.3,3.6,4.7,6.4,3.8c3.6-1.2,5.6-5,5.9-8.6
				c0.5-6-1.6-11.8-4-17.2c-0.6-1.2-1.7-3.3-3.4-2.3C448.7,914.4,447.7,918.3,446.7,921.7z M479.8,1074.7c5.3,3,11.8-0.4,14.6-5.3
				c-2.9-3.4-7.6-6.8-12.3-4.9C478,1065.6,475.7,1072.2,479.8,1074.7z"/>
		</g>
		<path class="st34" d="M260.7,791.2"/>
		<g>
			<path class="st64" d="M304.6,820.9c-6.2,0.2-12.3,0.8-18.5,1.4c-0.7,3.4-1.4,6.8-2,10.2c4.4-0.9,8.8-1.8,13.1-2.6
				c2.1-0.5,4.3-0.9,6.5-1.3c0.2-1.5,0.3-2.9,0.5-4.3C304.3,823.2,304.4,822,304.6,820.9z"/>
		</g>
		<g>
			<path class="st65" d="M309.5,895.8c-0.8,3.4-1.6,6.7-2.3,10.1l0.3,0.3c6.4-1.7,13-2.7,19.4-4.1c0.2-2.6,0.5-5.1,0.7-7.7
				C321.6,894.9,315.5,895.5,309.5,895.8z"/>
		</g>
		<g>
			<path class="st66" d="M321.3,910.4c-2.6,0.2-4.9,1.4-7.3,2.4l2.5,2.5C318.2,913.7,319.8,912.1,321.3,910.4z"/>
		</g>
		<g>
			<path class="st67" d="M339.5,917.6c-5.5-0.1-11.5,0.9-14.8,5.8l3.8,3.8C332.7,925,338.7,922.8,339.5,917.6z"/>
		</g>
		<g>
			<path class="st68" d="M412.1,854.8c-9.8,0.6-19.1,4.5-27.2,9.9c-8.9,5.9-16.4,14.7-19.1,25.2c-3.5,13.1-0.1,27.2,6.3,38.9
				c9.7,18.2,27.4,31.7,47.2,37.2c-13.2-4.7-26.1-11.6-35.2-22.5c-10.6-11.6-18.1-27-17.7-43c0.4-12.1,6.5-23.7,16.3-30.8
				c12.6-10,30.1-15.9,45.7-10.1c17.5,6.5,28.6,23.6,33.6,40.9c1.8,5.4,1.6,11.2,3.3,16.6c-0.3-19.2-8.5-38.4-22.8-51.3
				C434.3,858.5,423.2,854,412.1,854.8z"/>
		</g>
		<g>
			<g>
				<path class="st69" d="M360.2,955.8c9.5,6,21.4,7.4,30.3,14.4c5.8,4.5,10.2,11.9,8.8,19.5c-0.6,1.3-2.9,0.8-2.5-0.7
					c0.9-7.3-3.7-14.3-9.7-18c-8.3-5.4-18.4-7.1-26.9-12l-11.2-11.2c-1.3-4.2-2.9-9.8,1-13.1c3-3.1,8-0.7,10.1,2.3
					C364.1,942.3,363.1,950,360.2,955.8z M350.2,938.7c-1,6.2,3.2,11.8,7.7,15.6c3-5.4,3.6-13.5-1.9-17.6
					C354.1,934.9,350.4,935.7,350.2,938.7z"/>
			</g>
		</g>
		<g>
			<path class="st70" d="M492,829.6c-4.6-0.4-9.2-1.4-13.8-1.8c-1.5,2.3-3,4.6-4.6,6.9c5.2,3.8,10.6,7.3,15.9,11
				C490.6,840.4,491.6,835,492,829.6z"/>
		</g>
		<g>
			<path class="st72" d="M446.1,974.7c0,0.5,0.1,1.5,0.1,2c3.9-0.5,7.7-2.2,10.3-5.2l-0.7-1C452,970.4,448.8,972.2,446.1,974.7z"/>
		</g>
	</g>
	<g id="Слой_3">
		<path class="st2" d="M600,1l9.2,9.2c-4.7-1.6-9.3-3.6-14.3-4.1L600,1z"/>
		<path class="st3" d="M609.2,10.2l2.7,2.7c-6,1-12.1,1.7-18.1,3.4c-4.5,1.2-8.9,3.1-13.4,4.3l14.5-14.5
			C599.9,6.6,604.5,8.6,609.2,10.2z"/>
		<path class="st3" d="M545.3,55.7c-1,4.4-2.6,8.8-3.2,13.3c-0.6,4.2-0.7,8.3-0.7,12.5c0.5,5.2,1.3,10.5,2.6,15.5
			c2.8,5.7,5.3,11.6,9.2,16.7c5.8,7.5,12.8,14.1,20.9,19.2c7.6,5,16.7,7.6,24,13.2c-6.9,2.9-14,5.5-21.1,8
			c-4.1,1.5-8.5,2.2-12.5,4.4c-21.7-16-42.1-33.7-61.7-52.1c-0.7,0.7-2,2-2.7,2.7c-3.6,3.6-7.2,7.2-10.7,10.8
			c-1.3-1.5-2.4-3.1-3.4-4.7L545.3,55.7z"/>
		<g>
			<path class="st3" d="M685.6,234.8c15,6.8,30.2,13.1,45.7,18.8c-13.7,11.8-27.8,22.9-42.2,33.9c-0.6,0.5-1.8,1.4-2.5,1.9
				c-0.6,0.5-1.8,1.4-2.4,1.8c-0.4-6.4,0-12.9,0-19.3c0-1.6,0.1-3.3,0-4.9C684.6,256.3,684.9,245.5,685.6,234.8z M706.3,260.4
				c-6.4-1-12.1-4.1-17-8c-2.1,10-2.7,20.1-2.3,30c3.4-1.3,6.3-3.9,9.4-5.8c6.7-4.8,13.5-9.6,19.3-15.5
				C712.6,260.7,709.4,261,706.3,260.4z"/>
		</g>
		<path class="st3" d="M275.2,342.1c0.7,1.3,1.3,2.6,2,3.9c-0.5,0.9-0.9,1.8-1.4,2.7c-0.4-0.6-1.1-1.9-1.5-2.6
			C274.6,344.8,274.9,343.4,275.2,342.1z"/>
		<g>
			<path class="st4" d="M611.9,12.9l8.5,8.5c-4.2,3.2-6.5,8.9-5.3,13.8c1.8,7.1,6.6,12.8,12.2,17c2.3,1.5,4.8,3.2,7.7,2.9
				c1.8,0,2.7-2.1,2.8-3.6c0.5-5.3-1.8-10-2.5-15l16,16c4.6,14.9,3.8,31.8-2.8,46.9c-6.3,14.3-16.9,26.8-29.2,36.6
				c-15.2,12.2-33,20.7-51.5,25.2c-1.2-0.9-2.3-1.8-3.5-2.7c3.9-2.2,8.3-2.9,12.5-4.4c7.1-2.5,14.2-5,21.1-8
				c-7.2-5.6-16.3-8.2-24-13.2c-8.1-5-15.1-11.7-20.9-19.2c-3.9-5-6.3-11-9.2-16.7c3.1-1.1,6.2-2.2,9.3-3.3
				c-1.5-5.3-3.2-10.5-4.7-15.7c-2.4,1.2-4.8,2.3-7.2,3.5c0-4.2,0-8.3,0.7-12.5c0.6-4.5,2.2-8.9,3.2-13.3l35.1-35.1
				c4.5-1.2,8.9-3.2,13.4-4.3C599.8,14.6,605.9,13.9,611.9,12.9z M635.8,61.8c-4.6-4-11-6.2-17.4-5.5c-7,0.7-13.8,4.4-19,9.4
				c-7.7,7.8-12.7,18.3-13.6,28.9c-0.4,7,0.9,14.4,5.4,19.5c5.2,6.5,13.7,10.1,22.4,9.4c6.6-0.8,13-4.1,17.9-8.9
				c8.8-8.2,14-20.2,13.8-31.7C645.3,74.7,641.8,66.9,635.8,61.8z"/>
		</g>
		<path class="st4" d="M706.3,260.4c3.1,0.6,6.3,0.3,9.5,0.6c-5.8,5.9-12.7,10.7-19.3,15.5c-3.1,2-6,4.5-9.4,5.8
			c-0.5-9.9,0.2-20,2.3-30C694.2,256.3,699.9,259.4,706.3,260.4z"/>
		<path class="st5" d="M620.4,21.4l15,15c0.6,5,3,9.8,2.5,15c-0.2,1.5-1,3.6-2.8,3.6c-3,0.3-5.5-1.4-7.7-2.9
			c-5.7-4.2-10.5-10-12.2-17C613.9,30.3,616.1,24.6,620.4,21.4z"/>
		<g>
			<path class="st5" d="M635.8,61.8c6,5.1,9.5,12.9,9.6,21.1c0.2,11.5-5,23.5-13.8,31.7c-4.9,4.8-11.3,8.1-17.9,8.9
				c-8.7,0.8-17.2-2.9-22.4-9.4c-4.5-5.2-5.8-12.5-5.4-19.5c0.9-10.6,5.8-21.1,13.6-28.9c5.2-5.1,11.9-8.8,19-9.5
				C624.9,55.6,631.2,57.7,635.8,61.8z M611.1,88.9c-3.7,0.7-7.3,1.4-11,2c0.2,4.4,0.8,8.8,1.4,13.1c4.4-3.3,9-6.3,13.4-9.6
				C613.7,92.5,612.5,90.7,611.1,88.9z"/>
		</g>
		<g>
			<path class="st80" d="M651.4,52.4l6.2,6.2c2.2,12.9,0.8,26.7-4.7,39.3c-7.9,18.5-22.8,33.7-39.5,44.8
				c-13.6,9-28.7,15.8-44.3,19.3c-0.3-0.2-0.9-0.7-1.2-0.9c18.5-4.5,36.3-13,51.5-25.2c12.3-9.8,22.9-22.2,29.2-36.6
				C655.2,84.2,656,67.2,651.4,52.4z"/>
		</g>
		<path class="st6" d="M693.9,94.9l1.4,1.4c-12.3,6.9-23.4,16.3-31.9,27.7c-10.3,12.6-17.7,27.4-21.6,42.8c-1.1,4-1.4,8.1-2.5,12.1
			c1.2-13.6,5.9-27,12.5-39.3C661.4,121.4,676.2,105.6,693.9,94.9z"/>
		<path class="st6" d="M741.4,142.4l33.4,33.4c-3.7,4.6-8.2,8.8-13.8,10.6c-11.6,4.2-24.8-2.8-27.2-14.3
			C731.3,162.1,735.1,151.1,741.4,142.4z"/>
		<path class="st6" d="M303.8,301.9c1,1,1.4,3.1-0.3,4C303.1,304.6,303.2,303.2,303.8,301.9z"/>
		<path class="st7" d="M695.3,96.3L698,99c-8.8,3.8-16.8,9.3-24.1,15.5c-3.6,3-6.5,6.9-10.5,9.4C671.9,112.6,683,103.1,695.3,96.3z"
			/>
		<g>
			<path class="st8" d="M698,99l14.6,14.6c-8.1,7.3-14.2,17.1-16,27.6c-2.6,13.2,0.3,26.8,7.6,37.2c5.4,7.9,12.9,14.1,21.3,18.7
				c6.2,3.4,13.3,5.3,19.3,9.1c-10.5,5.7-21.8,9.6-33.1,13.1c-5.1,1.7-10.4,2.4-15.3,4.6c-8.4,1.1-16.6,0-24.7-1.1
				c-0.8-0.1-1.5-0.2-2.3-0.3c-10.2-4.5-19.8-10-29.5-15.2c1.1-0.4,2.1-0.8,3.2-1.3c-5.3-4.4-11.7-9-19.3-8
				c-1.1-0.6-2.2-1.3-3.3-1.9c7.3-2.2,14.4,0.8,19.9,4.7c-1.5-7.1-2.2-14.5-1.2-21.9c1.1-4,1.4-8.1,2.5-12.1
				c3.9-15.4,11.3-30.3,21.6-42.8c4-2.5,6.9-6.4,10.5-9.4C681.2,108.3,689.3,102.8,698,99z M715.5,202.7c-4.1-2.9-9.4-3.3-14.4-3.9
				c-5.1-0.2-10.5-0.8-15.4,1.7c-3.2,1.6-6.6,4.1-7.5,7.7c-0.7,3.6,2.1,6.5,5,8.1c5.9,2.6,13.1,1,19.2-1.6c4.8-2.3,10-4.3,13.9-8
				C717.6,205.4,716.6,203.6,715.5,202.7z"/>
		</g>
		<g>
			<path class="st8" d="M886.8,287.8l1.5,1.5c-11.3,15.9-23,31.5-35.6,46.4c-5.3-17.5-9.4-35.5-13.1-53.5
				C855.2,284.8,871,286.5,886.8,287.8z M868.1,300.3c-4.7,1.2-9.5,1.5-14.1,0.9c-2.5-0.3-4.9-1.3-7.4-1.4
				c1.8,9.7,4.6,19.1,8.8,27.9c7.8-9.1,14.3-19.3,20.1-29.8C872.9,298.4,870.6,299.7,868.1,300.3z"/>
		</g>
		<path class="st8" d="M829.6,338.7c6.2,2.1,9.7,7.7,14.4,11.7c-1.3,0.8-2.6,1.6-4,2.4c-4.6-4.6-10.5-8.5-17.3-8.8
			c-3.4-0.2-6.7,0.9-9.9,2.4c-1-1.4-1.9-2.9-2.7-4.5C816,338.2,823.3,336.5,829.6,338.7z"/>
		<path class="st8" d="M856.3,383c-0.6,4.8-0.7,10.5-4.9,14c-5.3,5.2-12.8,6.8-19.7,7c-7.3,0.1-14.3-1.5-20.7-4.3
			c1.1-2.2,2.4-4.2,3.8-6.2c6.3,2.4,13.3,3.8,20.3,2.2c5.6-1,10.5-4.1,15.4-7.1C852.7,387.1,854.5,385,856.3,383z"/>
		<path class="st8" d="M805,346.3c0.6,1.8,1.3,3.5,2.1,5.1c-6.2,8.5-8.1,19.7-4.7,28.9c1.4,4.3,4.5,7.6,7.7,10.6
			c-1.3,2-2.4,4.2-3.3,6.4c-6-3.5-11.1-9-12.9-16c-1.3-4.7-0.5-9.9,0.6-14.7C796.1,359.3,799.4,351.9,805,346.3z"/>
		<path class="st8" d="M824.2,422.7c7.6-2.5,15.6,0.3,21,4.9l-0.4,0.3c-2.2,1.5-4.3,3.1-6.5,4.7c-3.3-2.1-7.1-4.2-11.3-3.2
			c-3.7,0.7-6.4,3.7-8.6,6.6c-1.8-1.1-3.5-2.4-5.1-3.9C815.9,428.1,819.5,424.2,824.2,422.7z"/>
		<g>
			<path class="st8" d="M548.8,151.3c12.8,10.2,26.1,19.8,39.7,29c-3.4,1.9-6.9,3.7-10.3,5.5c-1.4,0.7-2.7,1.4-4.1,2.1
				c-4.2,2.2-8.3,4.3-12.5,6.4c-8.8,4.4-17.7,8.7-26.7,12.9c1.3-5.5,2.5-11,3.8-16.5c0.7-3,1.5-5.9,2.2-8.9
				c1.6-6.6,3.3-13.2,5.1-19.8c0.6-2.4,1.3-4.7,1.9-7.1C548.1,153.7,548.5,152.5,548.8,151.3z M554.8,175.3c-2.6-2.1-4.8-4.7-7-7.2
				c-3.8,9.6-7,19.7-7.9,29.9c11-4.4,21.8-9.4,31.8-15.9C565.7,180.8,559.6,179.1,554.8,175.3z"/>
		</g>
		<path class="st8" d="M388.6,212.4c10-0.4,20.1,0.7,28.8,5.2c-6.6,1.3-13.3,2.4-19.8,5c-11.8,4.4-22.9,12.1-29.9,22.9
			c-7.8,12.4-9.2,27.7-5.2,40.6c4.2,13.6,14.5,24.3,26.7,31.1c6.4,3.8,14.1,5.5,20.3,9.8c-10.9,5.7-22.5,9.8-34.1,13.3
			c-1.4,0.5-2.8,1.1-4.2,1.7c-5.4-0.2-10.8,0.6-15.8,3.1c-1.6,0.4-3.2,0.6-4.8,0.9c-0.3-2.6-0.1-5.3,0.3-8c7.9,1.2,16-2.1,23.1-6.1
			c0.3,0,1,0.1,1.3,0.1c0.3-0.4,0.8-1.1,1.1-1.5c1.9-1.5,5.7-2.6,5.2-5.5c-1.9-3.1-5.7-3.8-9.1-4.4c-2.7-0.8-5.4-1.9-8.4-1.9
			c-2.9-0.1-5.8,0.8-8.6,1.4c-4.8-0.3-9.4,3.2-12,7.2c-1.7,2.7-0.1,5.5,1.6,7.4c-0.6,3.4-1,6.7-0.9,10.1c-3.8-0.3-7.4-1.1-11-2
			c-1-0.3-2-0.5-2.9-0.8c-7.9-2.4-15.3-6.3-20.9-12.3c-2.4,3.6-4.4,7.4-6.7,11.1l-0.8,0.8c-0.5-2.9-0.6-6.1-2.5-8.3
			c-1.5-1.5-3.4-2.5-5.2-3.5c4-0.8,7.9-1.5,11.8-2.5c-4.5-4.5-11.8-6.1-18.1-3.1c-7.1,3.2-11,10.8-12.7,17.9c-0.3,1.3-0.6,2.7-0.9,4
			c-1.6,8.2-2.6,16.6-6.7,24.3c-0.4-0.4-1.3-1.2-1.7-1.6c4.1-8.5,4.7-17.7,6.7-26.6c0.3-1.1,0.6-2.1,0.9-3.2
			c2.1-6.6,6.1-13.4,12.7-16.6c6.3-3.4,13.9-2.6,19.1,1.2c1.2,1.1,0.5-1,0.4-1.3c-1.9-5.2-2.3-10.8-2.3-16.5c1.6-1,1.3-3,0.3-4
			c0.1-1.7,0.2-3.4,0.4-5.1L388.6,212.4z"/>
		<path class="st9" d="M712.6,113.6l28.8,28.8c-6.3,8.7-10.1,19.7-7.6,29.8c2.5,11.4,15.7,18.5,27.2,14.3
			c5.6-1.8,10.1-6.1,13.8-10.6l3.6,3.6c-15,21.8-39.1,36.9-64.2,42.4c-5.9,1.2-11.8,2.4-17.7,2.3c5-2.2,10.2-2.9,15.3-4.6
			c11.2-3.5,22.6-7.4,33.1-13.1c-6-3.8-13.1-5.7-19.3-9.1c-8.4-4.5-16-10.8-21.3-18.7c-7.3-10.4-10.3-24-7.6-37.2
			C698.4,130.7,704.5,120.9,712.6,113.6z"/>
		<path class="st9" d="M868.1,300.3c2.5-0.6,4.9-1.9,7.4-2.3c-5.8,10.4-12.2,20.6-20.1,29.8c-4.2-8.8-7-18.2-8.8-27.9
			c2.6,0.1,4.9,1.1,7.4,1.4C858.6,301.8,863.4,301.5,868.1,300.3z"/>
		<path class="st9" d="M611.1,88.9c1.3,1.8,2.6,3.6,3.9,5.5c-4.4,3.3-9,6.3-13.4,9.6c-0.6-4.3-1.2-8.7-1.4-13.1
			C603.8,90.3,607.5,89.6,611.1,88.9z"/>
		<path class="st9" d="M715.5,202.7c1.1,0.8,2.1,2.6,0.7,3.9c-4,3.8-9.1,5.8-13.9,8c-6.1,2.6-13.2,4.2-19.2,1.6
			c-2.8-1.5-5.7-4.4-5-8.1c1-3.6,4.3-6.1,7.5-7.7c4.9-2.6,10.3-1.9,15.4-1.7C706.1,199.4,711.4,199.8,715.5,202.7z"/>
		<path class="st9" d="M906.1,405.7c4.6,1,9.3,2,13.9,3c-1.3,3.9-2.6,7.7-4.1,11.5c-4.3-2.9-8.7-5.6-12.9-8.5
			C904,409.7,905,407.7,906.1,405.7z"/>
		<path class="st9" d="M805.2,312c2.7,2.2,4.9,4.9,7.5,7.1c-3,7.3-5.5,15.6-2.6,22.8c0.8,1.6,1.7,3.1,2.7,4.5
			c6.4,7.2,17.5,9.4,27.2,6.4c1.3-0.8,2.6-1.6,4-2.4c0,2.3-0.1,4.7-0.2,7c-7.1,4-15.4,6.6-23.2,5.1c-6.2-1.2-10.9-5.7-13.6-11.2
			c-0.8-1.6-1.5-3.4-2.1-5.1C802.1,335.4,800.8,323.3,805.2,312z"/>
		<path class="st9" d="M541.4,81.5c2.4-1.2,4.8-2.3,7.2-3.5c1.5,5.3,3.2,10.5,4.7,15.7c-3.1,1.1-6.2,2.2-9.3,3.3
			C542.7,92,541.9,86.7,541.4,81.5z"/>
		<path class="st9" d="M554.8,175.3c4.8,3.8,10.8,5.5,16.9,6.8c-10,6.6-20.8,11.6-31.8,15.9c0.9-10.2,4.1-20.2,7.9-29.9
			C550.1,170.6,552.3,173.1,554.8,175.3z"/>
		<g>
			<path class="st9" d="M412.9,209c12.1,4.1,21.6,13,28.6,23.2c7.3,10.6,12.2,23.4,11.6,37c-0.5,15.3-8.2,30.3-19,41.7
				c-16.2,17.4-38.3,28.7-60.9,32.5l-0.4-0.5c-0.4-0.2-1.1-0.7-1.5-1c1.4-0.6,2.8-1.2,4.2-1.7c11.6-3.5,23.2-7.6,34.1-13.3
				c-6.2-4.3-13.8-5.9-20.3-9.8c-12.1-6.8-22.5-17.5-26.7-31.1c-4.1-12.9-2.6-28.3,5.2-40.6c6.9-10.9,18.1-18.5,29.9-22.9
				c6.4-2.5,13.1-3.7,19.8-5c-8.7-4.4-18.8-5.5-28.8-5.2l6-6C400.9,205.9,407.1,207.1,412.9,209z M428.7,225.6
				c-1.3-0.9-3-1.9-4.8-1.3c-2.8,1-4.1,4-4.8,6.6c-0.8,5.9,2.8,10.9,6.5,14.8c2.9,2.7,6.4,5.3,10.6,5.7c3.3-0.3,2.9-4.5,2.3-6.7
				C436.8,237.7,434.3,230.3,428.7,225.6z M434.9,255c-7-3.9-16.5-2.4-23.2,2.9c-12.4,10-18.2,28.9-10.3,41.9
				c-3.2-0.6-6.3-1.6-9.6-1.9c-0.7,2.2-2.7,4.4-2.6,6.6c4.4,3,9,5.9,13.4,8.8c1.1-3.2,2.2-6.3,3.3-9.5c6,5,15.5,6,23,1.8
				c10.6-5.7,17.2-17.8,17.5-29.3C446.6,267.6,442.4,259,434.9,255z"/>
		</g>
		<path class="st9" d="M358.3,326.8c5.9-1.4,11.5,1.8,15.7,5.1c-7.1,3.9-15.2,7.3-23.1,6.1C351.8,333.7,353.4,328.2,358.3,326.8z"/>
		<path class="st9" d="M429,423.1c5,0.1,9.9,0.4,14.8,0.4c0.4,2.8,1.2,5.5,1.3,8.3c-5.1-0.9-10.3-1.8-15.5-2.4
			C429.3,427.3,429.2,425.2,429,423.1z"/>
		<path class="st10" d="M778.3,179.3l1.5,1.5c-8.9,12.1-20.5,22.3-33.5,29.5c-0.2,1.3-0.4,2.6-0.5,4c0-1.2,0-2.4,0-3.6
			c-12.9,7.4-27.2,11.8-41.6,13.5c-11,1.3-22.1,1.3-32.5-1.4c8.1,1.1,16.3,2.1,24.7,1.1c5.9,0.1,11.8-1,17.7-2.3
			C739.2,216.2,763.3,201.1,778.3,179.3z"/>
		<g>
			<path class="st11" d="M779.8,180.8L839,240c-10.6,4.3-21.5,7.7-32.5,10.4c-3.1,0.8-6.4,0.9-9.4,2.3c-3,0.1-6-0.3-9-0.4
				c-0.6-1.5-2.8-2.1-3.9-0.5c-12.1-2-24.4-6-32.6-15.1c-2.6,4.3-5.1,8.5-7.6,12.8c-0.2-3.1-0.2-6.5-2.3-8.8
				c-1.5-1.6-3.5-2.6-5.3-3.9c4.4-0.4,8.6-1.8,12.6-4c-2.3-5.8-3.3-12-3.3-18.3c0.1-1.3,0.3-2.7,0.5-4
				C759.3,203.1,771,192.9,779.8,180.8z M822.7,230.6c-5.8-4-13.5-4.1-20.6-4.3c-5.5-0.3-11.4,1.9-15.3,6.3
				c-1.8,1.9-2.3,4.9-1.2,7.1c1.7,3.2,5.2,5.2,8.9,5.5c5.2,0.4,10.5-0.9,15.4-3.2c4.6-2.1,9.4-4.1,13.3-7.7
				C824.6,233.2,823.7,231.5,822.7,230.6z"/>
		</g>
		<path class="st11" d="M736.8,242.4c0.5,1.1,0.8,2.2,0.8,3.4c-0.9,1.7-1.6,3.5-2.3,5.2c-0.8-0.3-1.5-0.6-2.3-0.9
			C734,247.5,735.3,244.9,736.8,242.4z"/>
		<g>
			<path class="st11" d="M614.5,197c14,8.6,28.4,16.6,43.1,24.1c-16.7,11.2-33.6,22-50.8,32.3c0.3-4.5,1-9,1.5-13.5
				c0.2-1.5,0.3-3,0.5-4.5c0.7-4.5,1.3-9,1.8-13.5c0.3-1.9,0.7-3.9,0.9-5.9c0.7-4.4,1.4-8.8,2.1-13.2c0.2-1.1,0.3-2.3,0.5-3.4
				C614.2,198.7,614.3,197.8,614.5,197z M634.5,224.2c-7-1.5-13.3-5.1-18.1-10.2c-2.9,9.8-5,20-4.8,30.1
				c10.7-5.1,20.7-11.7,30.3-18.7C639.5,224.4,636.9,224.8,634.5,224.2z"/>
		</g>
		<path class="st11" d="M429.7,203.2c4.4,0.8,8.9,1.8,12.9,3.6c-3.7,2.9-7.8,5.3-11.7,8.1c-9.1-7.4-20.9-11.7-33.1-11.6l8.8-8.8
			C413.7,198.6,421.5,201.6,429.7,203.2z"/>
		<path class="st11" d="M428.1,350.9c-4.6,15-17.4,27-31.8,32.7c-4.4,1.6-8.8,2.8-13.4,3.5c-5.8,0.6-11.6,0.4-17.1-1.1
			c0.3-1.5,0.7-3,1.1-4.5c7.9,3.1,17.3,1.3,25.3-2.5c12.6-6,22.8-16.6,30-28.5C424.1,350.5,426.1,350.7,428.1,350.9z"/>
		<path class="st11" d="M371.3,341.9c0.4,0.2,1.1,0.7,1.5,1c-4.7,3.9-10,8.2-16.2,8.3c-2.2,0.2-4-1.1-5.2-2.7c1.3-1.2,2.6-2.4,4-3.5
			C360.5,342.6,365.9,341.7,371.3,341.9z"/>
		<path class="st11" d="M347.5,354.6c1.6,1.6,3.3,3,5.2,4.2c-0.1,8.1,4.1,15.3,9.8,20.3c-0.7,1.6-1.3,3.1-1.8,4.8
			c-4.4-2.2-8-5.6-10.3-9.9C347.3,368.3,345.2,361.4,347.5,354.6z"/>
		<path class="st12" d="M839,240l2.5,2.5c-4.7,2.3-9.6,4-14.6,5.3c-3.3,0.9-6.8,1.2-9.9,3.2c-6.6,1.3-13.3,1.8-19.9,1.6
			c3-1.4,6.3-1.5,9.4-2.3C817.5,247.6,828.4,244.3,839,240z"/>
		<path class="st12" d="M531.9,239.1c5.3,0.3,10.5,0.4,15.8,0.6c0.3,2.8,1.1,5.5,1.3,8.4l-0.4,0.3c-5.5-0.8-10.9-1.8-16.3-2.5
			C532.1,243.6,532,241.3,531.9,239.1z"/>
		<path class="st13" d="M841.5,242.5l1.1,1.1c-8.3,3.3-16.9,6.1-25.6,7.4c3-2,6.5-2.3,9.9-3.2C831.9,246.5,836.8,244.8,841.5,242.5z
			"/>
		<path class="st13" d="M784.2,251.7c1.1-1.6,3.3-1,3.9,0.5C786.8,252.3,785.5,252.1,784.2,251.7z"/>
		<path class="st13" d="M463.6,137.4c3.1,3.5,5.4,7.6,6.8,12.1c-0.2,0.7-0.4,1.4-0.6,2.1c0.1,0.3,0.3,0.8,0.3,1
			c1.4,3.1,0.6,6.7,0,10c-1.8,9.1-7.5,18.4-16.3,22.6c-10.8,5.1-23.8,0.4-28.5-9.6L463.6,137.4z"/>
		<path class="st14" d="M882.6,283.6l4.3,4.3c-15.8-1.3-31.6-3-47.2-5.6c-10.3-1.6-20.5-3.7-30.7-5.9c-16.3-3.5-32.3-7.8-48.1-12.7
			c-1.1-0.3-2.2-0.7-3.3-1c-2-0.6-4.1-1.4-6.1-2c-5.6-1.8-11.2-3.8-16.8-5.7c-0.8-0.3-1.6-0.6-2.5-0.9c-0.3-0.1-0.7-0.3-1-0.4
			c-15.5-5.7-30.7-12-45.7-18.8c-9.5-4.4-18.8-8.8-28-13.6c-14.7-7.5-29.1-15.6-43.1-24.1c-8.8-5.4-17.5-11-26-16.7
			c-13.6-9.2-26.8-18.8-39.7-29c-2.5-1.9-4.9-3.9-7.3-5.8c-5.5-4.5-11-9-16.3-13.7c-8.5-7.4-16.9-15-25-22.8c0.7-0.7,2-2,2.7-2.7
			c19.6,18.4,40,36.1,61.7,52.1c1.2,0.9,2.3,1.8,3.5,2.7c0.3,0.2,0.9,0.7,1.2,0.9c16.5,12.1,33.6,23.6,51.3,34.2
			c1.1,0.6,2.2,1.3,3.3,1.9c5.3,3.2,10.7,6.3,16.1,9.3c9.8,5.2,19.3,10.8,29.5,15.2c1,0.6,2,1.2,3,1.7c19.7,9.6,39.9,18.3,60.6,25.9
			c0.8,0.3,1.5,0.6,2.3,0.9C782.3,267.9,831.7,279.6,882.6,283.6z"/>
		<path class="st16" d="M822.7,230.6c1,0.8,1.9,2.6,0.5,3.8c-3.8,3.5-8.7,5.5-13.3,7.7c-4.9,2.3-10.2,3.5-15.4,3.2
			c-3.7-0.3-7.1-2.3-8.9-5.5c-1.2-2.2-0.6-5.1,1.2-7.1c3.9-4.4,9.8-6.6,15.3-6.3C809.2,226.5,816.9,226.6,822.7,230.6z"/>
		<path class="st16" d="M634.5,224.2c2.4,0.6,5,0.3,7.3,1.1c-9.6,7-19.7,13.5-30.3,18.7c-0.2-10,2-20.2,4.8-30.1
			C621.2,219,627.5,222.7,634.5,224.2z"/>
		<path class="st16" d="M471.7,129.3c1.4,2.3,2.4,4.8,3.2,7.4c-1.5,4.3-2.9,8.6-4.4,12.8c-1.4-4.5-3.7-8.7-6.8-12.1L471.7,129.3z"/>
		<path class="st16" d="M470.1,152.6c2.1-0.8,4.2-1.6,6.4-2.4c0.1,10.6-3.4,21.3-8.6,30.8c-8.2,14.5-20.3,26.9-34.4,35.9
			c-0.9-0.8-1.7-1.5-2.6-2.3c3.9-2.7,8-5.1,11.7-8.1c-4.1-1.8-8.5-2.7-12.9-3.6c-8.2-1.6-16-4.6-23.1-8.8l18.8-18.8
			c4.7,10,17.7,14.7,28.5,9.6c8.8-4.2,14.5-13.5,16.3-22.6C470.7,159.3,471.5,155.7,470.1,152.6z"/>
		<path class="st16" d="M610.8,357.1c2.1-2,5.2-2.9,7.8-4.3c1.3,5.7,3.5,11.2,4.9,16.9c-3.4,1.1-6.7,2.3-10,3.6
			C612.5,367.9,611.6,362.5,610.8,357.1z"/>
		<path class="st16" d="M547.3,383.7c2.6,0,5.1-0.1,7.7,0c-0.5,4.8-0.9,9.5-1.3,14.3c-0.2,0-0.5,0.1-0.6,0.2c-3-3-6-6.1-9.1-9.1
			c0.9-1.7,1.8-3.4,2.7-5L547.3,383.7z"/>
		<path class="st16" d="M401.4,299.8c1.8,0.4,3.6,0.8,5.5,1.2c-0.3,1-0.6,1.9-0.9,2.8c-1.1,3.2-2.3,6.3-3.3,9.5
			c-4.5-3-9-5.8-13.4-8.8c-0.1-2.2,1.9-4.4,2.6-6.6C395,298.2,398.2,299.2,401.4,299.8z"/>
		<path class="st16" d="M372.5,320.6c2.4,1.7,4.6,3.7,6.1,6.3c-0.8,1.2-1.5,2.4-2.3,3.6c-0.3,0.4-0.8,1.1-1.1,1.5
			c-0.3,0-1-0.1-1.3-0.1c-4.3-3.4-9.8-6.6-15.7-5.1c-4.8,1.5-6.5,6.9-7.3,11.2c-0.4,2.6-0.6,5.3-0.3,8c0.2,0.9,0.5,1.7,0.8,2.6
			c1.2,1.6,3,2.9,5.2,2.7c6.2-0.2,11.5-4.5,16.2-8.3l0.4,0.5l0.5,0.7c0.6,1.8,2.2,3.6,1.9,5.6c-5.2,7.1-14.8,12.6-23,9.1
			c-1.9-1.1-3.6-2.6-5.2-4.2c-1.7-3-2.8-6.3-3.3-9.8c-0.1-3.4,0.2-6.7,0.9-10.1c1.3-5.9,5.1-11.3,10.4-14.6c2.9-0.7,5.7-1.6,8.6-1.4
			C367,318.8,369.8,319.8,372.5,320.6z"/>
		<path class="st17" d="M905.7,338.6c5,1.2,10,2,15,3.4c-1.5,4.1-2.9,8.1-4.3,12.2c-4.6-3.1-9.3-6-13.8-9.1
			C903.6,342.9,904.7,340.7,905.7,338.6z"/>
		<path class="st17" d="M793.3,283.8c-0.9,2.9-3.5,5-5.3,7.5c-5.7,7-12,13.6-18.5,19.8c-2.9-9.5-4.3-19.5-4.2-29.6
			C773.6,285.7,783.8,287.1,793.3,283.8z"/>
		<g>
			<path class="st17" d="M650,247.8c9.9-0.5,19.5,3.6,25.7,10.9c3.7,3.8,5.7,8.8,8.6,13.2c0,6.4-0.3,12.9,0,19.3
				c0.6-0.5,1.8-1.4,2.4-1.8c-0.5,7.9-4,15.7-9.3,22c-8.4,9.9-20.1,16.7-32.2,20.1c-1.5,0.4-2.8,1.1-4.2,1.8
				c-7.2,1.5-14.5,1.7-21.5,0.9c3.6-1.1,7.3-0.9,11-1.6c7.5-1.2,15-3.3,22.4-5.6c0.8-0.3,1.8-0.5,2.2-1.3
				c-4.6-3.4-10.2-5.4-14.5-9.3c-5.9-5-10.4-11.7-11.9-19.5c-1.8-8.8,0.4-18.8,6.5-26.3c5.2-6.4,12.9-10.2,20.5-12.1
				c3.8-1,7.8-1.1,11.7-1.7c-11.5-7.2-27-5.9-39.9,0.1c-5.3,2.3-9.9,5.9-14.9,9c1.1-1.4,2.3-2.8,3.7-3.9
				C626.1,254.1,637.9,248.3,650,247.8z M669.5,262.3c-3.7,3.7-1.7,9.1,0.8,12.3c2,2.4,4.6,5.6,8.3,4.7c1-5.2-0.6-10.4-3-14.7
				C674.6,262.5,671.8,259.8,669.5,262.3z M674.8,280.9c-4.4-2.5-10.3-1.5-14.5,1.6c-6.6,4.9-10.7,13.4-9.6,21.1
				c0.9,7.1,8.2,12,15.4,10.7c7.7-1.7,13.6-8.9,15.3-16.3C683,291.5,680.7,284,674.8,280.9z"/>
		</g>
		<path class="st17" d="M743.2,348.7c1.8,1.8,3.5,3.6,5.3,5.3c-5,5.1-10.2,10.2-15.2,15.3c-0.6-3-1.6-5.9-2-8.9
			C735.4,356.6,739.2,352.5,743.2,348.7z"/>
		<path class="st17" d="M489.4,119.7c5.1,5.8,12.3,9.3,20,10.7c-10.6,5.8-21.6,10.7-33,14.4c0.9-5.4,2.4-10.7,4-16
			c1.8-4.4,3.5-8.9,5.2-13.3l0.5-0.5C487,116.7,488.1,118.3,489.4,119.7z"/>
		<path class="st17" d="M683.1,328.6c3.9-0.6,7.9-1.3,11.8-2.2c1.5,1.9,2.8,4,4.1,6c-4.7,3.4-9.6,6.6-14.2,10.1
			C683.9,338,683.5,333.3,683.1,328.6z"/>
		<path class="st17" d="M507.7,189c1.8,5.5,3.4,11.1,5.1,16.7c-3.3,1.4-6.8,2.4-10.1,3.7c-1.1-5.4-1.8-10.9-2.8-16.4
			C502.5,191.6,505.1,190.3,507.7,189z"/>
		<path class="st17" d="M625,317.6c4.8,0.8,10.8,1,13.4,5.6c-4.4,3.9-10.3,5.5-15.8,6.2c-4.1,0.5-9.6-1.5-9.2-6.3
			C614.8,318.3,620.8,316.9,625,317.6z"/>
		<path class="st17" d="M486,325.5c5.3-0.2,10.6,0.3,15.9,0.4c0.5,2.9,1,5.9,1.6,8.8c-5.7-0.7-11.4-1.7-17-2.6
			C486.4,329.8,486.3,327.6,486,325.5z"/>
		<path class="st17" d="M446.1,340.8c0.4,3,0.5,6.1,0.5,9.1c-2.5,1.4-4.9,2.9-7.4,4.4c-1.2-2.4-2.3-4.8-3.5-7.1
			C439.1,345,442.6,343,446.1,340.8z"/>
		<path class="st17" d="M278.5,343.4c5,1.1,10,2,15,3.3c-1.5,4-2.9,8.1-4.4,12.1c-2.7-1.7-5.3-3.4-8-5.1c-1.2-0.8-2.5-1.6-3.7-2.3
			c-0.7-0.5-1.3-0.9-2-1.4c0.1-0.3,0.3-1,0.3-1.4c0.5-0.9,0.9-1.8,1.4-2.7C277.6,345.1,278,344.3,278.5,343.4z"/>
		<g>
			<path class="st19" d="M760.9,263.6c15.8,4.9,31.8,9.2,48.1,12.7c-13.7,14.8-28,29.1-42.8,42.9c-1.8-15.1-3.5-30.2-4.6-45.5
				c-0.1-0.9-0.1-1.8-0.2-2.6C761.2,268.6,761,266.1,760.9,263.6z M793.3,283.8c-9.5,3.2-19.7,1.9-28.1-2.4
				c-0.1,10.1,1.4,20.2,4.2,29.6c6.6-6.2,12.9-12.7,18.5-19.8C789.8,288.9,792.4,286.7,793.3,283.8z"/>
		</g>
		<g>
			<path class="st19" d="M627.5,256.6c12.8-6,28.3-7.2,39.9-0.1c-3.9,0.6-7.8,0.7-11.7,1.7c-7.7,1.9-15.3,5.8-20.5,12.1
				c-6.1,7.5-8.3,17.5-6.5,26.3c1.5,7.8,6,14.5,11.9,19.5c4.3,3.9,9.8,5.9,14.5,9.3c-0.4,0.9-1.4,1-2.2,1.3
				c-7.4,2.4-14.8,4.4-22.4,5.6c-3.7,0.7-7.4,0.5-11,1.6c-10.3-1.1-20.6-5.1-27.1-13c0.8-0.2,1.5-0.4,2.3-0.6
				c-1-0.4-2.1-0.8-3.1-1.3c-3.8-11.3,0-24.2,5.7-35c1.8-2.2,3.4-4.5,4.8-6.8c2.8-4.4,6.7-8,10.4-11.7
				C617.5,262.5,622.2,258.9,627.5,256.6z M625,317.6c-4.2-0.6-10.1,0.8-11.6,5.5c-0.4,4.8,5.2,6.8,9.2,6.3
				c5.5-0.6,11.4-2.3,15.8-6.2C635.8,318.6,629.7,318.4,625,317.6z"/>
		</g>
		<path class="st19" d="M500.1,108.9c8.1,7.9,16.5,15.4,25,22.9c-4.9,2.1-9.8,4-14.8,5.9c-3.5,1.3-7,2.7-10.4,4.3
			c-6.7,2.4-13.3,4.9-20,7.2c-1.1,0.4-2.3,0.8-3.4,1.2c-2.1,0.7-4.3,1.5-6.4,2.4c-0.1-0.3-0.3-0.8-0.3-1c0.2-0.7,0.4-1.4,0.6-2.1
			c1.5-4.3,3-8.5,4.4-12.8c0.6-1.7,1.2-3.4,2.2-4.9c1.1-1,2.2-2,3.2-2.9c-1.6,5.3-3.1,10.6-4,16c11.4-3.6,22.4-8.6,33-14.4
			c-7.7-1.4-14.9-4.9-20-10.7C492.9,116.1,496.5,112.5,500.1,108.9z"/>
		<path class="st19" d="M361.6,408.7c0.6,0.8,1,1.8,1.2,2.9C360.9,412.2,360,409.8,361.6,408.7z"/>
		<path class="st20" d="M456.9,242.9c3.1,3.8,5.9,7.9,8.9,11.7c-2.2-0.4-4.5-0.6-6.5-1.4c-2.3-2.2-4-4.9-6.2-7.2
			c-0.5-0.8-1.1-1.6-1.6-2.4c-0.1-0.3-0.2-0.8-0.3-1C453.1,242.7,455,242.8,456.9,242.9z"/>
		<path class="st20" d="M422.4,344.4c3.2,0.6,4,4.2,5.6,6.5c-2-0.2-4-0.4-6-0.5c-12.8-0.9-26.6,0.7-38.3,7.9
			c-8.4,5.2-14.3,13.9-17,23.2c-0.4,1.5-0.8,3-1.1,4.5c-1,5.4-1.6,11-0.6,16.4c0.2,1.3,0.6,2.6,0.9,3.8c1.6,4.3,4.9,7.9,9.3,9.4
			c7.5,2.7,16,1.2,23.8-1.2c0,3.1,1.2,6.2,0.5,9.2c-7.3,3.4-15.9,4.3-23,1.3c-6.2-2.5-10.5-7.8-13.9-13.3c-0.2-1.1-0.6-2-1.2-2.9
			c-3.9-7.4-3.5-16.6-1-24.9c0.5-1.6,1.1-3.2,1.8-4.8c5.6-12.7,15.6-23.8,27.8-30.6C400.2,342.9,412.2,340.8,422.4,344.4z"/>
		<path class="st22" d="M735.1,237.1c0.5-0.1,1-0.3,1.4-0.4c1.8,1.3,3.7,2.3,5.3,3.9c2.1,2.4,2.1,5.8,2.3,8.8l-0.4,0.8
			c-2.2-1.2-4-2.9-5.5-4.9l-0.5,0.4c0-1.2-0.4-2.3-0.8-3.4C736.1,240.7,735.3,239,735.1,237.1z"/>
		<g>
			<path class="st81" d="M751.5,260.6c2,0.6,4.1,1.4,6.1,2c-6.2,0.1-12.3,1.9-18.3,3.3c6.3,4,14.1,7.8,22.1,5.3
				c0.1,0.9,0.1,1.8,0.2,2.6c-9.2,2.3-18-1.8-24.9-6.7c-1.8-0.3-3.7,1.3-5.3,2.3c-3.3,2.3-3.3,6.6-2,9.7c1.6,4.7,6.7,6.4,9.6,10.1
				c4.3,4.9,4,13.5-1.2,18.6c-2.2,2.5-5.3,3.8-8.3,4.8c-0.1-0.9-0.2-1.7-0.3-2.6c6.2-1.2,11.3-7.6,10.2-13.7
				c-0.6-6.9-8.1-9-11.3-14.1c-1.8-3.2-2.8-7.4-1-11.1c1.4-3.1,4.7-4.7,7.5-6.2c-1.8-3.2-2.6-7-2.3-10.8c0.8,0.3,1.6,0.6,2.5,0.9
				c-0.1,3.3,0.8,6.3,2.3,9C741.8,262.5,746.7,261.8,751.5,260.6z"/>
		</g>
		<path class="st23" d="M828,378.1c10.1-2,20,0.5,29,4.1c-0.2,0.2-0.5,0.6-0.7,0.8c-1.8,2-3.6,4-5.8,5.6c-6.4-3.9-14.2-6.5-22.1-4.4
			c-5.4,1.3-10.2,4.9-13.6,9.4c-1.4,2-2.7,4-3.8,6.2c-4.8,10.7-4.9,23.8,2.3,32.4c1.5,1.5,3.2,2.8,5.1,3.9c6.3,3.1,14.2,0.8,20-3.4
			c2.2-1.6,4.3-3.2,6.5-4.7c-0.9,3.1-1.3,6.5-2.8,9.5c-2.9,3.9-7.4,6.7-12.1,7.5c-5.1,0.9-10.2-0.2-14.6-2.4c-1.7-1-3.2-2.1-4.7-3.4
			c-6.9-6-10-15.6-8.6-25.1c0.9-5.7,2.3-11.3,4.6-16.7c1-2.2,2.1-4.3,3.3-6.4C814.1,384.5,820.7,379.5,828,378.1z"/>
		<path class="st23" d="M763.5,377.6c1.6,1.7,3.2,3.3,4.9,4.9c-4.7,4.7-9.5,9.5-14.2,14.2c-0.7-2.7-1.4-5.4-2-8.1
			C756.1,385.1,759.6,381.1,763.5,377.6z"/>
		<path class="st23" d="M671.9,402c4.6,1,9.2,2,13.8,3c-1.2,3.9-2.4,7.8-4.1,11.5c-4.2-2.8-8.4-5.6-12.7-8.2
			C669.7,406.1,670.7,404,671.9,402z"/>
		<path class="st23" d="M355.8,464.9c0.4,2.7,0.4,5.5,0.6,8.3c-2.3,1.5-4.7,3.1-7.2,4.3c-1-2.2-2-4.4-3.2-6.5
			C349.2,468.7,352.6,466.9,355.8,464.9z"/>
		<g>
			<path class="st82" d="M661.6,247.2c10.3,2.6,17.8,10.8,22.6,19.8c0,1.6,0,3.3,0,4.9c-2.9-4.4-4.9-9.4-8.6-13.2
				c-6.2-7.2-15.7-11.4-25.7-10.9c-12.1,0.4-23.8,6.3-33.6,13.9c-1.5,1-2.6,2.4-3.7,3.9c-3.7,3.7-7.6,7.3-10.4,11.7
				c-1.5,2.4-3.1,4.6-4.8,6.8c5.8-10.4,13.6-20.1,23.6-26.8C632.8,248.9,648,243.6,661.6,247.2z"/>
		</g>
		<path class="st25" d="M669.5,262.3c2.3-2.5,5.1,0.2,6.2,2.2c2.3,4.3,3.9,9.5,3,14.7c-3.7,0.9-6.3-2.3-8.3-4.7
			C667.8,271.4,665.8,266,669.5,262.3z"/>
		<path class="st25" d="M689.1,287.5c-0.3,11.1-6.5,21.8-15,29.4c-9.4,8.3-21.1,14.2-33.2,16.3c1.4-0.6,2.7-1.3,4.2-1.8
			c12.1-3.4,23.8-10.1,32.2-20.1c5.3-6.3,8.8-14.1,9.3-22C687.3,288.9,688.5,287.9,689.1,287.5z"/>
		<path class="st25" d="M674.8,280.9c5.9,3,8.2,10.5,6.6,17.1c-1.7,7.4-7.6,14.6-15.3,16.3c-7.2,1.3-14.5-3.6-15.4-10.7
			c-1.1-7.8,3-16.2,9.6-21.1C664.5,279.4,670.4,278.5,674.8,280.9z"/>
		<g>
			<path class="st83" d="M614,199.5c-0.2,1.1-0.4,2.2-0.5,3.4c-3.7,3.6-3.4,9-2.1,13.2c-0.2,2-0.6,3.9-0.9,5.9
				c-1.1-3.9-2.3-7.9-2.2-12C608.4,205.9,610.6,201.9,614,199.5z"/>
		</g>
		<path class="st27" d="M525.1,131.8c5.3,4.7,10.9,9.1,16.3,13.7c-9.4-4.9-20-8-31.1-7.8C515.3,135.8,520.2,133.8,525.1,131.8z"/>
		<path class="st28" d="M541.4,145.5c2.4,1.9,4.9,3.9,7.3,5.8c-0.3,1.2-0.6,2.4-1,3.6c-8.9-6.1-18.8-11.2-29.8-12.7
			c-5.9-1-12-0.6-18-0.2c3.4-1.6,6.9-2.9,10.4-4.3C521.4,137.5,532,140.6,541.4,145.5z"/>
		<g>
			<path class="st29" d="M518,142.2c11.1,1.5,20.9,6.6,29.8,12.7c-0.6,2.4-1.3,4.7-1.9,7.1c-3.3-2.3-6.7-6.2-11.4-4.7
				c-3.7,1.8-4.8,6.5-4.5,10.1c0.9,6.4,5.9,10.9,10.8,14.4c-0.7,3-1.4,5.9-2.2,8.9c-9.2,3-16.3,11.2-19.8,20.1
				c-4.4,10.8-4.8,23.4,0.7,33c6.6,11.5,23.8,15.3,35.8,7.1c14-9.8,19.9-29.2,14.7-44.1c-1.7-4.9-5-8.8-8.6-12.4
				c4.2-2.1,8.3-4.2,12.5-6.4c5.5,12.7,6.1,27.7,2.1,41.8c-4.8,16.5-14.8,31.5-27.3,43.7c-13.8,13.9-30.7,24.3-48.8,30.8
				c-5,1.8-10.1,3.5-15.3,4.3c4.2-2.9,9-4.4,13.5-6.6c14-6.7,27.7-14.4,40.4-23.6c-7-3.4-15.1-3.8-22.5-6
				c-14.8-4.3-28.6-12.5-37.6-24.9c-9.1-12.6-13-29.4-9-45.6c2.4-10.3,8.2-19.9,15.9-27.6c11-11.2,25.2-18.3,39.6-23
				c-9.2-2.8-19.4-2.9-29.2-1.1c-5.5,0.9-10.8,3-16.2,4.5c0.2-1.8,0.3-3.7,0.5-5.5c6.7-2.3,13.4-4.8,20-7.2
				C506,141.6,512.1,141.2,518,142.2z M507.7,189c-2.6,1.3-5.2,2.6-7.8,3.9c1,5.5,1.7,11,2.8,16.4c3.4-1.2,6.8-2.3,10.1-3.7
				C511.1,200.2,509.4,194.6,507.7,189z"/>
		</g>
		<g>
			<path class="st84" d="M578.1,185.8c1.6,4.6,3.1,9.3,3.8,14.3c1.8,11.8-0.1,24.3-4.7,35.8c-0.3,0.8-0.6,1.6-1,2.3
				c-10.5,23.7-30.2,43.2-52.4,56.3c-21.5,12.1-46,19.1-69.8,17.9c3.8-0.7,7.5-0.4,11.3-0.7c6.5-0.4,13-1.4,19.4-3.2
				c5.2-0.8,10.3-2.5,15.3-4.3c18.1-6.4,35-16.9,48.8-30.8c12.4-12.2,22.5-27.2,27.3-43.7c4.1-14,3.4-29-2.1-41.8
				C575.4,187.3,576.8,186.5,578.1,185.8z"/>
		</g>
		<path class="st31" d="M534.5,157.3c4.7-1.4,8.1,2.4,11.4,4.7c-1.7,6.6-3.4,13.2-5.1,19.8c-5-3.4-10-7.9-10.8-14.4
			C529.7,163.8,530.8,159.1,534.5,157.3z"/>
		<g>
			<path class="st31" d="M561.5,194.3c3.5,3.6,6.9,7.5,8.6,12.4c5.2,14.9-0.6,34.3-14.7,44.1c-12,8.2-29.1,4.4-35.8-7.1
				c-5.6-9.6-5.1-22.2-0.7-33c3.5-8.8,10.5-17.1,19.8-20.1c-1.3,5.5-2.5,11-3.8,16.5C543.8,203,552.7,198.8,561.5,194.3z
				 M531.9,239.1c0,2.3,0.2,4.5,0.4,6.8c5.5,0.8,10.9,1.8,16.3,2.5l0.4-0.3c-0.2-2.9-1-5.5-1.3-8.4
				C542.5,239.5,537.2,239.4,531.9,239.1z"/>
		</g>
		<path class="st31" d="M502.2,279.7c1.6,0.6,3.5,1.9,3.2,3.9c-1.4,2.7-4,4.6-6.3,6.6c-7.2,5.6-15.1,11.1-24,12.5
			c-5.4,1-11.2-0.6-14.1-5.1c-1.4-2.3-0.8-5.4,0.7-7.7c3.5-5.4,9.4-9,15.6-10C485.5,278.5,494.3,277.2,502.2,279.7z"/>
		<g>
			<path class="st85" d="M818.4,461c6.6,5.1,16,4.3,24.3,3.6c-0.3,1.9-0.6,3.8-0.9,5.7c-8.7,1.3-18.3,1.2-25.1-4.1
				c-7.6-6.2-8.1-17.6-5.8-27.1c1.5,1.3,3,2.4,4.7,3.4C814.1,448.8,813.1,456.7,818.4,461z"/>
		</g>
		<g>
			<path class="st32" d="M495.7,150.1c9.8-1.8,20-1.7,29.2,1.1c-14.4,4.7-28.6,11.8-39.6,23c-7.6,7.7-13.5,17.3-15.9,27.6
				c-4,16.1,0,33,9,45.6c9,12.5,22.8,20.6,37.6,24.9c7.4,2.2,15.6,2.6,22.5,6c-12.7,9.2-26.3,16.9-40.4,23.6
				c-4.5,2.3-9.3,3.8-13.5,6.6c-6.4,1.9-12.9,2.8-19.4,3.2c-3.8,0.3-7.5,0-11.3,0.7c-5.6,0-11-1-16.3-2.3c8.7-9.8,15.7-21.5,18-34.2
				c2-10.2,0.8-20.6-2.7-29.9c2.2,2.3,3.9,5,6.2,7.2c2.1,0.8,4.3,1,6.5,1.4c-3.1-3.8-5.9-7.9-8.9-11.7c-1.9-0.1-3.7-0.2-5.6-0.3
				c-0.3-1.3-0.7-2.6-1.3-3.8c-4-7.8-9.2-15-15.5-21c14.1-9,26.6-21.3,35.3-35.6c5.1-8.5,8.6-18,9.7-27.6
				C484.9,153.1,490.2,151,495.7,150.1z M502.2,279.7c-7.9-2.5-16.7-1.2-25,0.2c-6.1,0.9-12.1,4.6-15.6,10c-1.5,2.3-2.1,5.4-0.7,7.7
				c2.9,4.5,8.7,6,14.1,5.1c8.9-1.5,16.8-7,24-12.5c2.3-2,4.9-3.9,6.3-6.6C505.7,281.6,503.8,280.3,502.2,279.7z"/>
		</g>
		<g>
			<g>
				<path class="st86" d="M608.8,235.4c-0.2,1.5-0.3,3-0.5,4.5c-3.4,3.5-7.8,6.5-12.7,6.4c-4.6,0.2-8.2-3.1-10-6.9
					c-3.1-0.5-6.2-0.9-9.3-1.3c0.3-0.8,0.7-1.6,1-2.3c2.5,0.4,5.1,0.8,7.6,1.1c0.4-2.4,0.5-5,2.4-6.8c2-2.4,5.9-3.5,8.2-1.5
					c1.7,1.8,1.5,4.8,0,7c-1.6,2.6-4.8,3.2-7.3,4.3c2.2,2.1,4.7,4.6,8.1,4.2C601.6,244,605.8,239.7,608.8,235.4z M592.6,229.8
					c-3.7-0.1-6.1,4.4-5.1,7.5c2.3-0.6,5.1-0.8,6.3-3.2C594.6,232.6,594.7,229.9,592.6,229.8z"/>
			</g>
		</g>
		<g>
			<path class="st87" d="M485.5,115.5c-1.6,4.5-3.4,8.9-5.2,13.4c-1.1,1-2.2,2-3.2,2.9c-0.7-1.9-1.5-3.8-2.1-5.8L485.5,115.5z"/>
		</g>
		<path class="st35" d="M474.9,126.1c0.6,1.9,1.4,3.8,2.1,5.8c-1,1.5-1.6,3.2-2.2,4.9c-0.7-2.6-1.8-5.1-3.2-7.4L474.9,126.1z"/>
		<path class="st36" d="M476.5,150.3c1.1-0.4,2.2-0.8,3.4-1.2c-0.1,1.8-0.3,3.7-0.5,5.5c-1.1,9.6-4.7,19.1-9.7,27.6
			c-8.7,14.4-21.1,26.6-35.3,35.6c-0.2-0.2-0.7-0.6-0.9-0.8c14-9,26.1-21.4,34.4-35.9C473.1,171.5,476.6,160.9,476.5,150.3z"/>
		<g>
			<path class="st38" d="M582.4,309.6c3.8,1.9,6.5,5.2,8.3,9c0.2,0.1,0.7,0.3,1,0.4c1,0.4,2.1,0.8,3.1,1.3c-0.8,0.2-1.5,0.4-2.3,0.6
				c-1.8,2.4-3.7,4.8-5.4,7.3c0.1-1.8,0.2-3.8-0.5-5.4c-0.7-1.7-2.6-2.3-4.1-3.2c1.8-0.1,3.7-0.2,5.5-0.4c-3-8-12.6-10.5-20.8-9.2
				c-8.9,1.2-16.3,7.8-21.5,15c-11.2,15.4-13.9,34.5-24.8,50c-9.6,13.9-26.2,23.4-42.5,23.2c-5,2.8-10.4,5.2-16.1,5.2
				c-17.3,0.8-31.1-10.5-48-11.2c1.2,3.7,1.6,8-0.6,11.8c-3.5,7.2-14.9,7.6-18.1,1c-1.6-3.6,0.1-8.3,3.3-10.8
				c2.9-2.6,6.6-3.7,10.2-4.6c-4.1-3.3-9.8-4.2-15.3-3.2c-11.3,1.8-21.6,9.5-27.5,19.5c-0.4-1.3-0.7-2.5-0.9-3.8
				c4.9-6.2,10.8-11.6,17.7-15.3c4.5-0.8,9-1.9,13.4-3.5c6-0.3,12.3,1.3,16,6c12,0.2,22.5,5.3,33.4,8.8c8.9,2.9,19.3,4.3,28.5-0.7
				c-4.6-1.6-9.3-4-11.1-8.7c-3.1-6.4-1.3-16.2,6.1-19.8c8.4-3.8,17.2,3.2,18.3,11.3c0.9,5.5-2.2,10.9-6,15.1
				c14.8-0.8,29.3-10,37.7-22.6c6.9-10.5,10.5-22.4,15.5-33.7c4.6-10.1,10.6-20.4,20.1-26.8C563,306.6,574,305.5,582.4,309.6z
				 M477.5,371.6c-3.4-1.6-8.2-0.8-10.7,2.6c-2.9,3.8-3.1,8.9-1.6,12.9c1.8,5.1,7.2,7.8,12.4,8.2c3.8-3,6.9-7.4,7.2-12.2
				C484.9,378.1,481.9,373.5,477.5,371.6z M410.7,392.4c-3.6,0.6-7.3,1.5-10.3,3.9c-2.6,2-4,5.8-2.3,8.5c2.8,3.3,8.7,3.4,12,0
				C413,401,412.8,396,410.7,392.4z"/>
		</g>
		<path class="st40" d="M582.3,319.8c1.5,0.9,3.4,1.4,4.1,3.2c0.8,1.6,0.6,3.5,0.5,5.4l-0.4,0.6C584,326.7,582,323.5,582.3,319.8z"
			/>
		<path class="st43" d="M430.9,214.8c0.9,0.8,1.8,1.5,2.6,2.3c0.2,0.2,0.7,0.6,0.9,0.8c6.4,6,11.5,13.2,15.5,21
			c0.6,1.2,1,2.4,1.3,3.8c0.1,0.3,0.2,0.8,0.3,1c0.5,0.8,1,1.6,1.6,2.4c3.4,9.3,4.7,19.7,2.7,29.9c-2.3,12.7-9.3,24.4-18,34.2
			c-17,18.1-40.2,30.6-64.1,34l-0.5-0.7c22.6-3.8,44.8-15.1,60.9-32.5c10.9-11.4,18.6-26.4,19-41.7c0.6-13.6-4.4-26.4-11.6-37
			c-7-10.3-16.5-19.2-28.6-23.2c-5.8-1.9-12-3.1-18.3-2.6l3.2-3.2C410,203.1,421.8,207.3,430.9,214.8z"/>
		<path class="st44" d="M428.7,225.6c5.6,4.7,8.1,12.2,9.9,19.2c0.5,2.1,0.9,6.3-2.3,6.7c-4.2-0.4-7.7-2.9-10.6-5.7
			c-3.7-3.9-7.3-8.9-6.5-14.8c0.6-2.6,2-5.7,4.8-6.6C425.7,223.7,427.4,224.6,428.7,225.6z"/>
		<path class="st44" d="M434.9,255c7.5,4.1,11.8,12.6,11.5,21.4c-0.3,11.5-6.9,23.6-17.5,29.3c-7.5,4.2-17,3.2-23-1.8
			c0.3-1,0.6-1.9,0.9-2.8c-1.8-0.4-3.6-0.8-5.5-1.2c-7.9-13-2.1-31.9,10.3-41.9C418.3,252.6,427.9,251.1,434.9,255z"/>
		<g>
			<path class="st88" d="M372.5,320.6c3.4,0.6,7.2,1.3,9.1,4.4c0.5,2.9-3.4,3.9-5.2,5.5c0.8-1.2,1.5-2.4,2.3-3.6
				C377.1,324.4,374.9,322.4,372.5,320.6z"/>
		</g>
		<g>
			<path class="st89" d="M343.4,327.3c2.6-4,7.3-7.5,12-7.2c-5.3,3.3-9,8.7-10.4,14.6C343.3,332.9,341.7,330.1,343.4,327.3z"/>
		</g>
		<g>
			<path class="st90" d="M300.9,300.1c0.5,3.3,0.9,6.9-0.9,10.1c-3.8,7-12,10.6-19.4,10.2l2.2-2.2c5.7-0.5,12.1-3,15-8.6
				c1.5-2.4,1.3-5.1,1.2-7.6L300.9,300.1z"/>
		</g>
		<path class="st47" d="M330.3,342c1,0.3,1.9,0.5,2.9,0.8c-1.8,8-2.7,16.2-3.9,24.2c-2.3,15.8-5.6,32.2-15.4,45.8
			c-6,8.6-15.2,14.8-25,17.7c0.1-1,0.3-2,0.4-2.9c9.8-2.9,18.6-9.7,24-18.5c8.9-13.9,11.5-30.1,13.7-45.7
			C328,356.3,329.4,349.2,330.3,342z"/>
		<path class="st49" d="M294.2,329.8c1.9,1,3.8,2,5.2,3.5c2,2.2,2.1,5.4,2.5,8.3l0.8-0.8c-0.5,0.8-0.9,1.6-1.4,2.3
			c-5.1-2.4-7.3-7.9-8.5-13.1C293.2,330,293.8,329.8,294.2,329.8z"/>
		<g>
			<path class="st91" d="M270.3,330.7c1,2.8,2.1,5.6,3.4,8.3c-0.3,1-0.6,2.1-0.9,3.2c-1.6-3.1-3.1-6.3-4.3-9.7L270.3,330.7z"/>
		</g>
		<g>
			<path class="st92" d="M277.5,351.4c1.2,0.8,2.5,1.6,3.7,2.3c2,5.5,4.2,11,4.6,17c0.6,6.5-1,13.3-4.1,19.3
				c-0.4-0.8-0.9-1.6-1.3-2.4c3.1-6.7,4-14.2,2.4-21C281.7,361.3,279.3,356.5,277.5,351.4z"/>
		</g>
	</g>
</g>
<g id="Слой_2" class="st0">
</g>
</svg>
