<?xml version="1.0" encoding="utf-8"?>
<!-- Generator: Adobe Illustrator 23.0.0, SVG Export Plug-In . SVG Version: 6.00 Build 0)  -->
<svg version="1.1" id="Слой_1" xmlns="http://www.w3.org/2000/svg" xmlns:xlink="http://www.w3.org/1999/xlink" x="0px" y="0px"
	 viewBox="0 0 1000 1000" style="enable-background:new 0 0 1000 1000;" xml:space="preserve">
<style type="text/css">
	.st0{fill:#FF626D;}
</style>
<g>
	<path class="st0" d="M10,354.7c0-7.5,4-13.8,12.1-19.1s17.6-7.9,28.6-7.9s20.8,2.5,29.3,7.5L502.5,609L920,334.4
		c7.6-5,17.2-7.5,28.6-7.5c11.5,0,21.2,2.5,29.3,7.5c8.1,5,12.1,11.2,12.1,18.7s-4.2,13.7-12.7,18.7L531.8,664.7
		c-7.6,5.5-17,8.3-28,8.3s-20.8-2.5-29.3-7.5v-0.8h-1.3l-1.3-0.8L22.6,373.5C14.3,368.4,10,362.2,10,354.7z"/>
</g>
</svg>
