<?xml version="1.0" encoding="utf-8"?>
<!-- Generator: Adobe Illustrator 23.0.0, SVG Export Plug-In . SVG Version: 6.00 Build 0)  -->
<svg version="1.1" id="Слой_1" xmlns="http://www.w3.org/2000/svg" xmlns:xlink="http://www.w3.org/1999/xlink" x="0px" y="0px"
	 viewBox="0 0 1000 1000" style="enable-background:new 0 0 1000 1000;" xml:space="preserve">
<style type="text/css">
	.st0{fill:#FF626D;}
</style>
<g>
	<path class="st0" d="M990,645.2c0,7.5-4,13.8-12.1,19.1s-17.6,7.9-28.6,7.9s-20.8-2.5-29.3-7.5L497.5,390.9L80,665.5
		c-7.6,5-17.2,7.5-28.6,7.5c-11.5,0-21.2-2.5-29.3-7.5S10,654.3,10,646.8s4.2-13.7,12.7-18.7l445.5-292.9c7.6-5.5,17-8.3,28-8.3
		s20.8,2.5,29.3,7.5v0.8h1.3l1.3,0.8l449.3,290.4C985.7,631.5,990,637.7,990,645.2z"/>
</g>
</svg>
