<?xml version="1.0" encoding="utf-8"?>
<!-- Generator: Adobe Illustrator 23.0.0, SVG Export Plug-In . SVG Version: 6.00 Build 0)  -->
<svg version="1.1" id="Слой_1" xmlns="http://www.w3.org/2000/svg" xmlns:xlink="http://www.w3.org/1999/xlink" x="0px" y="0px"
	 viewBox="0 0 1275.6 1275.6" style="enable-background:new 0 0 1275.6 1275.6;" xml:space="preserve">
<style type="text/css">
	.Стиль_x0020_графики{fill:none;}
	.st0{display:none;}
	.st1{display:inline;}
	.st2{clip-path:url(#SVGID_2_);fill:url(#SVGID_3_);}
	.st3{opacity:0.58;}
	.st4{fill:#4E0C73;}
	.st5{display:inline;fill:#4E0C73;}
	.st6{fill:#FFFFFF;stroke:#F24294;stroke-width:10;stroke-miterlimit:10;}
	.st7{display:none;fill:#4E0C73;enable-background:new    ;}
	.st8{font-family:'ADAM.CGPRO';}
	.st9{font-size:200px;}
	.st10{display:inline;fill:#9EB81D;}
	.st11{fill:#9EB81D;}
	.st12{fill:#C6D031;}
	.st13{display:inline;fill:#C6D031;}
	.st14{display:inline;fill:#E2E654;}
	.st15{fill:#E2E654;}
	.st16{fill:#43285F;}
	.st17{display:inline;fill:#F02A53;}
	.st18{display:inline;fill:#F6E678;}
	.st19{display:inline;fill:#E3E754;}
	.st20{display:inline;fill:#F8C533;}
	.st21{display:inline;fill:#26ADCD;}
	.st22{display:inline;fill:#F8C532;}
	.st23{display:inline;fill:#6DC8DB;}
	.st24{fill:#1F7CB6;}
	.st25{display:inline;fill:#37A6CB;}
	.st26{fill:#165CA7;}
	.st27{display:inline;fill:#F02954;}
	.st28{fill:#25ADCD;}
	.st29{fill:#DD305D;}
	.st30{fill:#4F385E;}
	.st31{fill:#5C821A;}
	.st32{fill:#59C0D9;}
	.st33{fill:#AACB1F;}
	.st34{fill:#DE305D;}
	.st35{fill:#26ADCD;}
	.st36{fill:#164976;}
	.st37{fill:#F7EA3C;}
	.st38{fill:#F88E4D;}
	.st39{fill:#F98E4D;}
	.st40{fill:#F8EB3C;}
	.st41{fill:#F78D4E;}
	.st42{fill:#F88D4E;}
	.st43{fill:#F9C72F;}
	.st44{display:inline;fill:#F4536A;}
	.st45{fill:#C6113A;}
	.st46{fill:#F02A53;}
	.st47{fill:#F4536A;}
	.st48{display:inline;fill:#F37F94;}
	.st49{display:inline;fill:#C8D133;}
	.st50{fill:#E3E755;}
	.st51{display:inline;fill:#F47F93;}
	.st52{display:inline;fill:#F12952;}
	.st53{display:inline;fill:#C6113A;}
	.st54{display:inline;fill:#F484A6;}
	.st55{fill:#F79410;}
	.st56{display:inline;fill:#F79410;}
	.st57{display:inline;fill:#FFFFFF;}
	.st58{fill:#1A9FC4;}
	.st59{display:inline;fill:#1A9FC4;}
	.st60{display:inline;fill:#CC4A1F;}
	.st61{fill:#F8A00F;}
	.st62{fill:#7BCDDC;}
	.st63{fill:#DB1536;}
	.st64{display:inline;fill:#9CB71C;}
	.st65{display:inline;fill:#53B9D5;}
	.st66{fill:#55B9D5;}
	.st67{fill:#37A6CB;}
	.st68{fill:#C51139;}
	.st69{fill:#D31437;}
	.st70{fill:#9FB91D;}
	.st71{display:inline;fill:#F6E97E;}
	.st72{display:inline;fill:#F6EC79;}
	.st73{fill:#17A3C6;}
	.st74{display:inline;fill:#174879;}
	.st75{fill:#F22B54;}
	.st76{fill:#F12854;}
	.st77{fill:#ABCF1E;}
	.st78{display:inline;fill:#175EA8;}
	.st79{display:inline;fill:#730D39;}
	.st80{fill:#ABCF1F;}
	.st81{fill:#9DB71D;}
	.st82{display:none;fill:none;stroke:#000000;stroke-width:2;stroke-miterlimit:10;}
	.st83{clip-path:url(#SVGID_5_);fill:url(#SVGID_6_);}
	.st84{display:none;fill:#FFFFFF;stroke:#F24294;stroke-width:3;stroke-miterlimit:10;}
	.st85{fill:#A67EAE;stroke:#F24294;stroke-width:3;stroke-miterlimit:10;}
	.st86{fill:none;}
	.st87{fill:#4E1586;stroke:#2F0E49;stroke-miterlimit:10;}
	.st88{fill:#FAF418;}
	.st89{fill:#4E0E73;}
	.st90{fill:#F4120C;}
	.st91{font-size:172px;}
	.st92{fill:#C21957;}
	.st93{fill:#E02066;}
	.st94{fill:#EC5D80;}
	.st95{fill:#323740;}
	.st96{fill:#F0782D;}
	.st97{fill:#F5AE44;}
	.st98{fill:#F6CF72;}
	.st99{fill:#219C9C;}
	.st100{fill:#26A8AF;}
	.st101{fill:#68C1D7;}
	.st102{fill:#2089BD;}
	.st103{fill:#3FACCF;}
	.st104{fill:#F8DA34;}
	.st105{fill:#B1D3D7;}
	.st106{fill:#EE5E41;}
	.st107{fill:#D3422C;}
	.st108{fill:#EF795C;}
</style>
<g id="Background" class="st0">
	<g>
		<g class="st1">
			<defs>
				<polyline id="SVGID_1_" points="1241.4,35.5 1241.4,1238.5 34.3,1241.9 34.3,35.8 				"/>
			</defs>
			<clipPath id="SVGID_2_">
				<use xlink:href="#SVGID_1_"  style="overflow:visible;"/>
			</clipPath>
			
				<radialGradient id="SVGID_3_" cx="-1040.6709" cy="684.3201" r="1248.5139" gradientTransform="matrix(1 0 0 -1 853.7069 899.1687)" gradientUnits="userSpaceOnUse">
				<stop  offset="2.874510e-02" style="stop-color:#79358A"/>
				<stop  offset="0.5942" style="stop-color:#4E1157"/>
				<stop  offset="0.9107" style="stop-color:#3A0B40"/>
			</radialGradient>
			<path class="st2" d="M469.5-110.1H-737.6v1206.4H469.5c0-0.2,0-0.5,0-0.7V966.2c-0.1-2-0.1-4.1,0-6.2v-22.3c-0.1-2-0.1-4,0-6
				c-0.1-2-0.1-4,0-6V158.5c-0.1-2-0.1-4,0-6V-110.1z"/>
		</g>
		<g>
			<g class="st3">
				<g class="st1">
					<polygon class="st4" points="34.3,42 40.8,35.5 34.6,35.5 34.3,35.8 					"/>
					<g>
						<polygon class="st4" points="34.3,188.2 187,35.5 180.7,35.5 34.3,181.9 						"/>
					</g>
				</g>
				<g class="st1">
					<polygon class="st4" points="34.3,115.1 113.9,35.5 107.7,35.5 34.3,108.9 					"/>
				</g>
				<g class="st1">
					<polygon class="st4" points="34.3,260.9 259.7,35.5 253.8,35.5 34.3,255 					"/>
				</g>
				<g class="st1">
					<polygon class="st4" points="34.3,334 332.8,35.5 326.6,35.5 34.3,327.7 					"/>
				</g>
				<g class="st1">
					<polygon class="st4" points="34.3,407 405.9,35.5 399.6,35.5 34.3,400.8 					"/>
				</g>
				<g class="st1">
					<polygon class="st4" points="34.3,480.1 478.9,35.5 472.7,35.5 34.3,473.9 					"/>
				</g>
				<g class="st1">
					<polygon class="st4" points="34.3,553.2 552,35.5 545.8,35.5 34.3,547 					"/>
				</g>
				<g class="st1">
					<polygon class="st4" points="34.3,626.3 625.1,35.5 618.9,35.5 34.3,620 					"/>
				</g>
				<g class="st1">
					<polygon class="st4" points="34.3,699.2 698.1,35.5 691.9,35.5 34.3,693.1 					"/>
				</g>
				<g class="st1">
					<polygon class="st4" points="34.3,772.3 771,35.5 765,35.5 34.3,766 					"/>
				</g>
				<g class="st1">
					<polygon class="st4" points="34.3,845.2 844,35.5 837.8,35.5 34.3,839.1 					"/>
				</g>
				<g class="st1">
					<polygon class="st4" points="34.3,918.2 917.1,35.5 910.8,35.5 34.3,912 					"/>
				</g>
				<g class="st1">
					<polygon class="st4" points="34.3,991.3 990.1,35.5 983.9,35.5 34.3,985.1 					"/>
				</g>
				<g class="st1">
					<polygon class="st4" points="34.3,1064.4 1063.2,35.5 1057,35.5 34.3,1058.2 					"/>
				</g>
				<g class="st1">
					<polygon class="st4" points="34.3,1137.5 1136.3,35.5 1130.1,35.5 34.3,1131.2 					"/>
				</g>
				<g class="st1">
					<polygon class="st4" points="34.3,1210.5 1209.1,35.5 1203.1,35.5 34.3,1204.3 					"/>
				</g>
				<g class="st1">
					<polygon class="st4" points="148.8,1241.9 1241.4,149.2 1241.4,143.1 142.8,1241.9 					"/>
				</g>
				<g class="st1">
					<polygon class="st4" points="221.8,1241.9 1241.4,222.3 1241.4,216.1 215.6,1241.9 					"/>
				</g>
				<g class="st1">
					<polygon class="st4" points="294.9,1241.9 1241.4,295.4 1241.4,289.2 288.7,1241.9 					"/>
				</g>
				<g class="st1">
					<polygon class="st4" points="368,1241.9 1241.4,368.5 1241.4,362.2 361.8,1241.9 					"/>
				</g>
				<g class="st1">
					<polygon class="st4" points="441.1,1241.9 1241.4,441.5 1241.4,435.3 434.8,1241.9 					"/>
				</g>
				<g class="st1">
					<polygon class="st4" points="514.1,1241.9 1241.4,514.6 1241.4,508.4 507.9,1241.9 					"/>
				</g>
				<g class="st1">
					<polygon class="st4" points="586.9,1241.9 1241.4,587.5 1241.4,581.5 581,1241.9 					"/>
				</g>
				<g>
					<polygon class="st5" points="660,1241.9 1241.4,660.4 1241.4,654.4 653.8,1241.9 					"/>
				</g>
				<g>
					<polygon class="st5" points="733,1241.9 1241.4,733.5 1241.4,727.3 726.8,1241.9 					"/>
				</g>
				<g>
					<polygon class="st5" points="806.1,1241.9 1241.4,806.6 1241.4,800.4 799.9,1241.9 					"/>
				</g>
				<g>
					<polygon class="st5" points="879.2,1241.9 1241.4,879.7 1241.4,873.4 873,1241.9 					"/>
				</g>
				<g>
					<polygon class="st5" points="952.3,1241.9 1241.4,952.7 1241.4,946.5 946,1241.9 					"/>
				</g>
				<g>
					<polygon class="st5" points="1025.3,1241.9 1241.4,1025.8 1241.4,1019.6 1019.1,1241.9 					"/>
				</g>
				<g>
					<polygon class="st5" points="1098.1,1241.9 1241.4,1098.6 1241.4,1092.7 1092.2,1241.9 					"/>
				</g>
				<g>
					<polygon class="st4" points="70.9,1241.9 1241.4,71.1 1241.4,65.2 64.7,1241.9 					"/>
					<polygon class="st4" points="1171.1,1241.9 1241.4,1171.6 1241.4,1165.4 1164.9,1241.9 					"/>
				</g>
				<g>
					<path class="st4" d="M1241.4,1241.9c0-0.2,0-0.5,0-0.7v-2.7l-3.4,3.4H1241.4z"/>
				</g>
			</g>
		</g>
	</g>
</g>
<g class="st0">
	
		<rect x="-463.4" y="16.7" transform="matrix(0.7071 -0.7071 0.7071 0.7071 -323.0073 100.8663)" class="st6" width="847.3" height="847.3"/>
</g>
<text transform="matrix(1 0 0 1 64.7169 713.7103)" class="st7 st8 st9">ШАРОДУВЫ</text>
<g id="Слой_4" class="st0">
	<path class="st10" d="M1059.3,792.3c2.9,4.9,5.3,10.2,6.8,15.7l-10.6,10.6C1057.2,809.9,1058.8,801.2,1059.3,792.3z"/>
	<g class="st1">
		<path class="st11" d="M990.8,863.2c6.9,1,13.8,0.1,20.7-0.6l-63,63c-0.6-3.4-1.5-6.8-2.3-10.1c-6.1-0.3-12.1-0.9-18.2-1.3
			c0.2,2.5,0.5,5.1,0.7,7.7c6.5,1.4,13,2.4,19.4,4.1l-6.6,6.6c-2.4-0.9-4.7-2.1-7.3-2.4c1.5,1.7,3.1,3.3,4.7,4.9l-1.9,1.9
			c-0.9-1-1.8-1.9-2.7-2.9c-0.2,2-0.4,4.1-0.6,6.2L931,943c-3.3-4.9-9.3-5.9-14.8-5.8c5.2-3,10.3-6.3,15.4-9.5
			c-12.9-10.8-19.8-27.1-23.2-43.2c0.3-3.5,0-7-1.8-10c-0.6-3.3-0.8-6.7-0.9-10c2.8-2.6,2.6-6.6,3.3-10.1c2.8-17.7,7.8-35,14.1-51.7
			c4.7,5.5,7.5,12.2,10.8,18.5c4.6,8.5,10.3,16.4,17.6,22.8c0.2,1.4,0.3,2.9,0.5,4.3c2.2,0.4,4.3,0.8,6.5,1.3
			C967.3,857.5,979.1,861.7,990.8,863.2z M929.2,837.9c-2.8-1.2-4.2,2.4-5.5,4.3c-4.4,8.6-8.2,18-8.2,27.8
			c0.1,5.6,2.3,11.8,7.3,14.7c2.8,1.8,6.8,1.9,9.3-0.5c4.7-4.3,7.2-10.8,6.7-17.1c-0.5-7.1-1.3-14.4-4-21.1
			C933.6,842.9,932.3,839.3,929.2,837.9z"/>
	</g>
	<g class="st1">
		<path class="st12" d="M1039.4,763c14.3,9.3,27.4,22.3,32.7,39l-6,6c-1.4-5.5-3.8-10.8-6.8-15.7c-0.5,8.9-2.2,17.6-3.8,26.3l-44,44
			c-6.9,0.8-13.8,1.7-20.7,0.6c-11.7-1.5-23.5-5.7-32.3-13.7c4.4,0.8,8.8,1.7,13.1,2.6c-0.6-3.4-1.4-6.8-2-10.2
			c-6.1-0.6-12.3-1.1-18.5-1.4c0.1,1.1,0.3,2.2,0.4,3.3c-7.3-6.4-13-14.3-17.6-22.8c-3.4-6.3-6.1-13.1-10.8-18.5
			c-6.3,16.8-11.3,34-14.1,51.7c-0.6,3.5-0.4,7.5-3.3,10.1c-0.3-5.1-0.4-10.3,0.2-15.4c1.3-2.1,1.7-4.7,0.6-7
			c0.1-1.6,0.3-3.3,0.6-4.9c2.6-3.4,2.6-7.9,3.7-11.8c5-19.1,14.6-37.2,28-51.7c12.2-12.9,28.2-23,46.1-25.1
			C1004.3,745.8,1023.5,752.6,1039.4,763z M1043.7,774.3c-6.8-4.4-14.6-7.1-22.5-8.4c-2.8-0.7-7.4,0.7-6.1,4.4c2.3,7,8,12.4,14,16.4
			c4.9,3.1,11.5,5.3,17,2.2c2.6-1.4,5.3-4.2,4.3-7.3C1048.9,778.4,1046.2,776.2,1043.7,774.3z M1001.3,761.6
			c-15.7-10.1-37.8-4.2-49.1,9.8c-5.3,6.4-7.9,15.3-5.9,23.5c1.9,7,5.9,13.6,12.1,17.5c6.7,4.5,15.3,5.5,23.1,4.3
			c9.2-1.7,18.2-5.8,24.6-12.8c5.4-5.5,8.9-13.2,8.4-21C1014.1,774.1,1008.7,766.1,1001.3,761.6z"/>
	</g>
	<path class="st13" d="M929.2,837.9c3.2,1.4,4.4,5,5.7,8c2.6,6.7,3.4,14,4,21.1c0.5,6.3-2,12.9-6.7,17.1c-2.5,2.4-6.5,2.3-9.3,0.5
		c-5.1-3-7.2-9.1-7.3-14.7c0-9.8,3.7-19.2,8.2-27.8C925,840.3,926.3,836.7,929.2,837.9z"/>
	<path class="st14" d="M1043.7,774.3c2.6,2,5.3,4.2,6.6,7.3c1.1,3.2-1.7,5.9-4.3,7.3c-5.4,3.1-12.1,0.8-17-2.2
		c-6-4-11.7-9.4-14-16.4c-1.3-3.7,3.3-5.1,6.1-4.4C1029,767.2,1036.9,769.9,1043.7,774.3z"/>
	<g class="st1">
		<path class="st15" d="M1001.3,761.6c7.4,4.5,12.8,12.5,13.2,21.3c0.5,7.8-3,15.5-8.4,21c-6.3,7-15.4,11.1-24.6,12.8
			c-7.9,1.2-16.4,0.3-23.1-4.3c-6.1-4-10.2-10.6-12.1-17.5c-2-8.2,0.6-17.1,5.9-23.5C963.5,757.4,985.6,751.5,1001.3,761.6z
			 M976.2,799.8c0,2.4,0.3,4.8,0.5,7.2c6.1,1.4,12.2,2.4,18.3,3.8c-0.3-3.2-1.2-6.3-1.8-9.5C987.6,800.6,981.9,800.5,976.2,799.8z"
			/>
	</g>
	<path class="st14" d="M906.7,874.4c1.7,3,2.1,6.6,1.8,10C907.7,881.1,907.2,877.8,906.7,874.4z"/>
	<g class="st1">
		<path class="st16" d="M934.5,934c0.9,0.9,1.8,1.9,2.7,2.9l-3.3,3.3C934.2,938.1,934.3,936,934.5,934z"/>
	</g>
	<path class="st17" d="M729.9,1014.3c4.3-0.5,8.6-1.2,12.9-1.8c1.5,2.2,3,4.4,4.5,6.7c-5.1,3.4-9.9,7-15.1,10.2
		C731.5,1024.3,730.6,1019.3,729.9,1014.3z"/>
	<path class="st17" d="M616.5,1003.2c5.3,1.5,10.6,2.9,16,4.1c-1,4.5-2.5,8.9-4,13.2c-5.1-3.4-10-6.9-15.2-10.2
		C614,1007.8,615.1,1005.4,616.5,1003.2z"/>
	<path class="st18" d="M906.6,842c1.1,2.3,0.7,4.8-0.6,7C906.1,846.7,906.3,844.4,906.6,842z"/>
	<path class="st19" d="M1075.6,798.5l-3.5,3.5c-5.3-16.7-18.3-29.6-32.7-39c-15.9-10.4-35.2-17.2-54.4-14.5
		c-17.8,2.2-33.9,12.2-46.1,25.1c-13.5,14.5-23,32.6-28,51.7c-1.2,4-1.1,8.4-3.7,11.8c3.4-24.3,14.2-47.7,30.7-65.9
		c12.7-14.2,30-25.1,49.3-27.2c1.1-0.1,2.3-0.2,3.4-0.3c15.3-1,30.6,3.5,43.9,10.8c0.9,0.5,1.8,1,2.7,1.5"/>
	<path class="st19" d="M1037.2,756c7.3,4.4,14.3,9.4,20.5,15.4c0.5,0.5,1.5,1.6,2.1,2.1c6.8,7.2,12.4,15.6,15.9,25"/>
	<path class="st20" d="M832.3,988.4c5.7,1.2,11.3,3.1,17,4.2c-1.3,4.7-2.7,9.5-4.5,14.1c-5.4-3.7-10.7-7.4-16.2-10.9
		C829.8,993.4,830.3,990.3,832.3,988.4z"/>
	<path class="st20" d="M712.6,1047.8c5.8,1.5,11.6,3,17.5,4.5c-1.3,4.6-3,9.2-4.2,13.8c-5.8-3.2-10.8-7.5-16.6-10.7
		C710.2,1052.7,711.4,1050.3,712.6,1047.8z"/>
	<path class="st20" d="M586.5,1136.8c2.2,6.6,4.5,13.1,6.7,19.7c-3.9,1.2-7.7,2.6-11.7,3.5c-1-6.3-2.6-12.4-3.7-18.7
		C580.1,1139.2,583.7,1138.4,586.5,1136.8z"/>
	<path class="st21" d="M961.2,713.7c1.7,2.3,3.4,4.7,4.9,7.2c-5.4,3.5-10.8,7.2-16,10.9c-0.8-5.3-1.8-10.6-2.5-16
		C952,714.7,956.7,714.6,961.2,713.7z"/>
	<path class="st21" d="M664,1065.2c6,1.1,11.8,3,17.7,4.3c-1.6,4.6-2.9,9.4-4.5,14c-5.4-3.8-11-7.3-16.3-11.2
		C661.9,1070,663,1067.6,664,1065.2z"/>
	<path class="st21" d="M678.9,1141.4c1.5,2.4,3.1,4.7,4.6,7.1c-5.5,3.4-10.6,7.6-16.2,10.7c-0.6-5.4-1.7-10.7-2.3-16
		C669.6,1142.8,674.2,1141.8,678.9,1141.4z"/>
	<path class="st21" d="M645,1178.7c1.5,3,1.5,6.7,2.6,10c-6.6-0.6-13-2.6-19.6-3.6c-0.3-2.6-0.7-5.2-0.9-7.8
		C633.1,1177.7,639.1,1178.1,645,1178.7z"/>
	<path class="st22" d="M860.7,822.9c3-1.3,5.9-2.8,8.9-4.1c2,6.6,4.4,13,6.6,19.6c-3.8,1.4-7.7,2.4-11.5,3.8
		C863.1,835.8,861.9,829.3,860.7,822.9z"/>
	<path class="st17" d="M541.9,1100.4c5.5,1.5,11.1,2.6,16.4,4.4c-1.5,4.2-2.7,8.6-4.2,12.9c-5.1-3.5-10.1-6.9-15.3-10.3"/>
	<path class="st23" d="M790.5,937.7c0.2,0.6,0.7,1.7,0.9,2.3c-0.6,6.9,0.7,13.8,1.9,20.6C791.1,953.2,790.3,945.4,790.5,937.7z"/>
	<g class="st1">
		<path class="st24" d="M873.1,889.3c9.7,7.1,15.9,18.8,16.3,30.8c0.4,16-7.1,31.4-17.7,43c2.5-5.6,6.5-10.3,8.6-16.1
			c6.1-14.3,7.2-31.9-1.5-45.4c-1.1,4.5-0.7,9.2-1.9,13.6c-2.3,10.6-8.5,20.9-18.4,25.8c-13.9,7.1-31.6,3.4-42.7-7.3
			c-7.2-6-11.2-14.6-16.4-22.3c-3.7,7.8-4.6,16.5-6.4,24.8c-0.5,1.3-1,2.5-1.6,3.7c-0.2-0.6-0.7-1.7-0.9-2.3c0-0.3,0-0.8,0-1
			c1.7-5.4,1.4-11.2,3.3-16.6c5-17.3,16.1-34.4,33.6-40.9C843,873.4,860.5,879.3,873.1,889.3z M869.8,891.6c-3.9-2.8-8.7-4.1-13.4-5
			c-1.7-0.3-4.3-0.6-5,1.6c0.4,3.8,3.7,6.4,6.5,8.8c3.7,2.9,9.6,5,13.6,1.5C874.2,896.4,872,892.9,869.8,891.6z M847.7,888.1
			c-2.7-2.6-6.1-4.6-9.8-5.4c-10.4-2.1-22,4.1-25.7,14.1c-3.2,8.8,3.2,19.2,12.2,21c10,2,21-3.4,25.7-12.5
			C853.1,899.8,852,892.6,847.7,888.1z"/>
	</g>
	<path class="st25" d="M869.8,891.6c2.3,1.3,4.4,4.8,1.7,6.8c-4,3.5-9.9,1.4-13.6-1.5c-2.8-2.3-6-4.9-6.5-8.8c0.7-2.2,3.3-1.8,5-1.6
		C861.1,887.5,865.9,888.8,869.8,891.6z"/>
	<path class="st25" d="M847.7,888.1c4.3,4.5,5.4,11.7,2.5,17.2c-4.6,9.1-15.7,14.4-25.7,12.5c-9-1.8-15.4-12.2-12.2-21
		c3.7-10,15.3-16.2,25.7-14.1C841.7,883.5,845.1,885.4,847.7,888.1z"/>
	<path class="st25" d="M804,931.8c3,2.2,4,6.1,5,9.5c1.1,4.8,2.5,10.2-0.1,14.8c-1,2.3-3.6,4.7-6.4,3.8c-3.6-1.2-5.6-5-5.8-8.6
		c-0.5-6,1.6-11.8,4-17.2C801.3,932.9,802.4,930.7,804,931.8z"/>
	<g class="st1">
		<path class="st26" d="M878.8,901.6c8.7,13.5,7.7,31.1,1.5,45.4c-2.1,5.8-6.1,10.5-8.6,16.1c-9.1,10.9-22,17.8-35.2,22.5
			c-6.7,2.3-13.9,2.2-20.9,1.8c9.1,8.4,13.3,22,9.5,33.9c-2.7,8.8-9.8,15.3-17.6,19.7c-13.5,7.9-30.3,10.3-41.5,22
			c-6,5.7-8.1,14.7-6,22.6c3.8-3.5,9.1-6.5,14.3-4.7c5,1.6,7.6,7,6.9,12l-5.3,5.3c-6.3,1.7-12.6-1.1-16.7-5.9
			c-4.3,8.2-7,17.7-4.2,26.8l-2.4,2.4c-4.2-10.8-0.8-22.9,5-32.4c-1.4-5-2.3-10.3-1-15.5c1.8-8.9,8.8-15.7,16.4-20.2
			c14-8.5,31.8-10.8,43.3-23.2c11.7-12.2,7.6-34-6.2-42.8c-0.3,2.3-0.5,4.7-0.6,7c-2.7-2.5-6-4.3-9.7-4.3c2.6-2,5.2-3.8,7.8-5.7
			c-7.2-6.1-12.3-14.5-14.5-23.7c-1.2-6.8-2.5-13.7-1.9-20.6c0.6-1.2,1.2-2.4,1.6-3.7c1.8-8.3,2.7-17,6.4-24.8
			c5.2,7.6,9.1,16.3,16.4,22.3c11.1,10.6,28.8,14.3,42.7,7.3c10-4.9,16.1-15.2,18.4-25.8C878.1,910.8,877.7,906.1,878.8,901.6z
			 M804,931.8c-1.6-1.1-2.7,1-3.4,2.3c-2.4,5.3-4.5,11.2-4,17.2c0.3,3.6,2.3,7.4,5.8,8.6c2.8,0.9,5.3-1.4,6.4-3.8
			c2.6-4.6,1.2-10,0.1-14.8C808,937.9,807,934,804,931.8z M773.6,1084c-4.7-1.8-9.4,1.5-12.3,4.9c2.8,4.9,9.3,8.3,14.6,5.3
			C780,1091.8,777.7,1085.2,773.6,1084z"/>
	</g>
	<path class="st27" d="M976.2,799.8c5.7,0.7,11.4,0.8,17.1,1.5c0.5,3.2,1.4,6.3,1.8,9.5c-6.1-1.3-12.3-2.4-18.3-3.8
		C976.5,804.6,976.2,802.2,976.2,799.8z"/>
	<g class="st1">
		<path class="st28" d="M951.2,840.5c6.2,0.2,12.3,0.8,18.5,1.4c0.7,3.4,1.4,6.8,2,10.2c-4.4-0.9-8.8-1.8-13.1-2.6
			c-2.2-0.5-4.3-0.9-6.5-1.3c-0.2-1.5-0.3-2.9-0.5-4.3C951.4,842.8,951.3,841.6,951.2,840.5z"/>
	</g>
	<g class="st1">
		<path class="st29" d="M946.3,915.4c0.8,3.4,1.7,6.7,2.3,10.1l-0.3,0.3c-6.4-1.7-13-2.7-19.4-4.1c-0.2-2.6-0.5-5.1-0.7-7.7
			C934.1,914.5,940.2,915.1,946.3,915.4z"/>
	</g>
	<g class="st1">
		<path class="st30" d="M934.4,930c2.6,0.2,4.9,1.4,7.3,2.4l-2.5,2.5C937.5,933.3,935.9,931.7,934.4,930z"/>
	</g>
	<g class="st1">
		<path class="st31" d="M916.2,937.2c5.5-0.1,11.5,0.9,14.8,5.8l-3.8,3.8C923.1,944.6,917,942.4,916.2,937.2z"/>
	</g>
	<g class="st1">
		<path class="st32" d="M843.6,874.4c9.8,0.6,19.1,4.5,27.2,9.9c8.9,5.9,16.4,14.7,19.1,25.2c3.5,13.1,0.1,27.2-6.3,38.9
			c-9.7,18.2-27.4,31.7-47.2,37.2c13.2-4.7,26.1-11.6,35.2-22.5c10.6-11.6,18.1-27,17.7-43c-0.4-12.1-6.5-23.7-16.3-30.8
			c-12.6-10-30.1-15.9-45.7-10.1c-17.5,6.5-28.6,23.6-33.6,40.9c-1.8,5.4-1.6,11.2-3.3,16.6c0.3-19.2,8.5-38.4,22.8-51.3
			C821.5,878.1,832.5,873.6,843.6,874.4z"/>
	</g>
	<g class="st1">
		<g>
			<path class="st33" d="M895.7,956.4c2.1-3,7.1-5.3,10.1-2.3c3.9,3.3,2.3,8.9,1,13.1l-11.2,11.2c-8.5,4.9-18.6,6.6-26.9,12
				c-6,3.8-10.6,10.7-9.7,18c0.4,1.5-1.8,2-2.5,0.7c-1.4-7.5,3-14.9,8.8-19.5c9-7,20.8-8.4,30.3-14.4
				C892.6,969.6,891.6,961.9,895.7,956.4z M899.7,956.3c-5.5,4.1-4.8,12.2-1.8,17.6c4.5-3.8,8.7-9.4,7.7-15.6
				C905.3,955.3,901.6,954.5,899.7,956.3z"/>
		</g>
	</g>
	<g class="st1">
		<path class="st34" d="M763.7,849.2c4.6-0.4,9.2-1.4,13.8-1.8c1.5,2.3,3,4.6,4.6,6.9c-5.2,3.8-10.6,7.3-15.9,11
			C765.1,860,764.1,854.6,763.7,849.2z"/>
	</g>
	<g class="st1">
		<path class="st35" d="M757.3,931.5c4-2.2,8-4.5,12-6.8c0.2,3.5,0.7,7,0.9,10.5c-2.8,1.5-5.5,3.1-8.2,4.8
			C760.3,937.3,758.8,934.4,757.3,931.5z"/>
	</g>
	<g class="st1">
		<path class="st36" d="M809.6,994.3c0,0.5-0.1,1.5-0.1,2c-3.9-0.5-7.7-2.2-10.3-5.2l0.7-1C803.7,990,806.9,991.8,809.6,994.3z"/>
	</g>
	<g class="st1">
		<path class="st37" d="M733.3,964.6c14.2,0.4,26.9,11.7,29.6,25.5c2.2,8.7-0.6,17.4-1.2,26.1c-0.9,10.7-1.6,21.8,1.9,32
			c-1.5,1.7-3,3.2-4.5,4.8c-4.2-10.5-6.5-22-5.8-33.4c0.3-7.2,2.9-14.1,3.9-21.2c1-7.4-2.8-14.5-7.3-20.1
			c-4.1-5.1-10.5-8.6-17.2-8.2c-7.3,0.3-13.8,4.6-19,9.5c-1.5,1.5-3,3.1-4.4,4.8c-1.6,2.9-3.1,6.8-0.9,9.9c3,3.6,7.9,4.6,12.2,5.5
			c1.1,0.2,2.2,0.4,3.3,0.7c-0.9,1.5-1.7,3.1-2.6,4.6c-7.7,1.5-16.4-2.8-19.2-10.2c-1.7-4.3-0.6-9.2,1.4-13.2
			c1.2-1.9,2.6-3.7,4.1-5.4C713.9,969.1,723.4,964.1,733.3,964.6z"/>
	</g>
	<g class="st1">
		<path class="st38" d="M709.2,984.6c1.4-1.7,2.9-3.3,4.4-4.8c6.3,5.2,10.7,12.4,12.7,20.3c-1.7,1.8-3.4,3.5-5.1,5.2
			c0.9-1.5,1.8-3.1,2.6-4.6c-1.1-0.3-2.2-0.5-3.3-0.7c-2-5.9-4.8-11.9-9.9-15.7C710.3,984.4,709.6,984.6,709.2,984.6z"/>
	</g>
	<g class="st1">
		<path class="st39" d="M693.4,979.2c4-3.2,9.3-4.1,14.2-2.8c-1.5,1.7-2.9,3.5-4.1,5.4c-5.5,0.4-11.2,2.7-14,7.7
			c-1.5,2.7-3.1,5.7-2.8,8.9c-1.9-0.4-3.8-0.6-5.8-0.7C682.7,990.3,687.5,983.9,693.4,979.2z"/>
	</g>
	<g class="st1">
		<path class="st40" d="M686.7,998.4c10.1,2.2,19,10.9,20.3,21.3c-1.5,1.3-3,2.8-4.4,4.2c-0.5-1.8-1-3.5-1.6-5.2
			c-3-6.8-7.7-13.8-15.4-15.7c-2-0.3-4.1-0.5-6.1-0.4c-6.6,1-13,4-17.9,8.4c-5.7,5.2-8.2,13.1-7.6,20.6c0.2,2.1,0.5,4.2,0.9,6.3
			c1.3,5.6,3.7,11,8,14.9c4.1,4.1,9.7,6.2,15.4,7l1.8,0.3c-1.8,1.7-3.2,4.8-6.1,4.6c-4.3,0.2-8.3-1.9-11.6-4.5
			c-6.3-5.3-10.7-12.8-12.6-20.8c-0.6-2.4-1-4.8-1.2-7.3c-0.5-8.1,2.2-16.4,7.8-22.3c6.4-6.8,15-12.2,24.6-12.3
			C682.8,997.8,684.8,998,686.7,998.4z"/>
	</g>
	<g class="st1">
		<path class="st41" d="M701,1018.8c0.6,1.7,1.1,3.4,1.6,5.2c-6.7,0.5-14.3-0.7-18.9-6.1c-3.6-4.2-4.4-9.8-4.2-15.2
			c2-0.1,4.1,0.1,6.1,0.4c0.4,4.1-0.5,9.4,3.3,12.1C692.5,1017.4,696.8,1018.7,701,1018.8z"/>
	</g>
	<g class="st1">
		<path class="st42" d="M654,1031.7c7.6-0.4,15.9,0.4,22.3,4.9c7,5,8.1,15,5.2,22.6c-0.4,0.3-1.1,0.8-1.5,1.1l-1.8-0.3
			c1-5,1.5-10.8-1.9-15c-5-6.5-13.9-7.6-21.5-6.9C654.5,1035.9,654.2,1033.8,654,1031.7z"/>
		<path class="st42" d="M648.5,1032.3c0.2,2.4,0.6,4.9,1.2,7.3c-3.5-0.1-6.6,1.9-9.7,3.2c-10.2,4.6-17.2,14.3-28.2,17.4
			c-10.3,3.5-21.8,0.4-30.1-6.4c1.7-3.3,4.4-6.1,6.5-9.1c4.8,8.2,15.5,10.5,24.3,8.6c8.5-1.8,14.4-8.7,21.1-13.7
			C638,1036.1,643.1,1033.7,648.5,1032.3z"/>
	</g>
	<g class="st1">
		<path class="st43" d="M611.7,1090.3c1.2,1.2,2.5,2.4,3.7,3.7c-0.8,3.2-1.5,6.4-2.2,9.6c-2.4-2.5-4.9-4.9-7.3-7.4
			C607.8,1094.2,609.8,1092.2,611.7,1090.3z"/>
	</g>
</g>
<g id="Слой_5" class="st0">
	<path class="st44" d="M232.4,810.7c-2.9,4.9-5.4,10.2-6.8,15.7l10.6,10.6C234.6,828.3,232.9,819.5,232.4,810.7z"/>
	<g class="st1">
		<path class="st45" d="M333.2,867.9c2.1-0.5,4.3-0.9,6.5-1.3c0.2-1.5,0.3-2.9,0.5-4.3c7.3-6.4,13-14.3,17.6-22.8
			c3.4-6.3,6.1-13.1,10.8-18.5c6.3,16.8,11.3,34,14.1,51.7c0.6,3.5,0.4,7.5,3.3,10.1c-0.1,3.3-0.3,6.7-0.9,10c-1.7,3-2.1,6.6-1.8,10
			c-3.4,16.1-10.3,32.4-23.2,43.2c5.1,3.3,10.1,6.5,15.4,9.5c-5.5-0.1-11.5,0.9-14.8,5.8l-2.9-2.9c-0.3-2.1-0.4-4.1-0.6-6.2
			c-0.9,0.9-1.8,1.9-2.7,2.9l-1.9-1.9c1.6-1.6,3.2-3.2,4.7-4.9c-2.6,0.2-4.9,1.4-7.3,2.4l-6.6-6.6c6.4-1.7,13-2.7,19.4-4.1
			c0.2-2.6,0.5-5.1,0.7-7.7c-6,0.4-12.1,1-18.2,1.3c-0.8,3.4-1.6,6.7-2.3,10.1l-63-63c6.9,0.8,13.8,1.7,20.7,0.6
			C312.6,880,324.4,875.9,333.2,867.9z M356.8,864.3c-2.6,6.7-3.4,14-4,21.1c-0.5,6.3,2,12.9,6.7,17.1c2.5,2.4,6.5,2.3,9.3,0.5
			c5.1-3,7.2-9.1,7.4-14.7c0-9.8-3.7-19.2-8.2-27.8c-1.3-1.8-2.6-5.5-5.5-4.3C359.4,857.7,358.1,861.3,356.8,864.3z"/>
	</g>
	<g class="st1">
		<path class="st46" d="M306.6,766.9c17.9,2.2,33.9,12.2,46.1,25.1c13.5,14.5,23,32.6,28,51.7c1.2,4,1.1,8.4,3.7,11.8
			c0.3,1.6,0.5,3.2,0.6,4.9c-1.1,2.3-0.7,4.8,0.6,7c0.6,5.1,0.5,10.3,0.2,15.4c-2.8-2.6-2.6-6.6-3.3-10.1
			c-2.8-17.7-7.8-35-14.1-51.7c-4.7,5.5-7.5,12.2-10.8,18.5c-4.6,8.5-10.4,16.4-17.6,22.8c0.1-1.1,0.3-2.2,0.4-3.3
			c-6.2,0.2-12.3,0.8-18.5,1.4c-0.7,3.4-1.4,6.8-2,10.2c4.4-0.9,8.8-1.8,13.1-2.6c-8.8,8-20.6,12.2-32.3,13.7
			c-6.9,1-13.9,0.1-20.7-0.6l-44-44c-1.7-8.7-3.4-17.4-3.8-26.3c-2.9,4.9-5.4,10.2-6.8,15.7l-6-6c5.3-16.7,18.3-29.6,32.7-39
			C268.2,771,287.5,764.2,306.6,766.9z M241.5,799.9c-1.1,3.2,1.7,5.9,4.3,7.3c5.4,3.1,12.1,0.8,17-2.2c6-4,11.7-9.4,14-16.4
			c1.3-3.7-3.3-5.1-6.1-4.4c-7.9,1.4-15.8,4-22.5,8.4C245.5,794.7,242.8,796.8,241.5,799.9z M277.3,801.3c-0.5,7.8,3,15.5,8.4,21
			c6.4,7,15.4,11.1,24.6,12.8c7.9,1.2,16.4,0.3,23.1-4.3c6.1-4,10.2-10.6,12.1-17.5c2-8.2-0.6-17.1-5.9-23.5
			c-11.3-14-33.4-19.9-49.1-9.8C283,784.5,277.6,792.5,277.3,801.3z"/>
	</g>
	<path class="st44" d="M362.6,856.3c-3.2,1.4-4.4,5-5.7,8c-2.6,6.7-3.4,14-4,21.1c-0.5,6.3,2,12.9,6.7,17.1c2.5,2.4,6.5,2.3,9.3,0.5
		c5.1-3,7.2-9.1,7.4-14.7c0-9.8-3.7-19.2-8.2-27.8C366.8,858.7,365.4,855.1,362.6,856.3z"/>
	<path class="st44" d="M248,792.7c-2.6,2-5.3,4.2-6.6,7.3c-1.1,3.2,1.7,5.9,4.3,7.3c5.4,3.1,12.1,0.8,17-2.2c6-4,11.7-9.4,14-16.4
		c1.3-3.7-3.3-5.1-6.1-4.4C262.7,785.6,254.8,788.3,248,792.7z"/>
	<g class="st1">
		<path class="st47" d="M339.5,789.8c5.3,6.4,7.9,15.3,5.9,23.5c-1.9,7-5.9,13.6-12.1,17.5c-6.7,4.5-15.3,5.5-23.1,4.3
			c-9.2-1.7-18.2-5.8-24.6-12.8c-5.4-5.5-8.9-13.2-8.4-21c0.4-8.8,5.8-16.8,13.2-21.3C306.1,769.9,328.2,775.8,339.5,789.8z"/>
	</g>
	<path class="st48" d="M385,892.8c-1.7,3-2.1,6.6-1.8,10C384,899.5,384.6,896.2,385,892.8z"/>
	<g class="st1">
		<path class="st16" d="M357.2,952.4c-0.9,0.9-1.8,1.9-2.7,2.9l3.3,3.3C357.5,956.5,357.4,954.4,357.2,952.4z"/>
	</g>
	<path class="st48" d="M385.1,860.5c-1.1,2.3-0.7,4.8,0.6,7C385.6,865.1,385.4,862.8,385.1,860.5z"/>
	<path class="st48" d="M216.1,816.9l3.5,3.5c5.3-16.7,18.3-29.6,32.7-39c15.9-10.4,35.2-17.2,54.4-14.5
		c17.9,2.2,33.9,12.2,46.1,25.1c13.5,14.5,23,32.6,28,51.7c1.2,4,1.1,8.4,3.7,11.8c-3.4-24.3-14.2-47.7-30.7-65.9
		c-12.7-14.2-30-25.1-49.3-27.2c-1.1-0.1-2.3-0.2-3.4-0.3c-15.3-1-30.6,3.5-43.9,10.8c-0.9,0.5-1.8,1-2.7,1.5"/>
	<path class="st48" d="M254.5,774.5c-7.3,4.4-14.3,9.4-20.5,15.4c-0.5,0.5-1.5,1.6-2.1,2.1c-6.8,7.2-12.4,15.6-15.9,25"/>
	<path class="st20" d="M459.4,1006.8c-5.7,1.2-11.3,3.1-17,4.2c1.3,4.7,2.7,9.5,4.5,14.1c5.4-3.7,10.7-7.4,16.2-10.9
		C461.9,1011.8,461.4,1008.7,459.4,1006.8z"/>
	<path class="st21" d="M330.5,732.1c-1.7,2.3-3.4,4.7-4.9,7.2c5.4,3.5,10.8,7.2,16,10.9c0.8-5.3,1.8-10.6,2.5-16
		C339.8,733,335,733,330.5,732.1z"/>
	<path class="st22" d="M431,841.3c-3-1.3-5.9-2.8-8.9-4.1c-2,6.6-4.4,13-6.6,19.6c3.8,1.4,7.7,2.4,11.5,3.8
		C428.6,854.2,429.8,847.7,431,841.3z"/>
	<path class="st23" d="M501.3,956.1c-0.2,0.6-0.7,1.7-0.9,2.3c0.6,6.9-0.7,13.8-1.9,20.6C500.6,971.6,501.5,963.8,501.3,956.1z"/>
	<g class="st1">
		<path class="st24" d="M464.4,897.6c17.5,6.5,28.6,23.6,33.6,40.9c1.8,5.4,1.6,11.2,3.3,16.6c0,0.3,0,0.8,0,1
			c-0.2,0.6-0.7,1.7-0.9,2.3c-0.6-1.2-1.2-2.4-1.6-3.7c-1.8-8.3-2.7-17-6.4-24.8c-5.1,7.6-9.1,16.3-16.4,22.3
			c-11.1,10.6-28.8,14.3-42.7,7.3c-10-4.9-16.1-15.2-18.4-25.8c-1.2-4.5-0.8-9.2-1.9-13.6c-8.7,13.5-7.7,31.1-1.5,45.4
			c2.1,5.8,6.1,10.5,8.6,16.1c-10.6-11.6-18.1-27-17.7-43c0.4-12.1,6.5-23.7,16.3-30.8C431.2,897.7,448.7,891.8,464.4,897.6z
			 M420.2,916.8c4,3.5,9.9,1.4,13.6-1.5c2.8-2.3,6-4.9,6.5-8.8c-0.7-2.2-3.3-1.8-5-1.6c-4.7,0.9-9.4,2.2-13.4,5
			C419.7,911.3,417.5,914.8,420.2,916.8z M441.5,923.7c4.6,9.1,15.7,14.4,25.7,12.5c9-1.8,15.4-12.2,12.2-21
			c-3.7-10-15.3-16.2-25.7-14.1c-3.7,0.8-7.1,2.8-9.8,5.4C439.7,911,438.6,918.2,441.5,923.7z"/>
	</g>
	<path class="st25" d="M421.9,910c-2.3,1.3-4.4,4.8-1.7,6.8c4,3.5,9.9,1.4,13.6-1.5c2.8-2.3,6-4.9,6.5-8.8c-0.7-2.2-3.3-1.8-5-1.6
		C430.6,905.9,425.9,907.2,421.9,910z"/>
	<path class="st25" d="M444,906.5c-4.3,4.5-5.4,11.7-2.5,17.2c4.6,9.1,15.7,14.4,25.7,12.5c9-1.8,15.4-12.2,12.2-21
		c-3.7-10-15.3-16.2-25.7-14.1C450,901.9,446.6,903.8,444,906.5z"/>
	<path class="st25" d="M487.7,950.2c-3,2.2-4,6.1-5,9.5c-1.1,4.8-2.5,10.2,0.1,14.8c1,2.3,3.6,4.7,6.4,3.8c3.6-1.2,5.6-5,5.9-8.6
		c0.5-6-1.6-11.8-4-17.2C490.4,951.3,489.3,949.1,487.7,950.2z"/>
	<g class="st1">
		<path class="st26" d="M414.8,933.6c2.3,10.6,8.5,20.9,18.4,25.8c13.9,7.1,31.6,3.4,42.7-7.3c7.2-6,11.2-14.6,16.4-22.3
			c3.7,7.8,4.6,16.5,6.4,24.8c0.5,1.3,1,2.5,1.6,3.7c0.6,6.9-0.7,13.8-1.9,20.6c-2.2,9.2-7.3,17.6-14.5,23.7
			c2.6,1.9,5.3,3.7,7.8,5.7c-3.8-0.1-7,1.8-9.7,4.3c-0.1-2.4-0.3-4.7-0.6-7c-13.9,8.8-17.9,30.6-6.2,42.8
			c11.5,12.4,29.3,14.7,43.4,23.2c7.6,4.4,14.6,11.2,16.4,20.2c1.4,5.1,0.4,10.5-1,15.5c5.8,9.6,9.2,21.6,5,32.4l-2.4-2.4
			c2.8-9.1,0-18.7-4.2-26.8c-4,4.8-10.4,7.7-16.7,5.9l-5.3-5.3c-0.7-5,1.9-10.4,6.9-12c5.3-1.8,10.6,1.2,14.3,4.7
			c2.1-7.9,0-16.9-6-22.6c-11.2-11.7-28-14.1-41.5-22c-7.8-4.4-15-11-17.6-19.7c-3.7-11.9,0.4-25.5,9.5-33.9
			c-7,0.4-14.1,0.5-20.9-1.8c-13.2-4.7-26.1-11.6-35.2-22.5c-2.5-5.6-6.5-10.3-8.6-16.1c-6.1-14.3-7.2-31.9,1.5-45.4
			C414,924.5,413.6,929.2,414.8,933.6z M482.7,959.7c-1.1,4.8-2.5,10.2,0.1,14.8c1,2.3,3.6,4.7,6.4,3.8c3.6-1.2,5.6-5,5.9-8.6
			c0.5-6-1.6-11.8-4-17.2c-0.6-1.2-1.7-3.3-3.4-2.3C484.7,952.4,483.7,956.3,482.7,959.7z M515.8,1112.7c5.3,3,11.8-0.4,14.6-5.3
			c-2.9-3.4-7.6-6.8-12.3-4.9C514,1103.6,511.7,1110.2,515.8,1112.7z"/>
	</g>
	<path class="st27" d="M296.7,829.2"/>
	<g class="st1">
		<path class="st28" d="M340.6,858.9c-6.2,0.2-12.3,0.8-18.5,1.4c-0.7,3.4-1.4,6.8-2,10.2c4.4-0.9,8.8-1.8,13.1-2.6
			c2.1-0.5,4.3-0.9,6.5-1.3c0.2-1.5,0.3-2.9,0.5-4.3C340.3,861.2,340.4,860,340.6,858.9z"/>
	</g>
	<g class="st1">
		<path class="st29" d="M345.5,933.8c-0.8,3.4-1.6,6.7-2.3,10.1l0.3,0.3c6.4-1.7,13-2.7,19.4-4.1c0.2-2.6,0.5-5.1,0.7-7.7
			C357.6,932.9,351.5,933.5,345.5,933.8z"/>
	</g>
	<g class="st1">
		<path class="st30" d="M357.3,948.4c-2.6,0.2-4.9,1.4-7.3,2.4l2.5,2.5C354.2,951.7,355.8,950.1,357.3,948.4z"/>
	</g>
	<g class="st1">
		<path class="st31" d="M375.5,955.6c-5.5-0.1-11.5,0.9-14.8,5.8l3.8,3.8C368.7,963,374.7,960.8,375.5,955.6z"/>
	</g>
	<g class="st1">
		<path class="st32" d="M448.1,892.8c-9.8,0.6-19.1,4.5-27.2,9.9c-8.9,5.9-16.4,14.7-19.1,25.2c-3.5,13.1-0.1,27.2,6.3,38.9
			c9.7,18.2,27.4,31.7,47.2,37.2c-13.2-4.7-26.1-11.6-35.2-22.5c-10.6-11.6-18.1-27-17.7-43c0.4-12.1,6.5-23.7,16.3-30.8
			c12.6-10,30.1-15.9,45.7-10.1c17.5,6.5,28.6,23.6,33.6,40.9c1.8,5.4,1.6,11.2,3.3,16.6c-0.3-19.2-8.5-38.4-22.8-51.3
			C470.3,896.5,459.2,892,448.1,892.8z"/>
	</g>
	<g class="st1">
		<g>
			<path class="st33" d="M396.2,993.8c9.5,6,21.4,7.4,30.3,14.4c5.8,4.5,10.2,11.9,8.8,19.4c-0.6,1.3-2.9,0.8-2.5-0.7
				c0.9-7.3-3.7-14.2-9.7-18c-8.3-5.4-18.4-7.1-26.9-12l-11.2-11.2c-1.3-4.2-2.9-9.8,1-13.1c3-3.1,8-0.7,10.1,2.3
				C400.1,980.3,399.1,988,396.2,993.8z M386.2,976.7c-1,6.2,3.2,11.8,7.7,15.6c3-5.4,3.6-13.5-1.9-17.6
				C390.1,972.9,386.4,973.7,386.2,976.7z"/>
		</g>
	</g>
	<g class="st1">
		<path class="st34" d="M528,867.6c-4.6-0.4-9.2-1.4-13.8-1.8c-1.5,2.3-3,4.6-4.6,6.9c5.2,3.8,10.6,7.3,15.9,11
			C526.6,878.4,527.6,873,528,867.6z"/>
	</g>
	<g class="st1">
		<path class="st36" d="M482.1,1012.7c0,0.5,0.1,1.5,0.1,2c3.9-0.5,7.7-2.2,10.3-5.2l-0.7-1C488,1008.4,484.8,1010.2,482.1,1012.7z"
			/>
	</g>
</g>
<g id="Слой_3" class="st0">
	<path class="st49" d="M636,39l9.2,9.2c-4.7-1.6-9.3-3.6-14.3-4.1L636,39z"/>
	<path class="st10" d="M645.2,48.2l2.7,2.7c-6,1-12.1,1.7-18.1,3.4c-4.5,1.2-8.9,3.1-13.4,4.3l14.5-14.5
		C635.9,44.6,640.5,46.6,645.2,48.2z"/>
	<path class="st10" d="M581.3,93.7c-1,4.4-2.6,8.8-3.2,13.3c-0.6,4.2-0.7,8.3-0.7,12.5c0.5,5.2,1.3,10.5,2.6,15.5
		c2.8,5.7,5.3,11.6,9.2,16.7c5.8,7.5,12.8,14.1,20.9,19.2c7.6,5,16.7,7.6,24,13.2c-6.9,2.9-14,5.5-21.1,8c-4.1,1.5-8.5,2.2-12.5,4.4
		c-21.7-16-42.1-33.7-61.7-52.1c-0.7,0.7-2,2-2.7,2.7c-3.6,3.6-7.2,7.2-10.7,10.8c-1.3-1.5-2.4-3.1-3.4-4.7L581.3,93.7z"/>
	<g class="st1">
		<path class="st11" d="M721.6,272.8c15,6.8,30.2,13.1,45.7,18.8c-13.7,11.8-27.8,22.9-42.2,33.9c-0.6,0.5-1.8,1.4-2.5,1.9
			c-0.6,0.5-1.8,1.4-2.4,1.8c-0.4-6.4,0-12.9,0-19.3c0-1.6,0.1-3.3,0-4.9C720.6,294.3,720.9,283.5,721.6,272.8z M742.3,298.4
			c-6.4-1-12.1-4.1-17-8c-2.1,10-2.7,20.1-2.3,30c3.4-1.3,6.3-3.9,9.4-5.8c6.7-4.8,13.5-9.6,19.3-15.5
			C748.6,298.7,745.4,299,742.3,298.4z"/>
	</g>
	<path class="st10" d="M311.2,380.1c0.7,1.3,1.3,2.6,2,3.9c-0.5,0.9-0.9,1.8-1.4,2.7c-0.4-0.6-1.1-1.9-1.5-2.6
		C310.6,382.8,310.9,381.4,311.2,380.1z"/>
	<g class="st1">
		<path class="st12" d="M647.9,50.9l8.5,8.5c-4.2,3.2-6.5,8.9-5.3,13.8c1.8,7.1,6.6,12.8,12.2,17c2.3,1.5,4.8,3.2,7.7,2.9
			c1.8,0,2.7-2.1,2.8-3.6c0.5-5.3-1.8-10-2.5-15l16,16c4.6,14.9,3.8,31.8-2.8,46.9c-6.3,14.3-16.9,26.8-29.2,36.6
			c-15.2,12.2-33,20.7-51.5,25.2c-1.2-0.9-2.3-1.8-3.5-2.7c3.9-2.2,8.3-2.9,12.5-4.4c7.1-2.5,14.2-5,21.1-8
			c-7.2-5.6-16.3-8.2-24-13.2c-8.1-5-15.1-11.7-20.9-19.2c-3.9-5-6.3-11-9.2-16.7c3.1-1.1,6.2-2.2,9.3-3.3
			c-1.5-5.3-3.2-10.5-4.7-15.7c-2.4,1.2-4.8,2.3-7.2,3.5c0-4.2,0-8.3,0.7-12.5c0.6-4.5,2.2-8.9,3.2-13.3l35.1-35.1
			c4.5-1.2,8.9-3.2,13.4-4.3C635.8,52.6,641.9,51.9,647.9,50.9z M671.8,99.8c-4.6-4-11-6.2-17.4-5.5c-7,0.7-13.8,4.4-19,9.4
			c-7.7,7.8-12.7,18.3-13.6,28.9c-0.4,7,0.9,14.4,5.4,19.5c5.2,6.5,13.7,10.1,22.4,9.4c6.6-0.8,13-4.1,17.9-8.9
			c8.8-8.2,14-20.2,13.8-31.7C681.3,112.7,677.8,104.9,671.8,99.8z"/>
	</g>
	<path class="st13" d="M742.3,298.4c3.1,0.6,6.3,0.3,9.5,0.6c-5.8,5.9-12.7,10.7-19.3,15.5c-3.1,2-6,4.5-9.4,5.8
		c-0.5-9.9,0.2-20,2.3-30C730.2,294.3,735.9,297.4,742.3,298.4z"/>
	<path class="st14" d="M656.4,59.4l15,15.1c0.6,5,3,9.8,2.5,15c-0.2,1.5-1,3.6-2.8,3.6c-3,0.3-5.5-1.4-7.7-2.9
		c-5.7-4.2-10.5-10-12.2-17C649.9,68.3,652.1,62.6,656.4,59.4z"/>
	<g class="st1">
		<path class="st15" d="M671.8,99.8c6,5.1,9.5,12.9,9.6,21.1c0.2,11.5-5,23.5-13.8,31.7c-4.9,4.8-11.3,8.1-17.9,8.9
			c-8.7,0.8-17.2-2.9-22.4-9.4c-4.5-5.2-5.8-12.5-5.4-19.5c0.9-10.6,5.8-21.1,13.6-28.9c5.2-5.1,11.9-8.8,19-9.4
			C660.9,93.6,667.2,95.7,671.8,99.8z M647.1,126.9c-3.7,0.7-7.3,1.4-11,2c0.2,4.4,0.8,8.8,1.4,13.1c4.4-3.3,9-6.3,13.4-9.6
			C649.7,130.5,648.5,128.7,647.1,126.9z"/>
	</g>
	<g class="st1">
		<path class="st50" d="M687.4,90.4l6.2,6.2c2.2,12.9,0.8,26.7-4.7,39.3c-7.9,18.5-22.8,33.7-39.5,44.8c-13.6,9-28.7,15.8-44.3,19.3
			c-0.3-0.2-0.9-0.7-1.2-0.9c18.5-4.5,36.3-13,51.5-25.2c12.3-9.8,22.9-22.2,29.2-36.6C691.2,122.2,692,105.2,687.4,90.4z"/>
	</g>
	<path class="st51" d="M729.9,132.9l1.4,1.4c-12.3,6.9-23.4,16.3-31.9,27.7c-10.3,12.6-17.7,27.4-21.6,42.8c-1.1,4-1.4,8.1-2.5,12.1
		c1.2-13.6,5.9-27,12.5-39.3C697.4,159.4,712.2,143.6,729.9,132.9z"/>
	<path class="st51" d="M777.4,180.4l33.4,33.4c-3.7,4.6-8.2,8.8-13.8,10.6c-11.6,4.2-24.8-2.8-27.2-14.3
		C767.3,200.1,771.1,189.1,777.4,180.4z"/>
	<path class="st51" d="M339.8,339.9c1,1,1.4,3.1-0.3,4C339.1,342.6,339.2,341.2,339.8,339.9z"/>
	<path class="st52" d="M731.3,134.3l2.8,2.8c-8.8,3.8-16.8,9.3-24.1,15.5c-3.6,3-6.5,6.9-10.5,9.4
		C707.9,150.6,719,141.1,731.3,134.3z"/>
	<g class="st1">
		<path class="st45" d="M734,137l14.6,14.6c-8.1,7.3-14.2,17.1-16,27.6c-2.6,13.2,0.3,26.8,7.6,37.2c5.4,7.9,12.9,14.1,21.3,18.7
			c6.2,3.4,13.3,5.3,19.3,9.1c-10.5,5.7-21.8,9.6-33.1,13.1c-5.1,1.7-10.4,2.4-15.3,4.6c-8.4,1-16.6,0-24.7-1.1
			c-0.8-0.1-1.5-0.2-2.3-0.3c-10.2-4.5-19.8-10-29.5-15.2c1.1-0.4,2.1-0.8,3.2-1.3c-5.3-4.4-11.7-9-19.3-8c-1.1-0.6-2.2-1.3-3.3-1.9
			c7.3-2.2,14.4,0.8,19.9,4.7c-1.5-7.1-2.2-14.5-1.2-21.9c1.1-4,1.4-8.1,2.5-12.1c3.9-15.4,11.3-30.3,21.6-42.8
			c4-2.5,6.9-6.4,10.5-9.4C717.2,146.3,725.3,140.8,734,137z M751.5,240.7c-4.1-2.9-9.4-3.3-14.4-3.9c-5.1-0.2-10.5-0.8-15.4,1.7
			c-3.2,1.6-6.6,4.1-7.5,7.7c-0.7,3.6,2.1,6.5,5,8.1c5.9,2.6,13.1,1,19.2-1.6c4.8-2.3,10-4.3,13.9-8
			C753.6,243.4,752.6,241.6,751.5,240.7z"/>
	</g>
	<g class="st1">
		<path class="st45" d="M922.8,325.8l1.5,1.5c-11.3,15.9-23,31.5-35.6,46.4c-5.3-17.5-9.4-35.5-13.1-53.5
			C891.2,322.8,907,324.5,922.8,325.8z M904.1,338.3c-4.7,1.2-9.5,1.5-14.1,0.9c-2.5-0.3-4.9-1.3-7.4-1.4c1.8,9.7,4.6,19.1,8.8,27.9
			c7.8-9.1,14.3-19.3,20.1-29.8C908.9,336.4,906.6,337.7,904.1,338.3z"/>
	</g>
	<path class="st53" d="M865.6,376.7c6.2,2.1,9.7,7.7,14.4,11.7c-1.3,0.8-2.6,1.6-4,2.4c-4.6-4.6-10.5-8.5-17.3-8.8
		c-3.4-0.2-6.7,0.9-9.9,2.4c-1-1.4-1.9-2.9-2.7-4.5C852,376.2,859.3,374.5,865.6,376.7z"/>
	<path class="st53" d="M892.3,421c-0.6,4.8-0.7,10.5-4.9,14c-5.3,5.2-12.8,6.8-19.7,7c-7.3,0.1-14.3-1.5-20.7-4.3
		c1.1-2.2,2.4-4.2,3.8-6.2c6.3,2.4,13.3,3.8,20.3,2.2c5.6-1,10.5-4.1,15.4-7.1C888.7,425.1,890.5,423,892.3,421z"/>
	<path class="st53" d="M841,384.3c0.6,1.8,1.3,3.5,2.1,5.1c-6.2,8.5-8.1,19.7-4.7,28.9c1.4,4.3,4.5,7.6,7.7,10.6
		c-1.3,2-2.4,4.2-3.3,6.4c-6-3.5-11.1-9-12.9-16c-1.3-4.7-0.5-9.9,0.6-14.7C832.1,397.3,835.4,389.9,841,384.3z"/>
	<path class="st53" d="M860.2,460.7c7.6-2.5,15.6,0.3,21,4.9l-0.4,0.3c-2.2,1.5-4.3,3.1-6.5,4.7c-3.3-2.1-7.1-4.2-11.3-3.2
		c-3.7,0.7-6.4,3.7-8.6,6.6c-1.8-1.1-3.5-2.4-5.1-3.9C851.9,466.1,855.5,462.2,860.2,460.7z"/>
	<g class="st1">
		<path class="st45" d="M584.8,189.3c12.8,10.2,26.1,19.8,39.7,29c-3.4,1.9-6.9,3.7-10.3,5.5c-1.4,0.7-2.7,1.4-4.1,2.1
			c-4.2,2.2-8.3,4.3-12.5,6.4c-8.8,4.4-17.7,8.7-26.7,12.9c1.3-5.5,2.5-11,3.8-16.5c0.7-3,1.5-5.9,2.2-8.9
			c1.6-6.6,3.3-13.2,5.1-19.8c0.6-2.4,1.3-4.7,1.9-7.1C584.1,191.7,584.5,190.5,584.8,189.3z M590.8,213.3c-2.6-2.1-4.8-4.7-7-7.2
			c-3.8,9.6-7,19.7-7.9,29.9c11-4.4,21.8-9.4,31.8-15.9C601.7,218.8,595.6,217.1,590.8,213.3z"/>
	</g>
	<path class="st53" d="M424.6,250.4c10-0.4,20.1,0.7,28.8,5.2c-6.6,1.3-13.3,2.4-19.8,5c-11.8,4.4-22.9,12.1-29.9,22.9
		c-7.8,12.4-9.2,27.7-5.2,40.6c4.2,13.6,14.5,24.3,26.7,31.1c6.4,3.8,14.1,5.5,20.3,9.8c-10.9,5.7-22.5,9.8-34.1,13.3
		c-1.4,0.5-2.8,1.1-4.2,1.7c-5.4-0.2-10.8,0.6-15.8,3.1c-1.6,0.4-3.2,0.6-4.8,0.9c-0.3-2.6-0.1-5.3,0.3-8c7.9,1.2,16-2.1,23.1-6.1
		c0.3,0,1,0.1,1.3,0.1c0.3-0.4,0.8-1.1,1.1-1.5c1.9-1.5,5.7-2.6,5.2-5.5c-1.9-3.1-5.7-3.8-9.1-4.4c-2.7-0.8-5.4-1.9-8.4-1.9
		c-2.9-0.1-5.8,0.8-8.6,1.4c-4.8-0.3-9.4,3.2-12,7.2c-1.7,2.7-0.1,5.5,1.6,7.4c-0.6,3.4-1,6.7-0.9,10.1c-3.8-0.3-7.4-1.1-11-2
		c-1-0.3-2-0.5-2.9-0.8c-7.9-2.4-15.3-6.3-20.9-12.3c-2.4,3.6-4.4,7.4-6.7,11.1l-0.8,0.8c-0.5-2.9-0.6-6.1-2.5-8.3
		c-1.5-1.5-3.4-2.5-5.2-3.5c4-0.8,7.9-1.5,11.8-2.5c-4.5-4.5-11.8-6.1-18.1-3.1c-7.1,3.2-11,10.8-12.7,17.9c-0.3,1.3-0.6,2.7-0.9,4
		c-1.6,8.2-2.6,16.6-6.7,24.3c-0.4-0.4-1.3-1.2-1.7-1.6c4.1-8.5,4.7-17.7,6.7-26.6c0.3-1.1,0.6-2.1,0.9-3.2
		c2.1-6.6,6.1-13.4,12.7-16.6c6.3-3.4,13.9-2.6,19.1,1.2c1.2,1.1,0.5-1,0.4-1.3c-1.9-5.2-2.3-10.8-2.3-16.5c1.6-1,1.3-3,0.3-4
		c0.1-1.7,0.2-3.4,0.4-5.1L424.6,250.4z"/>
	<path class="st17" d="M748.6,151.6l28.8,28.8c-6.3,8.7-10.1,19.7-7.6,29.8c2.5,11.4,15.7,18.5,27.2,14.3
		c5.6-1.8,10.1-6.1,13.8-10.6l3.6,3.6c-15,21.8-39.1,36.9-64.2,42.4c-5.9,1.2-11.8,2.4-17.7,2.3c5-2.2,10.2-2.9,15.3-4.6
		c11.2-3.5,22.6-7.4,33.1-13.1c-6-3.8-13.1-5.7-19.3-9.1c-8.4-4.5-16-10.8-21.3-18.7c-7.3-10.4-10.3-24-7.6-37.2
		C734.4,168.7,740.5,158.9,748.6,151.6z"/>
	<path class="st17" d="M904.1,338.3c2.5-0.6,4.9-1.9,7.4-2.3c-5.8,10.4-12.2,20.6-20.1,29.8c-4.2-8.8-7-18.2-8.8-27.9
		c2.6,0.1,4.9,1.1,7.4,1.4C894.6,339.8,899.4,339.5,904.1,338.3z"/>
	<path class="st17" d="M647.1,126.9c1.3,1.8,2.6,3.6,3.9,5.5c-4.4,3.3-9,6.3-13.4,9.6c-0.6-4.3-1.2-8.7-1.4-13.1
		C639.8,128.3,643.5,127.6,647.1,126.9z"/>
	<path class="st17" d="M751.5,240.7c1.1,0.8,2.1,2.6,0.7,3.9c-4,3.8-9.1,5.8-13.9,8c-6.1,2.6-13.2,4.2-19.2,1.6
		c-2.8-1.5-5.7-4.4-5-8.1c1-3.6,4.3-6.1,7.5-7.7c4.9-2.6,10.3-1.9,15.4-1.7C742.1,237.4,747.4,237.8,751.5,240.7z"/>
	<path class="st17" d="M942.1,443.7c4.6,1,9.3,2,13.9,3c-1.3,3.9-2.6,7.7-4.1,11.5c-4.3-2.9-8.7-5.6-12.9-8.5
		C940,447.7,941,445.7,942.1,443.7z"/>
	<path class="st17" d="M841.2,350c2.7,2.2,4.9,4.9,7.5,7.1c-3,7.3-5.5,15.6-2.6,22.8c0.8,1.6,1.7,3.1,2.7,4.5
		c6.4,7.2,17.5,9.4,27.2,6.4c1.3-0.8,2.6-1.6,4-2.4c0,2.3-0.1,4.7-0.2,7c-7.1,4-15.4,6.6-23.2,5.1c-6.2-1.2-10.9-5.7-13.6-11.2
		c-0.8-1.6-1.5-3.4-2.1-5.1C838.1,373.4,836.8,361.3,841.2,350z"/>
	<path class="st17" d="M577.4,119.5c2.4-1.2,4.8-2.3,7.2-3.5c1.5,5.3,3.2,10.5,4.7,15.7c-3.1,1.1-6.2,2.2-9.3,3.3
		C578.7,130,577.9,124.7,577.4,119.5z"/>
	<path class="st17" d="M590.8,213.3c4.8,3.8,10.8,5.5,16.9,6.8c-10,6.6-20.8,11.6-31.8,15.9c0.9-10.2,4.1-20.2,7.9-29.9
		C586.1,208.6,588.3,211.1,590.8,213.3z"/>
	<g class="st1">
		<path class="st46" d="M448.9,247c12.1,4.1,21.6,13,28.6,23.2c7.3,10.6,12.2,23.4,11.6,37c-0.5,15.3-8.2,30.3-19,41.7
			c-16.2,17.4-38.3,28.7-60.9,32.5l-0.4-0.5c-0.4-0.2-1.1-0.7-1.5-1c1.4-0.6,2.8-1.2,4.2-1.7c11.6-3.5,23.2-7.6,34.1-13.3
			c-6.2-4.3-13.8-5.9-20.3-9.8c-12.1-6.8-22.5-17.5-26.7-31.1c-4.1-12.9-2.6-28.3,5.2-40.6c6.9-10.9,18.1-18.5,29.9-22.9
			c6.4-2.5,13.1-3.7,19.8-5c-8.7-4.4-18.8-5.5-28.8-5.2l6-6C436.9,243.9,443.1,245.1,448.9,247z M464.7,263.6c-1.3-1-3-1.9-4.8-1.3
			c-2.8,1-4.1,4-4.8,6.6c-0.8,5.9,2.8,10.9,6.5,14.8c2.9,2.7,6.4,5.3,10.6,5.7c3.3-0.3,2.9-4.5,2.3-6.7
			C472.8,275.7,470.3,268.3,464.7,263.6z M470.9,293c-7-3.9-16.5-2.4-23.2,2.9c-12.4,10-18.2,28.9-10.3,41.9
			c-3.2-0.6-6.3-1.6-9.6-1.9c-0.7,2.2-2.7,4.4-2.6,6.6c4.4,3,9,5.9,13.4,8.8c1.1-3.2,2.2-6.3,3.3-9.5c6,5,15.5,6,23,1.8
			c10.6-5.7,17.2-17.8,17.5-29.3C482.6,305.6,478.4,297,470.9,293z"/>
	</g>
	<path class="st17" d="M394.3,364.8c5.9-1.4,11.5,1.8,15.7,5.1c-7.1,3.9-15.2,7.3-23.1,6.1C387.8,371.7,389.4,366.2,394.3,364.8z"/>
	<path class="st17" d="M465,461.1c5,0.1,9.9,0.4,14.8,0.4c0.4,2.8,1.2,5.5,1.3,8.3c-5.1-0.9-10.3-1.8-15.5-2.4
		C465.3,465.3,465.2,463.2,465,461.1z"/>
	<path class="st54" d="M814.3,217.3l1.5,1.5c-8.9,12.1-20.5,22.3-33.5,29.5c-0.2,1.3-0.4,2.6-0.5,4c0-1.2,0-2.4,0-3.6
		c-12.9,7.4-27.2,11.8-41.6,13.5c-11,1.3-22.1,1.3-32.5-1.4c8.1,1.1,16.3,2.1,24.7,1.1c5.9,0.1,11.8-1,17.7-2.3
		C775.2,254.2,799.3,239.1,814.3,217.3z"/>
	<g class="st1">
		<path class="st55" d="M815.8,218.8L875,278c-10.6,4.3-21.5,7.7-32.5,10.4c-3.1,0.8-6.4,0.9-9.4,2.3c-3,0.1-6-0.3-9-0.4
			c-0.6-1.5-2.8-2.1-3.9-0.5c-12.1-2-24.4-6-32.6-15.1c-2.6,4.3-5.1,8.5-7.6,12.8c-0.2-3.1-0.2-6.5-2.3-8.8
			c-1.5-1.6-3.5-2.6-5.3-3.9c4.4-0.4,8.6-1.8,12.6-4c-2.3-5.8-3.3-12-3.3-18.3c0.1-1.3,0.3-2.7,0.5-4
			C795.3,241.1,807,230.9,815.8,218.8z M858.7,268.6c-5.8-4-13.5-4.1-20.6-4.3c-5.5-0.3-11.4,1.9-15.3,6.3c-1.8,1.9-2.3,4.9-1.2,7.1
			c1.7,3.2,5.2,5.2,8.9,5.5c5.2,0.4,10.5-0.9,15.4-3.2c4.6-2.1,9.4-4.1,13.3-7.7C860.6,271.2,859.7,269.5,858.7,268.6z"/>
	</g>
	<path class="st56" d="M772.8,280.4c0.5,1,0.8,2.2,0.8,3.4c-0.9,1.7-1.6,3.5-2.3,5.2c-0.8-0.3-1.5-0.6-2.3-0.9
		C770,285.5,771.3,282.9,772.8,280.4z"/>
	<g class="st1">
		<path class="st55" d="M650.5,235c14,8.6,28.4,16.6,43.1,24.1c-16.7,11.2-33.6,22-50.8,32.3c0.3-4.5,1-9,1.5-13.5
			c0.2-1.5,0.3-3,0.5-4.5c0.7-4.5,1.3-9,1.8-13.5c0.3-1.9,0.7-3.9,0.9-5.9c0.7-4.4,1.4-8.8,2.1-13.2c0.2-1.1,0.3-2.3,0.5-3.4
			C650.2,236.7,650.3,235.8,650.5,235z M670.5,262.2c-7-1.5-13.3-5.1-18.1-10.2c-2.9,9.8-5,20-4.8,30.1
			c10.7-5.1,20.7-11.7,30.3-18.7C675.5,262.4,672.9,262.8,670.5,262.2z"/>
	</g>
	<path class="st56" d="M465.7,241.2c4.4,0.8,8.9,1.8,12.9,3.6c-3.7,2.9-7.8,5.3-11.7,8.1c-9.1-7.4-20.9-11.7-33.1-11.6l8.8-8.8
		C449.7,236.6,457.5,239.6,465.7,241.2z"/>
	<path class="st56" d="M464.1,388.9c-4.6,15-17.4,27-31.8,32.7c-4.4,1.6-8.8,2.8-13.4,3.5c-5.8,0.6-11.6,0.4-17.1-1.1
		c0.3-1.5,0.7-3,1.1-4.5c7.9,3.1,17.3,1.3,25.3-2.5c12.6-6,22.8-16.6,30-28.5C460.1,388.5,462.1,388.7,464.1,388.9z"/>
	<path class="st56" d="M407.3,379.9c0.4,0.2,1.1,0.7,1.5,1c-4.7,3.9-10,8.2-16.2,8.3c-2.2,0.2-4-1.1-5.2-2.7c1.3-1.2,2.6-2.4,4-3.5
		C396.5,380.6,401.9,379.7,407.3,379.9z"/>
	<path class="st56" d="M383.5,392.6c1.6,1.6,3.3,3,5.2,4.2c-0.1,8.1,4.1,15.3,9.8,20.3c-0.7,1.6-1.3,3.1-1.8,4.8
		c-4.4-2.2-8-5.6-10.3-9.9C383.3,406.3,381.2,399.4,383.5,392.6z"/>
	<path class="st20" d="M875,278l2.5,2.5c-4.7,2.3-9.6,4-14.6,5.3c-3.3,0.9-6.8,1.2-9.9,3.2c-6.6,1.3-13.3,1.8-19.9,1.6
		c3-1.4,6.3-1.5,9.4-2.3C853.5,285.6,864.4,282.3,875,278z"/>
	<path class="st20" d="M567.9,277.1c5.3,0.3,10.5,0.4,15.8,0.6c0.3,2.8,1.1,5.5,1.3,8.4l-0.4,0.3c-5.5-0.8-10.9-1.8-16.3-2.5
		C568.1,281.6,568,279.3,567.9,277.1z"/>
	<path class="st18" d="M877.5,280.5l1.1,1.1c-8.3,3.3-16.9,6.1-25.6,7.4c3-2,6.5-2.3,9.9-3.2C867.9,284.5,872.8,282.8,877.5,280.5z"
		/>
	<path class="st18" d="M820.2,289.7c1.1-1.6,3.3-1,3.9,0.5C822.8,290.3,821.5,290.1,820.2,289.7z"/>
	<path class="st18" d="M499.6,175.4c3.1,3.5,5.4,7.6,6.8,12.1c-0.2,0.7-0.4,1.4-0.6,2.1c0.1,0.3,0.3,0.8,0.3,1c1.4,3.1,0.6,6.7,0,10
		c-1.8,9.1-7.5,18.4-16.3,22.6c-10.8,5.1-23.8,0.4-28.5-9.6L499.6,175.4z"/>
	<path class="st57" d="M918.6,321.6l4.3,4.3c-15.8-1.3-31.6-3-47.2-5.6c-10.3-1.6-20.5-3.7-30.7-5.9c-16.3-3.5-32.3-7.8-48.1-12.7
		c-1.1-0.3-2.2-0.7-3.3-1c-2-0.6-4.1-1.4-6.1-2c-5.6-1.8-11.2-3.8-16.8-5.7c-0.8-0.3-1.6-0.6-2.5-0.9c-0.3-0.1-0.7-0.3-1-0.4
		c-15.5-5.7-30.7-12-45.7-18.8c-9.5-4.4-18.8-8.8-28-13.6c-14.7-7.5-29.1-15.6-43.1-24.1c-8.8-5.4-17.5-11-26-16.7
		c-13.6-9.2-26.8-18.8-39.7-29c-2.5-1.9-4.9-3.9-7.3-5.8c-5.5-4.5-11-9-16.3-13.7c-8.5-7.4-16.9-15-25-22.8c0.7-0.7,2-2,2.7-2.7
		c19.6,18.4,40,36.1,61.7,52.1c1.2,0.9,2.3,1.8,3.5,2.7c0.3,0.2,0.9,0.7,1.2,0.9c16.5,12.1,33.6,23.6,51.3,34.2
		c1.1,0.6,2.2,1.3,3.3,1.9c5.3,3.2,10.7,6.3,16.1,9.3c9.8,5.2,19.3,10.8,29.5,15.2c1,0.6,2,1.2,3,1.7c19.7,9.5,39.9,18.3,60.6,25.9
		c0.8,0.3,1.5,0.6,2.3,0.9C818.3,305.9,867.7,317.6,918.6,321.6z"/>
	<path class="st20" d="M858.7,268.6c1,0.8,1.9,2.6,0.5,3.8c-3.8,3.5-8.7,5.5-13.3,7.7c-4.9,2.3-10.2,3.5-15.4,3.2
		c-3.7-0.3-7.1-2.3-8.9-5.5c-1.2-2.2-0.6-5.1,1.2-7.1c3.9-4.4,9.8-6.5,15.3-6.3C845.2,264.5,852.9,264.6,858.7,268.6z"/>
	<path class="st20" d="M670.5,262.2c2.4,0.6,5,0.3,7.3,1.1c-9.6,7-19.7,13.5-30.3,18.7c-0.2-10,2-20.2,4.8-30.1
		C657.2,257,663.5,260.7,670.5,262.2z"/>
	<path class="st20" d="M507.7,167.3c1.4,2.3,2.4,4.8,3.2,7.4c-1.5,4.3-2.9,8.6-4.4,12.8c-1.4-4.5-3.7-8.7-6.8-12.1L507.7,167.3z"/>
	<path class="st20" d="M506.1,190.6c2.1-0.8,4.2-1.6,6.4-2.4c0.1,10.6-3.4,21.3-8.6,30.8c-8.2,14.5-20.3,26.9-34.4,35.9
		c-0.9-0.8-1.7-1.5-2.6-2.3c3.9-2.7,8-5.1,11.7-8.1c-4.1-1.8-8.5-2.7-12.9-3.6c-8.2-1.6-16-4.6-23.1-8.8l18.8-18.8
		c4.7,10,17.7,14.7,28.5,9.6c8.8-4.2,14.5-13.5,16.3-22.6C506.7,197.3,507.5,193.7,506.1,190.6z"/>
	<path class="st20" d="M646.8,395.1c2.1-2,5.2-2.9,7.8-4.3c1.3,5.7,3.5,11.2,4.9,16.9c-3.4,1.1-6.7,2.3-10,3.6
		C648.5,405.9,647.6,400.5,646.8,395.1z"/>
	<path class="st20" d="M583.3,421.7c2.6,0,5.1-0.1,7.7,0c-0.5,4.8-0.9,9.5-1.3,14.3c-0.2,0-0.5,0.1-0.6,0.2c-3-3-6-6.1-9.1-9.1
		c0.9-1.7,1.8-3.4,2.7-5L583.3,421.7z"/>
	<path class="st20" d="M437.4,337.8c1.8,0.4,3.6,0.8,5.5,1.2c-0.3,1-0.6,1.9-0.9,2.8c-1.1,3.2-2.3,6.3-3.3,9.5
		c-4.5-3-9-5.8-13.4-8.8c-0.1-2.2,1.9-4.4,2.6-6.6C431,336.2,434.2,337.2,437.4,337.8z"/>
	<path class="st20" d="M408.5,358.6c2.4,1.7,4.6,3.7,6.1,6.3c-0.8,1.2-1.5,2.4-2.3,3.6c-0.3,0.4-0.8,1.1-1.1,1.5
		c-0.3,0-1-0.1-1.3-0.1c-4.3-3.4-9.8-6.6-15.7-5.1c-4.8,1.5-6.5,6.9-7.3,11.2c-0.4,2.6-0.6,5.3-0.3,8c0.2,0.9,0.5,1.7,0.8,2.6
		c1.2,1.6,3,2.9,5.2,2.7c6.2-0.2,11.5-4.5,16.2-8.3l0.4,0.5l0.5,0.7c0.6,1.8,2.2,3.6,1.9,5.6c-5.2,7.1-14.8,12.6-23,9.1
		c-1.9-1.1-3.6-2.6-5.2-4.2c-1.7-3-2.8-6.3-3.3-9.8c-0.1-3.4,0.2-6.7,0.9-10.1c1.3-5.9,5.1-11.3,10.4-14.6c2.9-0.7,5.7-1.6,8.6-1.4
		C403,356.8,405.8,357.8,408.5,358.6z"/>
	<path class="st21" d="M941.7,376.6c5,1.2,10,2,15,3.4c-1.5,4.1-2.9,8.1-4.3,12.2c-4.6-3.1-9.3-6-13.8-9.1
		C939.6,380.9,940.7,378.7,941.7,376.6z"/>
	<path class="st21" d="M829.3,321.8c-0.9,2.9-3.5,5-5.3,7.5c-5.7,7-12,13.6-18.5,19.8c-2.9-9.5-4.3-19.5-4.2-29.6
		C809.6,323.7,819.8,325.1,829.3,321.8z"/>
	<g class="st1">
		<path class="st35" d="M686,285.8c9.9-0.5,19.5,3.6,25.7,10.9c3.7,3.8,5.7,8.8,8.6,13.2c0,6.4-0.3,12.9,0,19.3
			c0.6-0.5,1.8-1.4,2.4-1.8c-0.5,7.9-4,15.7-9.3,22c-8.4,9.9-20.1,16.7-32.2,20.1c-1.5,0.4-2.8,1.1-4.2,1.8
			c-7.2,1.5-14.5,1.7-21.5,0.9c3.6-1.1,7.3-0.9,11-1.6c7.5-1.2,15-3.3,22.4-5.6c0.8-0.3,1.8-0.5,2.2-1.3c-4.6-3.4-10.2-5.4-14.5-9.3
			c-5.9-5-10.4-11.7-11.9-19.5c-1.8-8.8,0.4-18.8,6.5-26.3c5.2-6.4,12.9-10.2,20.5-12.1c3.8-1,7.8-1.1,11.7-1.7
			c-11.5-7.1-27-5.9-39.9,0.1c-5.3,2.3-9.9,5.9-14.9,9c1.1-1.4,2.3-2.8,3.7-3.9C662.1,292.1,673.9,286.3,686,285.8z M705.5,300.3
			c-3.7,3.7-1.7,9.1,0.8,12.3c2,2.4,4.6,5.6,8.3,4.7c1-5.2-0.6-10.4-3-14.7C710.6,300.5,707.8,297.8,705.5,300.3z M710.8,318.9
			c-4.4-2.5-10.3-1.5-14.5,1.6c-6.6,4.9-10.7,13.4-9.6,21.1c0.9,7.1,8.2,12,15.4,10.7c7.7-1.7,13.6-8.9,15.3-16.3
			C719,329.5,716.7,322,710.8,318.9z"/>
	</g>
	<path class="st21" d="M779.2,386.7c1.8,1.8,3.5,3.6,5.3,5.3c-5,5.1-10.2,10.2-15.2,15.3c-0.6-3-1.6-5.9-2-8.9
		C771.4,394.6,775.2,390.5,779.2,386.7z"/>
	<path class="st21" d="M525.3,157.7c5.1,5.8,12.3,9.3,20,10.7c-10.6,5.8-21.6,10.7-33,14.4c0.9-5.4,2.3-10.7,4-16
		c1.8-4.4,3.5-8.9,5.2-13.3l0.5-0.5C523,154.7,524.1,156.3,525.3,157.7z"/>
	<path class="st21" d="M719.1,366.6c3.9-0.6,7.9-1.3,11.8-2.2c1.5,1.9,2.8,4,4.1,6c-4.7,3.4-9.6,6.6-14.2,10.1
		C719.9,376,719.5,371.3,719.1,366.6z"/>
	<path class="st21" d="M543.7,227c1.8,5.5,3.4,11.1,5.1,16.7c-3.3,1.4-6.8,2.4-10.1,3.7c-1.1-5.4-1.8-10.9-2.8-16.4
		C538.5,229.6,541.1,228.3,543.7,227z"/>
	<path class="st21" d="M661,355.6c4.8,0.8,10.8,1,13.4,5.6c-4.4,3.9-10.3,5.5-15.8,6.2c-4.1,0.5-9.6-1.5-9.2-6.3
		C650.8,356.3,656.8,354.9,661,355.6z"/>
	<path class="st21" d="M522,363.5c5.3-0.2,10.6,0.3,15.9,0.4c0.5,2.9,1,5.9,1.6,8.8c-5.7-0.7-11.4-1.7-17-2.6
		C522.4,367.8,522.3,365.6,522,363.5z"/>
	<path class="st21" d="M482.1,378.8c0.4,3,0.5,6.1,0.5,9.1c-2.5,1.4-4.9,2.9-7.4,4.4c-1.2-2.4-2.3-4.8-3.5-7.1
		C475.1,383,478.6,381,482.1,378.8z"/>
	<path class="st21" d="M314.5,381.4c5,1.1,10,2,15,3.3c-1.5,4-2.9,8.1-4.4,12.1c-2.7-1.7-5.3-3.4-8-5.1c-1.2-0.8-2.5-1.6-3.7-2.3
		c-0.7-0.5-1.3-0.9-2-1.4c0.1-0.3,0.3-1,0.3-1.4c0.5-0.9,0.9-1.8,1.4-2.7C313.6,383.1,314,382.3,314.5,381.4z"/>
	<g class="st1">
		<path class="st58" d="M796.9,301.6c15.8,4.9,31.8,9.2,48.1,12.7c-13.7,14.8-28,29.1-42.8,42.9c-1.8-15.1-3.5-30.2-4.6-45.5
			c-0.1-0.9-0.1-1.8-0.2-2.6C797.2,306.6,797,304.1,796.9,301.6z M829.3,321.8c-9.5,3.2-19.7,1.9-28.1-2.4
			c-0.1,10.1,1.4,20.2,4.2,29.6c6.6-6.2,12.9-12.7,18.5-19.8C825.8,326.9,828.4,324.7,829.3,321.8z"/>
	</g>
	<g class="st1">
		<path class="st58" d="M663.5,294.6c12.8-6,28.3-7.2,39.9-0.1c-3.9,0.6-7.8,0.7-11.7,1.7c-7.7,1.9-15.3,5.8-20.5,12.1
			c-6.1,7.5-8.3,17.5-6.5,26.3c1.5,7.8,6,14.5,11.9,19.5c4.3,3.9,9.8,5.9,14.5,9.3c-0.4,0.9-1.4,1-2.2,1.3
			c-7.4,2.4-14.8,4.4-22.4,5.6c-3.7,0.7-7.4,0.5-11,1.6c-10.3-1.1-20.6-5.1-27.1-13c0.8-0.2,1.5-0.4,2.3-0.6c-1-0.4-2.1-0.8-3.1-1.3
			c-3.8-11.3,0-24.2,5.7-35c1.8-2.2,3.4-4.5,4.8-6.8c2.8-4.4,6.7-8,10.4-11.7C653.5,300.5,658.2,296.9,663.5,294.6z M661,355.6
			c-4.2-0.6-10.1,0.8-11.6,5.5c-0.4,4.8,5.2,6.8,9.2,6.3c5.5-0.6,11.4-2.3,15.8-6.2C671.8,356.6,665.7,356.4,661,355.6z"/>
	</g>
	<path class="st59" d="M536.1,146.9c8.1,7.9,16.5,15.4,25,22.9c-4.9,2.1-9.8,4-14.8,5.9c-3.5,1.3-7,2.7-10.4,4.3
		c-6.7,2.4-13.3,4.9-20,7.2c-1.1,0.4-2.3,0.8-3.4,1.2c-2.1,0.7-4.3,1.5-6.4,2.4c-0.1-0.3-0.3-0.8-0.3-1c0.2-0.7,0.4-1.4,0.6-2.1
		c1.5-4.3,3-8.5,4.4-12.8c0.6-1.7,1.2-3.4,2.2-4.9c1.1-1,2.2-2,3.2-2.9c-1.6,5.3-3.1,10.6-4,16c11.4-3.6,22.4-8.6,33-14.4
		c-7.7-1.4-14.9-4.9-20-10.7C528.9,154.1,532.5,150.5,536.1,146.9z"/>
	<path class="st59" d="M397.6,446.7c0.6,0.8,1,1.8,1.2,2.9C396.9,450.2,396,447.8,397.6,446.7z"/>
	<path class="st22" d="M492.9,280.9c3.1,3.8,5.9,7.9,8.9,11.7c-2.2-0.4-4.5-0.6-6.5-1.4c-2.3-2.2-4-4.9-6.2-7.2
		c-0.5-0.8-1.1-1.6-1.6-2.4c-0.1-0.3-0.2-0.8-0.3-1C489.1,280.7,491,280.8,492.9,280.9z"/>
	<path class="st22" d="M458.4,382.4c3.2,0.6,4,4.2,5.6,6.5c-2-0.2-4-0.4-6-0.5c-12.8-0.9-26.6,0.7-38.3,7.9
		c-8.4,5.2-14.3,13.9-17,23.2c-0.4,1.5-0.8,3-1.1,4.5c-1,5.4-1.6,11-0.6,16.4c0.2,1.3,0.6,2.6,0.9,3.8c1.6,4.3,4.9,7.9,9.3,9.4
		c7.5,2.7,16,1.2,23.8-1.2c0,3.1,1.2,6.2,0.5,9.2c-7.3,3.4-15.9,4.3-23,1.3c-6.2-2.5-10.5-7.8-13.9-13.3c-0.2-1.1-0.6-2-1.2-2.9
		c-3.9-7.4-3.5-16.6-1-24.9c0.5-1.6,1.1-3.2,1.8-4.8c5.6-12.7,15.6-23.8,27.8-30.6C436.2,380.9,448.2,378.8,458.4,382.4z"/>
	<path class="st60" d="M771.1,275.1c0.5-0.1,1-0.3,1.4-0.4c1.8,1.3,3.7,2.3,5.3,3.9c2.1,2.4,2.1,5.8,2.3,8.8l-0.4,0.8
		c-2.2-1.2-4-3-5.5-4.9l-0.5,0.4c0-1.2-0.4-2.3-0.8-3.4C772.1,278.7,771.3,277,771.1,275.1z"/>
	<g class="st1">
		<path class="st61" d="M787.5,298.6c2,0.6,4.1,1.4,6.1,2c-6.2,0.1-12.3,1.9-18.3,3.3c6.3,4,14.1,7.8,22.1,5.3
			c0.1,0.9,0.1,1.8,0.2,2.6c-9.2,2.3-18-1.8-24.9-6.7c-1.8-0.3-3.7,1.3-5.3,2.3c-3.3,2.3-3.3,6.6-2,9.7c1.6,4.7,6.7,6.4,9.6,10.1
			c4.3,4.9,4,13.5-1.2,18.6c-2.2,2.5-5.3,3.8-8.3,4.8c-0.1-0.9-0.2-1.7-0.3-2.6c6.2-1.2,11.3-7.6,10.2-13.7
			c-0.6-6.9-8.1-9-11.3-14.1c-1.8-3.2-2.8-7.4-1-11.1c1.4-3.1,4.7-4.7,7.5-6.2c-1.8-3.2-2.6-7-2.3-10.8c0.8,0.3,1.6,0.6,2.5,0.9
			c-0.1,3.3,0.8,6.3,2.3,9C777.8,300.5,782.7,299.8,787.5,298.6z"/>
	</g>
	<path class="st17" d="M864,416.1c10.1-2,20,0.5,29,4.1c-0.2,0.2-0.5,0.6-0.7,0.8c-1.8,2-3.6,4-5.8,5.6c-6.4-3.9-14.2-6.5-22.1-4.4
		c-5.4,1.3-10.2,4.9-13.6,9.4c-1.4,2-2.7,4-3.8,6.2c-4.8,10.7-4.9,23.8,2.3,32.4c1.5,1.5,3.2,2.8,5.1,3.9c6.3,3.1,14.2,0.8,20-3.4
		c2.2-1.6,4.3-3.2,6.5-4.7c-0.9,3.1-1.3,6.5-2.8,9.5c-2.9,3.9-7.4,6.7-12.1,7.5c-5.1,0.9-10.2-0.2-14.6-2.4c-1.7-1-3.2-2.1-4.7-3.4
		c-6.9-6-10-15.6-8.6-25.1c0.9-5.7,2.3-11.3,4.6-16.7c1-2.2,2.1-4.3,3.3-6.4C850.1,422.5,856.7,417.5,864,416.1z"/>
	<path class="st17" d="M799.5,415.6c1.6,1.7,3.2,3.3,4.9,4.9c-4.7,4.7-9.5,9.5-14.2,14.2c-0.7-2.7-1.4-5.4-2-8.1
		C792.1,423.1,795.6,419.1,799.5,415.6z"/>
	<path class="st17" d="M707.9,440c4.6,1,9.2,2,13.8,3c-1.2,3.9-2.4,7.8-4.1,11.5c-4.2-2.8-8.4-5.6-12.7-8.2
		C705.7,444.1,706.7,442,707.9,440z"/>
	<path class="st17" d="M391.8,502.9c0.4,2.7,0.4,5.5,0.6,8.3c-2.3,1.5-4.7,3.1-7.2,4.3c-1-2.2-2-4.4-3.2-6.5
		C385.2,506.7,388.6,504.9,391.8,502.9z"/>
	<g class="st1">
		<path class="st62" d="M697.6,285.2c10.3,2.6,17.8,10.8,22.6,19.8c0,1.6,0,3.3,0,4.9c-2.9-4.4-4.9-9.4-8.6-13.2
			c-6.2-7.2-15.7-11.4-25.7-10.9c-12.1,0.4-23.8,6.3-33.6,13.9c-1.5,1-2.6,2.4-3.7,3.9c-3.7,3.7-7.6,7.3-10.4,11.7
			c-1.5,2.4-3.1,4.6-4.8,6.8c5.8-10.4,13.6-20.1,23.6-26.8C668.8,286.9,684,281.6,697.6,285.2z"/>
	</g>
	<path class="st23" d="M705.5,300.3c2.3-2.5,5.1,0.2,6.2,2.2c2.3,4.3,3.9,9.5,3,14.7c-3.7,0.9-6.3-2.3-8.3-4.7
		C703.8,309.4,701.8,304,705.5,300.3z"/>
	<path class="st23" d="M725.1,325.5c-0.3,11.1-6.5,21.8-15,29.4c-9.4,8.3-21.1,14.2-33.2,16.3c1.4-0.6,2.7-1.3,4.2-1.8
		c12.1-3.4,23.8-10.1,32.2-20.1c5.3-6.3,8.8-14.1,9.3-22C723.3,326.9,724.5,325.9,725.1,325.5z"/>
	<path class="st23" d="M710.8,318.9c5.9,3,8.2,10.5,6.6,17.1c-1.7,7.4-7.6,14.6-15.3,16.3c-7.2,1.3-14.5-3.6-15.4-10.7
		c-1.1-7.8,3-16.2,9.6-21.1C700.5,317.4,706.4,316.5,710.8,318.9z"/>
	<g class="st1">
		<path class="st63" d="M650,237.5c-0.2,1.1-0.4,2.2-0.5,3.4c-3.7,3.6-3.4,9-2.1,13.2c-0.2,2-0.6,3.9-0.9,5.9
			c-1.1-3.9-2.3-7.9-2.2-12C644.4,243.9,646.6,239.9,650,237.5z"/>
	</g>
	<path class="st64" d="M561.1,169.8c5.3,4.7,10.9,9.1,16.3,13.7c-9.4-4.9-20-8-31.1-7.8C551.3,173.8,556.2,171.8,561.1,169.8z"/>
	<path class="st65" d="M577.4,183.5c2.4,1.9,4.9,3.9,7.3,5.8c-0.3,1.2-0.6,2.4-1,3.6c-8.9-6.1-18.8-11.2-29.8-12.7
		c-5.9-1-12-0.6-18-0.2c3.4-1.6,6.9-2.9,10.4-4.3C557.4,175.5,568,178.6,577.4,183.5z"/>
	<g class="st1">
		<path class="st24" d="M554,180.2c11.1,1.5,20.9,6.6,29.8,12.7c-0.6,2.4-1.3,4.7-1.9,7.1c-3.3-2.3-6.7-6.2-11.4-4.7
			c-3.7,1.8-4.8,6.5-4.5,10.1c0.9,6.4,5.9,10.9,10.8,14.4c-0.7,3-1.4,5.9-2.2,8.9c-9.2,3-16.3,11.2-19.8,20.1
			c-4.4,10.8-4.8,23.4,0.7,33c6.6,11.5,23.8,15.3,35.8,7.1c14-9.8,19.9-29.2,14.7-44.1c-1.7-4.9-5-8.8-8.6-12.4
			c4.2-2.1,8.3-4.2,12.5-6.4c5.5,12.7,6.1,27.7,2.1,41.8c-4.8,16.5-14.8,31.5-27.3,43.7c-13.8,13.9-30.7,24.3-48.8,30.8
			c-5,1.8-10.1,3.5-15.3,4.3c4.2-2.9,9-4.4,13.5-6.6c14-6.7,27.7-14.4,40.4-23.6c-7-3.4-15.1-3.8-22.5-6
			c-14.8-4.3-28.6-12.5-37.6-24.9c-9.1-12.6-13-29.4-9-45.6c2.4-10.3,8.2-19.9,15.9-27.6c11-11.2,25.2-18.3,39.6-23
			c-9.2-2.8-19.4-2.9-29.2-1.1c-5.5,0.9-10.8,3-16.2,4.5c0.2-1.8,0.3-3.7,0.5-5.5c6.7-2.3,13.4-4.8,20-7.2
			C542,179.6,548.1,179.2,554,180.2z M543.7,227c-2.6,1.3-5.2,2.6-7.8,3.9c0.9,5.5,1.7,11,2.8,16.4c3.4-1.2,6.8-2.3,10.1-3.7
			C547.1,238.2,545.4,232.6,543.7,227z"/>
	</g>
	<g class="st1">
		<path class="st66" d="M614.1,223.8c1.6,4.6,3.1,9.3,3.8,14.3c1.8,11.8-0.1,24.3-4.7,35.8c-0.3,0.8-0.6,1.5-1,2.3
			c-10.5,23.7-30.2,43.2-52.4,56.3c-21.5,12.1-46,19.1-69.8,17.9c3.8-0.7,7.5-0.4,11.3-0.7c6.5-0.4,13-1.4,19.4-3.2
			c5.2-0.8,10.3-2.5,15.3-4.3c18-6.4,35-16.9,48.8-30.8c12.4-12.2,22.5-27.2,27.3-43.7c4.1-14,3.4-29-2.1-41.8
			C611.4,225.3,612.8,224.5,614.1,223.8z"/>
	</g>
	<path class="st25" d="M570.5,195.3c4.7-1.4,8.1,2.4,11.4,4.7c-1.7,6.6-3.4,13.2-5.1,19.8c-5-3.4-10-7.9-10.8-14.4
		C565.7,201.8,566.8,197.1,570.5,195.3z"/>
	<g class="st1">
		<path class="st67" d="M597.5,232.3c3.5,3.6,6.9,7.5,8.6,12.4c5.2,14.9-0.6,34.3-14.7,44.1c-12,8.2-29.1,4.4-35.8-7.1
			c-5.6-9.6-5.1-22.2-0.7-33c3.5-8.8,10.5-17.1,19.8-20.1c-1.3,5.5-2.5,11-3.8,16.5C579.8,241,588.7,236.8,597.5,232.3z
			 M567.9,277.1c0,2.3,0.2,4.5,0.4,6.8c5.5,0.8,10.9,1.8,16.3,2.5l0.4-0.3c-0.2-2.9-1-5.5-1.3-8.4
			C578.5,277.5,573.2,277.4,567.9,277.1z"/>
	</g>
	<path class="st25" d="M538.2,317.7c1.6,0.6,3.5,1.9,3.2,3.9c-1.4,2.7-4,4.6-6.3,6.6c-7.2,5.6-15.1,11.1-24,12.5
		c-5.4,1-11.2-0.6-14.1-5.1c-1.4-2.3-0.8-5.4,0.7-7.7c3.5-5.4,9.4-9,15.6-10C521.5,316.5,530.3,315.2,538.2,317.7z"/>
	<g class="st1">
		<path class="st68" d="M854.4,499c6.6,5.1,16,4.3,24.3,3.6c-0.3,1.9-0.6,3.8-0.9,5.7c-8.7,1.3-18.3,1.2-25.1-4.1
			c-7.6-6.2-8.1-17.6-5.8-27.1c1.5,1.3,3,2.4,4.7,3.4C850.1,486.8,849.1,494.7,854.4,499z"/>
	</g>
	<g class="st1">
		<path class="st26" d="M531.7,188.1c9.8-1.8,20-1.7,29.2,1.1c-14.4,4.7-28.6,11.8-39.6,23c-7.6,7.7-13.5,17.3-15.9,27.6
			c-4,16.1,0,33,9,45.6c9,12.5,22.8,20.6,37.6,24.9c7.4,2.2,15.6,2.6,22.5,6c-12.7,9.2-26.3,16.9-40.4,23.6
			c-4.5,2.3-9.3,3.8-13.5,6.6c-6.4,1.9-12.9,2.8-19.4,3.2c-3.8,0.3-7.5,0-11.3,0.7c-5.6,0-11-1-16.3-2.3c8.7-9.8,15.7-21.5,18-34.2
			c2-10.2,0.8-20.6-2.7-29.9c2.2,2.3,3.9,5,6.2,7.2c2.1,0.8,4.3,1,6.5,1.4c-3.1-3.8-5.9-7.9-8.9-11.7c-1.9-0.1-3.7-0.2-5.6-0.3
			c-0.3-1.3-0.7-2.6-1.3-3.8c-4-7.8-9.2-15-15.5-21c14.1-9,26.6-21.3,35.3-35.6c5.1-8.5,8.6-18,9.7-27.6
			C520.8,191.1,526.2,189,531.7,188.1z M538.2,317.7c-7.9-2.5-16.7-1.2-25,0.2c-6.1,0.9-12.1,4.6-15.6,10c-1.5,2.3-2.1,5.4-0.7,7.7
			c2.9,4.5,8.7,6,14.1,5.1c8.9-1.5,16.8-7,24-12.5c2.3-2,4.9-3.9,6.3-6.6C541.7,319.6,539.8,318.3,538.2,317.7z"/>
	</g>
	<g class="st1">
		<g>
			<path class="st69" d="M644.8,273.4c-0.2,1.5-0.3,3-0.5,4.5c-3.4,3.5-7.8,6.5-12.7,6.4c-4.6,0.2-8.2-3.1-10-6.9
				c-3.1-0.5-6.2-0.9-9.3-1.3c0.3-0.8,0.7-1.6,1-2.3c2.5,0.4,5.1,0.8,7.6,1.1c0.4-2.4,0.5-5,2.4-6.8c2-2.4,5.9-3.5,8.2-1.5
				c1.7,1.8,1.5,4.8,0,7c-1.6,2.6-4.8,3.2-7.3,4.3c2.2,2.1,4.7,4.6,8.1,4.2C637.6,282,641.8,277.7,644.8,273.4z M628.6,267.8
				c-3.7-0.1-6.1,4.4-5.1,7.5c2.3-0.6,5.1-0.8,6.3-3.2C630.6,270.6,630.7,267.9,628.6,267.8z"/>
		</g>
	</g>
	<g class="st1">
		<path class="st70" d="M521.5,153.5c-1.6,4.5-3.4,8.9-5.2,13.4c-1.1,1-2.2,2-3.2,2.9c-0.7-1.9-1.5-3.8-2.1-5.8L521.5,153.5z"/>
	</g>
	<path class="st71" d="M510.9,164.1c0.6,1.9,1.4,3.8,2.1,5.8c-1,1.5-1.6,3.2-2.2,4.9c-0.7-2.6-1.8-5.1-3.2-7.4L510.9,164.1z"/>
	<path class="st72" d="M512.5,188.3c1.1-0.4,2.2-0.8,3.4-1.2c-0.1,1.8-0.3,3.7-0.5,5.5c-1.1,9.6-4.7,19.1-9.7,27.6
		c-8.7,14.4-21.1,26.6-35.3,35.6c-0.2-0.2-0.7-0.6-0.9-0.8c14-9,26.1-21.4,34.4-35.9C509.1,209.5,512.6,198.9,512.5,188.3z"/>
	<g class="st1">
		<path class="st73" d="M618.4,347.6c3.8,1.9,6.5,5.2,8.3,9c0.2,0.1,0.7,0.3,1,0.4c1,0.4,2.1,0.8,3.1,1.3c-0.8,0.2-1.5,0.4-2.3,0.6
			c-1.8,2.4-3.7,4.8-5.4,7.3c0.1-1.8,0.2-3.8-0.5-5.4c-0.7-1.7-2.6-2.3-4.1-3.2c1.8-0.1,3.7-0.2,5.5-0.4c-3-8-12.6-10.5-20.8-9.2
			c-8.9,1.2-16.3,7.8-21.5,15c-11.2,15.4-13.9,34.5-24.8,50c-9.6,13.9-26.2,23.4-42.5,23.2c-5,2.8-10.4,5.2-16.1,5.2
			c-17.3,0.8-31.1-10.5-48-11.2c1.2,3.7,1.6,8-0.6,11.8c-3.5,7.2-14.9,7.6-18.1,1c-1.6-3.6,0.1-8.3,3.3-10.8
			c2.9-2.6,6.6-3.7,10.2-4.6c-4.1-3.3-9.8-4.2-15.3-3.2c-11.3,1.8-21.6,9.5-27.5,19.5c-0.4-1.3-0.7-2.5-0.9-3.8
			c4.9-6.2,10.8-11.6,17.7-15.3c4.5-0.8,9-1.9,13.4-3.5c6-0.3,12.3,1.3,16,6c12,0.2,22.5,5.3,33.4,8.8c8.9,2.9,19.3,4.3,28.5-0.7
			c-4.6-1.6-9.3-4-11.1-8.7c-3.1-6.4-1.3-16.2,6.1-19.8c8.4-3.8,17.2,3.2,18.3,11.3c0.8,5.5-2.2,10.9-6,15.1
			c14.8-0.8,29.3-10,37.7-22.6c6.9-10.5,10.5-22.4,15.5-33.7c4.6-10.1,10.6-20.4,20.1-26.8C599,344.6,610,343.5,618.4,347.6z
			 M513.5,409.6c-3.4-1.6-8.2-0.8-10.7,2.6c-2.9,3.8-3.1,8.9-1.6,12.9c1.8,5.1,7.2,7.8,12.4,8.2c3.8-3,6.9-7.4,7.2-12.2
			C520.9,416.1,517.9,411.5,513.5,409.6z M446.7,430.4c-3.6,0.6-7.3,1.5-10.3,3.9c-2.6,2-4,5.8-2.3,8.5c2.8,3.3,8.7,3.4,12,0
			C449,439,448.8,434,446.7,430.4z"/>
	</g>
	<path class="st74" d="M618.3,357.8c1.5,0.9,3.4,1.4,4.1,3.2c0.8,1.6,0.6,3.5,0.5,5.4l-0.4,0.6C620,364.7,618,361.5,618.3,357.8z"/>
	<path class="st48" d="M466.9,252.8c0.9,0.8,1.8,1.5,2.6,2.3c0.2,0.2,0.7,0.6,0.9,0.8c6.4,6,11.5,13.2,15.5,21
		c0.6,1.2,1,2.4,1.3,3.8c0.1,0.3,0.2,0.8,0.3,1c0.5,0.8,1,1.6,1.6,2.4c3.4,9.3,4.7,19.7,2.7,29.9c-2.3,12.7-9.3,24.4-18,34.2
		c-17,18.1-40.2,30.6-64.1,34l-0.5-0.7c22.6-3.8,44.8-15.1,60.9-32.5c10.9-11.4,18.6-26.4,19-41.7c0.6-13.6-4.4-26.4-11.6-37
		c-7-10.3-16.5-19.2-28.6-23.2c-5.8-1.9-12-3.1-18.3-2.6l3.2-3.2C446,241.1,457.8,245.3,466.9,252.8z"/>
	<path class="st44" d="M464.7,263.6c5.6,4.7,8.1,12.2,9.9,19.2c0.5,2.1,0.9,6.3-2.3,6.7c-4.2-0.4-7.7-3-10.6-5.7
		c-3.7-3.9-7.3-8.9-6.5-14.8c0.6-2.6,2-5.7,4.8-6.6C461.7,261.7,463.4,262.6,464.7,263.6z"/>
	<path class="st44" d="M470.9,293c7.5,4.1,11.8,12.6,11.5,21.4c-0.3,11.5-6.9,23.6-17.5,29.3c-7.5,4.2-17,3.2-23-1.8
		c0.3-1,0.6-1.9,0.9-2.8c-1.8-0.4-3.6-0.8-5.5-1.2c-7.9-13-2.1-31.9,10.3-41.9C454.3,290.6,463.9,289.1,470.9,293z"/>
	<g class="st1">
		<path class="st75" d="M408.5,358.6c3.4,0.6,7.2,1.3,9.1,4.4c0.5,2.9-3.4,3.9-5.2,5.5c0.8-1.2,1.5-2.4,2.3-3.6
			C413.1,362.4,410.9,360.4,408.5,358.6z"/>
	</g>
	<g class="st1">
		<path class="st76" d="M379.4,365.3c2.6-4,7.3-7.5,12-7.2c-5.3,3.3-9,8.7-10.4,14.6C379.3,370.9,377.7,368.1,379.4,365.3z"/>
	</g>
	<g class="st1">
		<path class="st77" d="M336.9,338.1c0.5,3.3,0.9,6.9-0.9,10.1c-3.8,7-12,10.6-19.4,10.2l2.2-2.2c5.7-0.5,12.1-3,15-8.6
			c1.5-2.4,1.3-5.1,1.2-7.6L336.9,338.1z"/>
	</g>
	<path class="st78" d="M366.3,380c1,0.3,1.9,0.5,2.9,0.8c-1.8,8-2.7,16.2-3.9,24.2c-2.3,15.8-5.6,32.2-15.4,45.8
		c-6,8.6-15.2,14.8-25,17.7c0.1-1,0.3-2,0.4-2.9c9.8-2.9,18.6-9.7,24-18.5c8.9-13.9,11.5-30.1,13.7-45.7
		C364,394.3,365.4,387.2,366.3,380z"/>
	<path class="st79" d="M330.2,367.8c1.9,1,3.8,2,5.2,3.5c2,2.2,2.1,5.4,2.5,8.3l0.8-0.8c-0.5,0.8-0.9,1.6-1.4,2.3
		c-5.1-2.4-7.3-7.9-8.5-13.1C329.2,368,329.8,367.8,330.2,367.8z"/>
	<g class="st1">
		<path class="st80" d="M306.3,368.7c1,2.8,2.1,5.6,3.4,8.3c-0.3,1-0.6,2.1-0.9,3.2c-1.6-3.1-3.1-6.3-4.3-9.7L306.3,368.7z"/>
	</g>
	<g class="st1">
		<path class="st81" d="M313.5,389.4c1.2,0.8,2.5,1.6,3.7,2.3c2,5.5,4.2,11,4.6,17c0.6,6.5-1,13.3-4.1,19.3
			c-0.4-0.8-0.9-1.6-1.3-2.4c3.1-6.7,4-14.2,2.4-21C317.7,399.3,315.3,394.5,313.5,389.4z"/>
	</g>
</g>
<g>
	<g id="XMLID_1_">
		<g>
			
				<rect x="-750.2" y="-748.2" transform="matrix(0.7071 -0.7071 0.7071 0.7071 -265.6825 638.5858)" class="st82" width="2776.3" height="2776.3"/>
			<g id="Background_1_" class="st0">
				<g class="st1">
					<g>
						<defs>
							<polyline id="SVGID_4_" points="1243.4,37.5 1243.4,1240.5 36.3,1243.9 36.3,37.8 							"/>
						</defs>
						<clipPath id="SVGID_5_">
							<use xlink:href="#SVGID_4_"  style="overflow:visible;"/>
						</clipPath>
						
							<radialGradient id="SVGID_6_" cx="-266.7697" cy="536.6936" r="1248.5139" gradientTransform="matrix(1 0 0 -1 853.7069 899.1687)" gradientUnits="userSpaceOnUse">
							<stop  offset="2.874510e-02" style="stop-color:#79358A"/>
							<stop  offset="0.5942" style="stop-color:#4E1157"/>
							<stop  offset="0.9107" style="stop-color:#3A0B40"/>
						</radialGradient>
						<path class="st83" d="M1243.4,37.5H36.3v1206.4h1207.1c0-0.2,0-0.5,0-0.7v-129.4c-0.1-2-0.1-4.1,0-6.2v-22.3c-0.1-2-0.1-4,0-6
							c-0.1-2-0.1-4,0-6V306.1c-0.1-2-0.1-4,0-6V37.5z"/>
					</g>
					<g>
						<g class="st3">
							<g>
								<polygon class="st4" points="36.3,44 42.8,37.5 36.6,37.5 36.3,37.8 								"/>
							</g>
							<g>
								<polygon class="st4" points="36.3,117.1 115.9,37.5 109.7,37.5 36.3,110.9 								"/>
							</g>
							<g>
								<polygon class="st4" points="36.3,190.2 189,37.5 182.7,37.5 36.3,183.9 								"/>
							</g>
							<g>
								<polygon class="st4" points="36.3,262.9 261.7,37.5 255.8,37.5 36.3,257 								"/>
							</g>
							<g>
								<polygon class="st4" points="36.3,336 334.8,37.5 328.6,37.5 36.3,329.7 								"/>
							</g>
							<g>
								<polygon class="st4" points="36.3,409 407.9,37.5 401.6,37.5 36.3,402.8 								"/>
							</g>
							<g>
								<polygon class="st4" points="36.3,482.1 480.9,37.5 474.7,37.5 36.3,475.9 								"/>
							</g>
							<g>
								<polygon class="st4" points="36.3,555.2 554,37.5 547.8,37.5 36.3,549 								"/>
							</g>
							<g>
								<polygon class="st4" points="36.3,628.3 627.1,37.5 620.9,37.5 36.3,622 								"/>
							</g>
							<g>
								<polygon class="st4" points="36.3,701.2 700.1,37.5 693.9,37.5 36.3,695.1 								"/>
							</g>
							<g>
								<polygon class="st4" points="36.3,774.3 773,37.5 767,37.5 36.3,768 								"/>
							</g>
							<g>
								<polygon class="st4" points="36.3,847.2 846,37.5 839.8,37.5 36.3,841.1 								"/>
							</g>
							<g>
								<polygon class="st4" points="36.3,920.2 919.1,37.5 912.8,37.5 36.3,914 								"/>
							</g>
							<g>
								<polygon class="st4" points="36.3,993.3 992.1,37.5 985.9,37.5 36.3,987.1 								"/>
							</g>
							<g>
								<polygon class="st4" points="36.3,1066.4 1065.2,37.5 1059,37.5 36.3,1060.2 								"/>
							</g>
							<g>
								<polygon class="st4" points="36.3,1139.5 1138.3,37.5 1132.1,37.5 36.3,1133.2 								"/>
							</g>
							<g>
								<polygon class="st4" points="36.3,1212.5 1211.1,37.5 1205.1,37.5 36.3,1206.3 								"/>
							</g>
							<g>
								<polygon class="st4" points="150.8,1243.9 1243.4,151.2 1243.4,145.1 144.8,1243.9 								"/>
							</g>
							<g>
								<polygon class="st4" points="223.8,1243.9 1243.4,224.3 1243.4,218.1 217.6,1243.9 								"/>
							</g>
							<g>
								<polygon class="st4" points="296.9,1243.9 1243.4,297.4 1243.4,291.2 290.7,1243.9 								"/>
							</g>
							<g>
								<polygon class="st4" points="370,1243.9 1243.4,370.5 1243.4,364.2 363.8,1243.9 								"/>
							</g>
							<g>
								<polygon class="st4" points="443.1,1243.9 1243.4,443.5 1243.4,437.3 436.8,1243.9 								"/>
							</g>
							<g>
								<polygon class="st4" points="516.1,1243.9 1243.4,516.6 1243.4,510.4 509.9,1243.9 								"/>
							</g>
							<g>
								<polygon class="st4" points="588.9,1243.9 1243.4,589.5 1243.4,583.5 583,1243.9 								"/>
							</g>
							<g>
								<polygon class="st4" points="662,1243.9 1243.4,662.4 1243.4,656.4 655.8,1243.9 								"/>
							</g>
							<g>
								<polygon class="st4" points="735,1243.9 1243.4,735.5 1243.4,729.3 728.8,1243.9 								"/>
							</g>
							<g>
								<polygon class="st4" points="808.1,1243.9 1243.4,808.6 1243.4,802.4 801.9,1243.9 								"/>
							</g>
							<g>
								<polygon class="st4" points="881.2,1243.9 1243.4,881.7 1243.4,875.4 875,1243.9 								"/>
							</g>
							<g>
								<polygon class="st4" points="954.3,1243.9 1243.4,954.7 1243.4,948.5 948,1243.9 								"/>
							</g>
							<g>
								<polygon class="st4" points="1027.3,1243.9 1243.4,1027.8 1243.4,1021.6 1021.1,1243.9 								"/>
							</g>
							<g>
								<polygon class="st4" points="1100.1,1243.9 1243.4,1100.6 1243.4,1094.7 1094.2,1243.9 								"/>
							</g>
							<g>
								<polygon class="st4" points="1173.1,1243.9 1243.4,1173.6 1243.4,1167.4 1166.9,1243.9 								"/>
							</g>
							<g>
								<path class="st4" d="M1243.4,1243.9c0-0.2,0-0.5,0-0.7v-2.7l-3.4,3.4H1243.4z"/>
							</g>
						</g>
						<polygon class="st4" points="72.9,1243.9 1243.4,73.1 1243.4,67.2 66.7,1243.9 						"/>
					</g>
				</g>
			</g>
		</g>
		<g>
			
				<rect x="214.4" y="216.4" transform="matrix(0.7071 -0.7071 0.7071 0.7071 -265.6825 638.5858)" class="st84" width="847.3" height="847.3"/>
		</g>
	</g>
	<circle class="st85" cx="638.4" cy="640" r="500"/>
	<line class="st86" x1="637.9" y1="558.4" x2="622.2" y2="574.1"/>
	<path class="st87" d="M638.4,571.3"/>
	<g>
		<line class="st86" x1="609" y1="707.2" x2="609" y2="877.6"/>
	</g>
	<path class="st88" d="M641.6,747.3c5.1-7.3,8.8-15.3,7.4-24.4c-1.8-12.3-11.4-22.9-23.2-26.5c0,0,0,0,0.1,0c-0.1,0-0.2-0.1-0.3-0.1
		c0,0,0,0,0,0c-0.4,0-0.8-0.1-1.2-0.1c-2.2-0.1-4.4-0.2-6.6-0.3c-0.1,0.3-0.2,0.6-0.2,0.9c-0.1,0.5-0.3,0.9-0.4,1.4c0,0,0,0,0,0
		c0.1,0,0.1,0,0.1,0.1c0.1,0.1,0.3,0.1,0.4,0.2c0.2,0.1,0.4,0.1,0.6,0.2c0,0,0,0,0,0c1,0,1.8,0.1,2.7,0.4c0-0.1-0.1-0.1-0.1-0.2
		c16.3,2,29.3,19.9,24.1,36c-5.1,16.2-20.1,25.9-29.1,39.7c-5,7.3-8.4,16.4-6.1,25.3c1,5.2,4.1,9.6,7.6,13.5
		c-1.1,11.1,1,23.5,9.5,31.4l1.1-3.3c-6.5-7-8.1-16.8-7.7-26c5.7,2.6,12.5,2.4,17.4-1.7c0.1,0,0.2-0.1,0.3-0.2
		c0.1-0.1,0.2-0.2,0.3-0.3c1.1-1.8,2-3.9,2.1-6c0,0,0,0,0-0.1c0-0.1,0-0.1,0-0.2c0-0.1,0-0.2,0-0.3l0-0.1c-1.5-4.8-6.2-8.6-11.4-7.8
		c-5.5,0.6-9,5.6-10.9,10.4c-5.3-6.2-7.3-15.2-4.3-22.9C618.7,770.7,632.8,760.2,641.6,747.3z M629.6,801.7c4.2-0.7,9.1,4.2,6.5,8.2
		c-3.5,5-10.9,4.7-15.5,1.5C621.8,807.1,624.6,802.1,629.6,801.7z"/>
	<polygon class="st89" points="615.5,687.4 606.4,704.3 615.5,704.3 624.5,704.3 	"/>
	<path class="st90" d="M635.9,672.5"/>
	<path class="st90" d="M638,639.1"/>
	<path class="st90" d="M633.6,710.7"/>
</g>
<text transform="matrix(1 0 0 1 141.5338 695.843)" class="st4 st8 st91">ШАРОДУВЫ</text>
<g>
	<path class="st92" d="M242.2,540.4c-1.1,1.8,0.1,4.2,1.5,5.7c3.8,4.2,9.2,6.9,14.8,7.3c2.1,0.2,4.3,0,6.1-1.2
		c1.8-1.2,2.9-3.5,2.1-5.4c-0.7-1.7-2.6-2.7-3.4-4.3c-1.3-2.6,0.6-5.7,0.4-8.5c-0.2-2.1-1.6-4-3.5-4.9c-1.9-0.8-4.3-0.5-5.9,0.8
		c-2.5,2.1-3.1,6-6,7.6C246.2,538.7,243.4,538.5,242.2,540.4z"/>
	<path class="st93" d="M257,536.7c-94.7-38.8-28.6-214,75.7-169.5C437.1,411.7,366,581.4,257,536.7z"/>
	<path class="st94" d="M359.4,461.5c9.8-4.7,12.8-17.3,12-28.1c-1.1-14.2-7-27.9-16.5-38.5c-6-6.6-15-12.3-23.4-9.3
		c-5.3,1.9-9,7.1-10.5,12.6c-1.5,5.5-1.2,11.2-0.8,16.9c1.1,14.8,3.8,30.8,14.6,40.9C341.3,462.2,351.4,465.4,359.4,461.5z"/>
	<path class="st94" d="M345.8,483c1.1,1.8,3,2.9,5,3.5c3.7,1.1,8,0.5,10.8-2.1c2.9-2.6,3.9-7.2,1.9-10.4c-2.7-4.3-9.3-4.5-13.7-1.8
		C346.3,474.4,343.6,479.3,345.8,483z"/>
</g>
<path class="st95" d="M375,1061.7c-10.5-23.8-13.1-50.3-12-76.1c0.6-13.8,3.1-27.2,5.7-40.8c1.3-6.7,2.3-13.5,2.3-20.4
	c0-7.1-1.8-14.1-1.9-21.2c0-1.3-2-1.3-2,0c0,7.1,1.5,14.1,1.8,21.2c0.3,8.1-1.6,16.4-3.2,24.3c-2.6,12.9-4.5,25.7-5.2,38.9
	c-1.2,25.3,1.4,52.1,12.8,75C374,1063.7,375.5,1062.7,375,1061.7z"/>
<g>
	<path class="st96" d="M379.9,899.2c-0.6-1.1-2.1-1.1-3.1-1.9c-1.5-1.1-1.5-3.4-2.2-5.2c-1.1-2.6-4.6-3.9-7.2-2.7
		c-2.1,1-3.3,3.4-3.1,5.7c0.1,1-0.4,2-1.3,2.4l-0.2,0.1c-1.5,0.7-1.8,2.8-0.5,3.8c0,0,0,0,0,0c0.9,0.7,2,1,3.2,1.2
		c3.5,0.7,7.2,0.9,10.7,0.3c1-0.1,2.1-0.4,2.9-1C380,901.3,380.4,900.1,379.9,899.2z"/>
	<path class="st97" d="M371.3,894.3c-43.7,8.6-93.2-137.7-8.2-166.5C448.1,699,465.2,875.8,371.3,894.3z"/>
	<path class="st98" d="M383.5,733.7c-1.8,1.9-2.1,4.7-2.1,7.3c0,17.1,9.6,33.9,24.2,42.7c3.5,2.1,8,3.8,11.6,1.8
		c2.5-1.4,3.9-4.2,4.2-7c0.3-2.8-0.3-5.6-0.9-8.3c-1.9-8-4.3-16-8.7-22.9c-4.4-6.9-10.8-12.8-18.7-15.1
		C389.8,731.3,385.9,731.2,383.5,733.7z"/>
	<path class="st98" d="M419.7,790c-2.8,0.3-4.4,3.3-5.1,6c-0.7,3-0.6,6.3,0.9,9c1.6,2.7,4.9,4.4,7.8,3.6c2.7-0.8,4.4-3.5,4.7-6.3
		c0.3-2.8-0.7-5.5-2.1-7.9C424.8,792.1,422.5,789.7,419.7,790z"/>
</g>
<path class="st95" d="M381.1,892.9c-5.8,2.7-11.9,3.7-18.1,1.7c-0.9-0.3-1.3,1.1-0.4,1.5c6.2,2.2,13.8,2,19.2-1.9
	C382.7,893.6,382,892.5,381.1,892.9z"/>
<path class="st95" d="M930.4,500.1c-6,12.1-21.4,9.3-32.5,11.9c-11.2,2.6-22.9,10.3-29.1,20c-0.8,1.2,0.9,2.4,1.9,1.5
	c5.4-4.8,9.8-9.9,16.1-13.7c5.7-3.4,11.9-5.3,18.4-6.3c10-1.6,21.7-2.1,26.4-12.7C931.9,500,930.8,499.3,930.4,500.1z"/>
<path class="st95" d="M719.4,376.6c-0.4,22.5-7,41.5-21,59.1c-13,16.4-28.6,31.9-37,51.4c-0.6,1.3,1.2,2.4,1.9,1.1
	c11.7-20.4,27-37.6,40.8-56.4c12-16.2,16.6-35.4,16.6-55.3C720.8,375.7,719.4,375.7,719.4,376.6z"/>
<g>
	<path class="st99" d="M937.6,486.7c-1.9,0.6-3.3,2.1-5.3,2.5c-1.5,0.3-3.2,0-4.8-0.1c-1.6-0.1-3.4,0.3-4,1.6
		c-0.5,0.9-0.2,2,0.2,2.9c2.3,6,8.2,11.1,15.2,13.1c1.3,0.4,2.7,0.7,3.9,0.5c1.3-0.2,2.5-0.9,2.9-1.9c0.7-1.9-1.4-3.9-1.5-6
		c-0.1-1.7,1.2-3.1,1.8-4.6c0.7-2,0.2-4.4-1.5-6.1C942.7,486.8,939.9,486,937.6,486.7z"/>
	<path class="st100" d="M939.2,494.1c-30.2-24.5,9.7-117.5,66.3-120.4c56.6-2.9,89.3,46.5,68.9,84.8
		C1054.1,496.7,971.7,520.4,939.2,494.1z"/>
	<path class="st101" d="M1069.6,438.4c1.5-6,1.1-13.2-4.4-17.7c-4.3-3.5-10.9-4.1-16.1-2.4c-5.2,1.7-9.1,5.3-11.9,9.3
		c-4.3,6-6.7,13.2-6.8,20.6c0,3.3,0.4,6.6,2,9.7c1.6,3.1,4.6,5.8,8.2,6.8c5.8,1.6,11.5-1.4,15.5-4.9
		C1062.9,454.1,1067.6,446.6,1069.6,438.4z"/>
	<path class="st101" d="M1035,481.9c3.9-0.6,8.2-2.7,7.8-6.3c-0.2-2-2.1-3.8-4.3-4.7c-2.2-0.9-4.6-1-6.9-0.9
		c-4.1,0.2-8.8,1.7-9.2,5.2c-0.2,2.4,1.8,4.8,4.4,5.9C1029.3,482.2,1032.3,482.3,1035,481.9z"/>
</g>
<g>
	<path class="st102" d="M711.8,375c-0.6,1.8,1,3.5,2.5,4.6c4.1,2.8,9.3,3.9,14.1,3.1c1.8-0.3,3.7-0.9,5-2.3c1.3-1.4,1.7-3.6,0.6-5.1
		c-1-1.3-2.8-1.7-3.8-3c-1.6-2-0.7-5-1.5-7.4c-0.6-1.7-2.2-3.1-4-3.4c-1.8-0.3-3.8,0.5-4.9,2c-1.7,2.3-1.4,5.8-3.5,7.7
		C714.9,372.7,712.4,373.1,711.8,375z"/>
	<path class="st102" d="M723.7,368.8c-88.9-13.3-69.1-176.6,29.2-160.4C851.2,224.6,826,384.1,723.7,368.8z"/>
	<path class="st103" d="M795.4,283.2c7.4-6,7.3-17.4,4.3-26.4c-3.9-11.8-11.8-22.3-22.1-29.4c-6.5-4.4-15.4-7.4-21.9-3
		c-4.1,2.8-6.1,7.9-6.3,12.9c-0.2,5,1.3,9.8,2.8,14.6c4.1,12.4,9.7,25.4,21,31.8C780,287.6,789.3,288.2,795.4,283.2z"/>
	<path class="st103" d="M788.2,304.4c1.3,1.3,3.2,1.9,5,1.9c3.4,0.1,6.9-1.3,8.8-4.1c1.9-2.8,1.8-6.9-0.6-9.3
		c-3.2-3.1-8.9-1.9-12,1.3C786.8,297,785.6,301.7,788.2,304.4z"/>
</g>
<path class="st95" d="M733.2,370.3c-6-0.4-11.6,0.1-17.5-1.6c-0.6-0.2-0.8,0.7-0.2,0.9c5.5,1.9,11.9,2.8,17.7,2.1
	C734.1,371.5,734.1,370.3,733.2,370.3z"/>
<path class="st95" d="M947.2,499.4c-5.9-2.9-12.4-5.9-15.5-12c-0.3-0.7-1.5-0.5-1.6,0.2c-0.6,3,3,6,5,7.7c3.2,2.7,7.2,5,11.2,6.2
	C947.6,502,948.5,500,947.2,499.4z"/>
<path class="st104" d="M881.9,360c0,0-0.1,0-0.1,0c-2.2,0.1-4.1-1.2-4.8-3.3c-0.6-2.1-1.5-4.1-2.5-6c-1.6-2.9-5.8-2.4-7.3,0.2
	c-1.8,3.1-3.6,6.2-5.3,9.3c-0.7,1.3-2.1,2.2-3.6,2.4c-1.3,0.1-2.7,0.2-4,0.3c-4.3,0.2-5.7,6-1.9,8.1c0,0,0,0,0,0
	c1.9,1.1,2.7,3.4,2,5.4c-0.4,1.1-0.7,2.3-1,3.5c-0.1,0.5-0.1,0.9,0.1,1.2c-0.5,3,2.7,5.3,5.5,4.5c2.1-0.6,4.1-1.4,6.1-2.4
	c1.7-0.9,3.7-0.7,5.1,0.6c1.2,1,2.4,2,3.5,3.1c3.6,3.3,8.3-0.4,7.5-4.7c-0.5-2.5-0.8-5.1-1.1-7.7c-0.2-1.4,0.4-2.9,1.4-3.9
	c1.2-1.2,2.5-2.3,3.7-3.5C887.8,364.6,885.4,359.8,881.9,360z"/>
<path class="st95" d="M1036.2,939.3c-18.1-2.1-36-1.3-50.1-14.7c-0.7-0.6-1.5,0.3-1,1c9.5,12.1,25.7,13.9,40,15.2"/>
<g>
	<path class="st92" d="M992.8,914.8c-1.3,0-2.6,1.5-4,2c-2.1,0.9-3.9-0.6-5.9-0.9c-3-0.5-6.8,2.2-8,5.6c-1,2.7,0,5.5,1.9,6.6
		c0.9,0.5,1.2,1.6,0.8,2.8l-0.1,0.3c-0.6,2,0.7,3.6,2.6,2.9c0,0,0,0,0,0c1.3-0.5,2.4-1.5,3.5-2.5c3.4-3.1,6.5-6.8,9-10.7
		c0.7-1.1,1.4-2.4,1.6-3.6C994.5,916,993.9,914.8,992.8,914.8z"/>
	<path class="st93" d="M981.9,920.4c-28.9,50-183.5,9.3-136.8-95.4C891.8,720.3,1043.9,813,981.9,920.4z"/>
	<path class="st94" d="M866.4,807.8c0,3,2,5,4,6.6c13.4,10.6,34.3,11.4,53.1,1.9c4.5-2.3,9.5-5.8,10.9-10.7c1-3.4-0.1-6.5-2-8.6
		c-1.9-2.1-4.6-3.2-7.3-4.2c-7.8-3-16-5.5-25-5.4c-9,0.1-18.9,3.1-27,9.7C869.7,799.9,866.4,803.9,866.4,807.8z"/>
	<path class="st94" d="M939.9,806c-2,3-1,6.6,0.6,8.9c1.8,2.6,4.5,4.6,7.8,4.7c3.4,0.1,7.4-2.2,9.2-5.8c1.6-3.2,0.9-6.7-1-8.7
		c-1.9-2-4.9-2.7-7.9-2.8C945.6,802.1,941.9,803,939.9,806z"/>
</g>
<path class="st95" d="M986,910.9c-1.9,2.6-3.4,5.4-4.9,8.2c-1.7,3.1-3.9,5.9-5.9,8.8c-1,1.5,1.2,2.9,2.4,1.9
	c4.9-4.3,9.6-11.4,11.3-17.7C989.4,910.3,987,909.5,986,910.9z"/>
<g>
	<path class="st105" d="M516.3,279.4c-0.9-1.3-1.6-2.8-2.3-4.2c-0.7-1.2-1.1-3.2-2-4.8c-1.9-3.4-6.4-2.3-7.6,1
		c-1.1,2.9-0.1,5.6,1,8.2c1.1,2.4,3.1,4.1,5.4,5.3C514.1,286.9,518.7,283,516.3,279.4z"/>
	<path class="st105" d="M549.5,328.5c-2.3-3.9-9.2-1.3-7.4,3.2c2.1,5.1,3.9,11,8.2,14.7c2.1,1.8,6,0.8,5.8-2.4
		C555.7,338.3,552.4,333.4,549.5,328.5z"/>
	<path class="st105" d="M508.3,321.7c-3.6,0.2-7.2,2.8-10.2,4.6c-3.1,1.8-6.8,4.4-7.9,8c-0.5,1.6,0.9,3.7,2.7,3.5
		c3.6-0.4,6.2-3,9-5.1c2.8-2.1,6.7-4.6,8.4-7.7C511,323.6,510,321.7,508.3,321.7z"/>
	<path class="st105" d="M565.1,280.7c-2.5,0.4-4.5,1.8-6.6,3.1c-2.4,1.4-4.9,2.6-7.4,3.9c-3.2,1.7-0.9,6.5,2.4,5.7
		c5.1-1.2,12.1-3.5,15.1-8.2C570.2,282.8,567.5,280.4,565.1,280.7z"/>
	<path class="st105" d="M540.1,278.3c0.3-1.6,0.8-3.1,1.3-4.6c0.4-1.3,1.5-3.1,1.9-4.8c1-3.7-2.9-6.2-6.1-4.7
		c-2.8,1.3-4,3.9-5.1,6.6c-1,2.5-0.7,5.1,0,7.6C533.3,282,539.3,282.5,540.1,278.3z"/>
	<path class="st105" d="M529.2,336.7c1.1-4.4-5.6-7.5-7.5-3.1c-2.1,5.1-5,10.6-4.6,16.2c0.2,2.7,3.7,4.9,5.8,2.4
		C526.7,348,527.8,342.2,529.2,336.7z"/>
	<path class="st105" d="M504.8,302.5c-2.7-2.5-7-3.2-10.5-4c-3.5-0.9-7.9-1.7-11.2,0c-1.5,0.8-2,3.3-0.6,4.4
		c2.8,2.3,6.5,2.3,9.9,2.8c3.5,0.4,8,1.5,11.4,0.5C505.4,305.8,506.1,303.7,504.8,302.5z"/>
	<path class="st105" d="M573.7,314c-2-1.5-4.5-1.9-6.8-2.6c-2.7-0.7-5.3-1.7-8-2.5c-3.5-1.1-5.2,3.9-2.3,5.8c4.5,2.8,11,6.1,16.4,5
		C575.9,319.1,575.7,315.5,573.7,314z"/>
	<path class="st105" d="M528,295.3c-0.9,0.2-2.3,0.6-2.9,1.1c-0.6,0.5-1.3,1-1.9,1.5c-0.7,0.7-1.1,1.5-1.7,2.3
		c-1.8,2.9-1.1,6.9,1.2,9.3c2.3,2.3,6.3,3.1,9.2,1.2c1.4-0.9,2.4-1.9,3.5-3.2c0.7-0.9,1.1-2.1,1.3-3.2
		C537.9,298.7,533.4,294.1,528,295.3z"/>
</g>
<path class="st105" d="M538.6,963c-3.5-22.7-22.3-52-47.7-52.2c-0.6-2.1-1.2-4-1.9-5.4c-12.8-28-45.2-25.9-62.9-4.5
	c-2.3,2.8,1.6,6.9,4.1,4.1c15-17,37.6-19.8,50.4,1.2c1,1.7,1.8,3.7,2.5,6c-8.3,2.7-16.5,9.4-18.6,17.1c-2.9,10.6,6.3,19.3,16.8,18.9
	c11.2-0.4,13-13.8,11.8-26c3.9,0.4,7.8,2,11.3,4.2c13.3,8.5,20.1,26.2,26.2,40C532.7,971.4,539.3,967.5,538.6,963z M474.7,934.4
	c-1.3-3.2,5.6-8,7.6-9.4c0.8-0.6,1.6-1,2.5-1.4c0.1,4.9-0.7,9.7-2.3,13.2C480.8,940.1,475.5,936.4,474.7,934.4z"/>
<path class="st105" d="M788.8,959.1c-12.2,1.1-22.6-5.7-28.1-16.4c0,0,0,0,0,0c3.8-0.3,7.5-1.4,10.8-3.2c11.4-6.3,8.7-19,1.9-27.4
	c-0.7-0.9-2.2-1.1-3.2-0.9c-13.9,3.8-18.5,13.3-17.2,23.2c-3.7-1-7.2-3.1-9.6-6.3c-9.1-11.9-11-32-6.4-45.9c0.8-2.4,2-4.3,3.6-5.8
	c3.3,11.8,10.5,20.5,23.3,13.6c9.7-5.2,10.3-16.8,1.5-23.2c-5.1-3.8-13.5-4.1-20.5-2c-0.8-7.5-0.5-14.9,0.1-18
	c0.6-3.1-3.6-4.3-4.7-1.3c-1.7,4.9-2.4,13.4-1.4,21.9c-1.2,0.7-2.2,1.4-3.1,2.3c-16.4,15.3-10.3,52,4.5,66.4c4.1,4,9.6,6.2,15.2,6.8
	c5.5,12.2,19,22.5,33.9,19.9C791.3,962.3,790.8,958.9,788.8,959.1z M752.2,871.5c3.2-0.3,6.5,0.1,9.4,1.7c6.5,3.5,1.1,10-3.8,11.3
	c-6.1,1.6-9.6-4.1-11.5-11.7C748.1,872.1,750.1,871.7,752.2,871.5z M769.7,918.3c6.5,10.6-1.8,17-11.3,16.9
	C757.7,927.6,761.9,921.1,769.7,918.3z"/>
<path class="st93" d="M250.6,790.3c-11.8,0-11.8,18.2,0,18.2C262.3,808.6,262.3,790.3,250.6,790.3z"/>
<path class="st106" d="M349,295c-2.1-1.2-5.3-1.5-7.3,0c-0.4,0.3-0.8,0.6-1.3,0.9c-1.8,1.3-3.1,3-3.1,5.4c0,2.4,1.3,4.1,3.1,5.4
	l1.3,0.9c2.1,1.5,5.3,1.2,7.3,0c2.2-1.3,3.6-3.7,3.6-6.3C352.6,298.7,351.3,296.3,349,295z"/>
<path class="st100" d="M1016.7,755.4c-0.8-1.4-2.6-3-4.3-3.3c-0.1,0-0.2,0-0.3-0.1c-1.5-0.2-1.7-0.2-3.1,0c-3.3,0.5-5.6,3.8-5.6,7
	c0,5.5,6.1,9,10.8,6.2c2.2-1.3,3.6-3.7,3.6-6.2C1017.7,757.7,1017.4,756.5,1016.7,755.4z"/>
<path class="st95" d="M679.8,1138.3c0.7-6.9-0.2-14.2-2.1-21c-0.4-1.4-2.5-0.8-2.2,0.6c1.8,6.7,1.8,13.5,2.4,20.4"/>
<g>
	<path class="st107" d="M665.4,1106.1c-0.5,2.2,0.3,4.5-0.3,6.6c-0.5,1.6-1.7,2.9-2.6,4.4c-0.9,1.4-1.5,3.4-0.6,4.8
		c0.7,1,1.9,1.5,3.1,1.9c7.3,2,15.6,0.2,21.3-4.8c1.1-0.9,2.1-2,2.6-3.3c0.5-1.3,0.5-2.9-0.4-4c-1.6-2-4.7-1.4-6.8-2.8
		c-1.7-1.1-2.5-3.2-3.7-4.9c-1.6-2.1-4.4-3.3-7-2.9C668.3,1101.5,665.9,1103.6,665.4,1106.1z"/>
	<path class="st106" d="M673.8,1109.9c-40.7,10.8-113.2-91-86-145.2s94.2-49.8,121.9-4.3C737.3,1005.8,717.5,1098.3,673.8,1109.9z"
		/>
	<path class="st108" d="M686.8,950.7c-5.2-5.5-12.7-10.3-20.1-8.3c-5.8,1.6-9.9,7.2-11,13.1c-1,5.9,0.5,12.1,3.1,17.5
		c3.8,8.2,9.8,15.4,17.1,20.6c3.3,2.3,6.9,4.3,10.8,4.9c3.9,0.7,8.3-0.2,11.2-2.8c4.7-4.2,4.7-11.6,3.3-17.7
		C699.1,967.9,694,958.3,686.8,950.7z"/>
	<path class="st108" d="M712.2,1013.1c1.5-4,1.6-9.5-2.2-11.6c-2.2-1.2-5-0.7-7,0.7c-2.1,1.4-3.5,3.5-4.6,5.8c-2,3.9-3,9.3,0.4,12.1
		c2.3,1.9,5.8,1.7,8.3,0.1S711.2,1015.8,712.2,1013.1z"/>
</g>
<path class="st95" d="M681.7,1108.5c-0.5,0.3-1.1,0.6-1.6,0.9c-0.7,0.3-1.4,0.6-2.1,0.9c-5.1,1.8-10.5,1.4-16,1.8
	c-1.4,0.1-1.4,2,0,2.1c6.4,0.5,13.1,0.5,19-2.1c0.7-0.2,1.4-0.6,2.2-1.1C684.6,1109.9,683.3,1107.5,681.7,1108.5z"/>
<path class="st105" d="M584.6,445.2c-0.1-2.7-4-2.7-4.2,0c-0.8,9.1-2.1,18.2-4.4,27.1c-1.8,6.7-5.6,19.8-13.6,22.3
	c1.1-8.9-2.5-16.5-12.5-20.4c-10.5-4.1-17.1,7.5-10.5,15.5c4.4,5.4,10.5,9.3,16.6,10.4c-2.7,6.5-7.7,12.8-11.6,15.7
	c-4.8,3.6-12.4,7.2-19.4,7.6c0-0.1,0.1-0.2,0.1-0.2c4-6.7,1.8-13.5-5-17c-9.6-5-18.9,1-13.7,11.8c2.4,5,6.2,7.9,10.6,9.2
	c-4.2,4.3-9.9,7.7-14.9,10.2c-8.5,4.3-19.1,6.9-28.2,3.1c-1.4-0.6-2.4,1.8-1,2.4c15.6,7,37.6-1.8,48.7-14.9c4.5,0.3,9.3-0.5,13.8-2
	c11.5-3.8,20.2-11.9,24.8-23.2c0.4-0.9,0.7-1.7,0.9-2.6c4.7-0.5,9.2-2.9,12.8-7.9C583.1,479.5,585.4,460.7,584.6,445.2z
	 M509.7,510.4c0.7-3.9,8.5-0.1,10,0.8c3.4,2,3.6,5.7,2.1,9c-0.5,1-1,2-1.6,3c-2.4-0.4-4.6-1.3-6.5-2.9
	C511.1,518.1,509.1,513.8,509.7,510.4z M545.2,487.9c-2-1.8-5.7-7-0.9-8.7c3-1.1,7.3,1.9,9.5,3.6c3.7,3,4.5,7.4,3.7,12.1
	C553,494,548.3,490.7,545.2,487.9z"/>
</svg>
